<svg xmlns="http://www.w3.org/2000/svg" xmlns:xlink="http://www.w3.org/1999/xlink" width="500" zoomAndPan="magnify" viewBox="0 0 375 374.999991" height="500" preserveAspectRatio="xMidYMid meet" version="1.0"><defs><clipPath id="8a359cf578"><path d="M 310 80.390625 L 323 80.390625 L 323 108 L 310 108 Z M 310 80.390625 " clip-rule="nonzero"/></clipPath><clipPath id="90bbc70936"><path d="M 125 224 L 171 224 L 171 294.890625 L 125 294.890625 Z M 125 224 " clip-rule="nonzero"/></clipPath><clipPath id="bbf2e6aea1"><path d="M 178 222 L 224 222 L 224 294.890625 L 178 294.890625 Z M 178 222 " clip-rule="nonzero"/></clipPath><clipPath id="03b4570e28"><path d="M 231 221 L 294 221 L 294 294.890625 L 231 294.890625 Z M 231 221 " clip-rule="nonzero"/></clipPath></defs><g clip-path="url(#8a359cf578)"><path fill="#000000" d="M 313.4375 83.300781 C 318.273438 76.636719 323.609375 82.679688 322.238281 89.046875 C 321.207031 93.625 319.464844 97.914062 317.007812 101.914062 C 316.089844 103.214844 314.566406 106.132812 313.128906 106.636719 C 312.804688 106.96875 312.414062 107.089844 311.960938 107.003906 C 311.183594 106.867188 310.90625 106.035156 310.855469 105.339844 C 310.632812 103.519531 310.402344 101.6875 310.347656 99.84375 C 309.960938 94.167969 310.480469 88.289062 313.4375 83.300781 Z M 313.4375 83.300781 " fill-opacity="1" fill-rule="nonzero"/></g><path fill="#000000" d="M 352.457031 93.578125 C 352.675781 98.113281 348.617188 102.234375 345.085938 104.574219 C 342.539062 106.1875 339.570312 106.949219 336.746094 107.933594 C 334.335938 108.753906 326.582031 111.902344 324.589844 110.539062 C 322.371094 110.273438 323.71875 107.757812 324.539062 106.671875 C 325.882812 104.5 327.398438 102.460938 329.089844 100.542969 C 332.582031 97.042969 336.125 93.421875 340.585938 91.160156 C 344.59375 88.886719 351.289062 87.527344 352.457031 93.578125 Z M 352.457031 93.578125 " fill-opacity="1" fill-rule="nonzero"/><path fill="#000000" d="M 368.96875 106.042969 C 374.800781 107.152344 376.675781 112.25 371.652344 115.988281 C 367.457031 118.824219 361.996094 118.304688 357.214844 117.71875 C 354.75 117.289062 344.4375 116.367188 344.421875 113.296875 C 343.28125 111.003906 348.699219 109.652344 350.15625 108.84375 C 352.480469 107.710938 354.925781 106.949219 357.480469 106.554688 C 361.25 105.769531 365.160156 105.140625 368.96875 106.042969 Z M 368.96875 106.042969 " fill-opacity="1" fill-rule="nonzero"/><path fill="#000000" d="M 39.855469 224.160156 C 42.066406 223.832031 47.71875 223.59375 45.660156 227.300781 C 42.554688 230.058594 38.675781 231.90625 35.128906 234.058594 C 29.027344 236.84375 18.832031 242.546875 12.207031 241.621094 C 8.734375 240.925781 7.269531 237.398438 9.628906 234.613281 C 11.851562 232.242188 14.449219 230.398438 17.417969 229.082031 C 20.65625 227.796875 24 226.917969 27.453125 226.445312 C 31.535156 225.402344 35.671875 224.640625 39.855469 224.160156 Z M 39.855469 224.160156 " fill-opacity="1" fill-rule="nonzero"/><path fill="#000000" d="M 49.140625 234.238281 C 49.976562 235.410156 49.054688 236.671875 48.449219 237.707031 C 47.640625 239.859375 46.660156 241.925781 45.503906 243.914062 C 42.191406 249.804688 29.199219 268.945312 21.585938 266.359375 C 14.375 263.425781 22.773438 253.585938 25.53125 249.902344 C 28.074219 247.042969 30.855469 244.441406 33.875 242.09375 C 37.332031 239.390625 40.816406 236.597656 44.832031 234.777344 C 46.058594 233.898438 47.949219 232.773438 49.140625 234.238281 Z M 49.140625 234.238281 " fill-opacity="1" fill-rule="nonzero"/><path fill="#000000" d="M 63.351562 238.148438 C 63.390625 241.1875 63.230469 244.214844 62.875 247.234375 C 62.039062 252.761719 57.792969 274.492188 49.570312 271.261719 C 41.585938 266.355469 51.546875 248.761719 55.417969 243.132812 C 56.515625 241.5625 57.769531 240.105469 58.9375 238.582031 C 59.996094 237.121094 62.554688 235.628906 63.351562 238.148438 Z M 63.351562 238.148438 " fill-opacity="1" fill-rule="nonzero"/><path fill="#000000" d="M 235.132812 121.835938 C 236.5 121.871094 235.164062 131.929688 235.164062 133.414062 C 234.671875 139.75 234.207031 146.085938 233.839844 152.425781 C 232.886719 162.632812 232.070312 172.859375 230.894531 183.042969 C 230.273438 185.394531 230.5 199.8125 228.628906 202.910156 C 228.628906 203.191406 228.542969 203.445312 228.371094 203.671875 C 228.085938 204.046875 227.707031 204.265625 227.242188 204.328125 C 226.464844 204.492188 225.996094 204.601562 225.277344 204.746094 C 222.339844 205.332031 219.320312 205.113281 216.394531 205.785156 C 215.148438 205.996094 213.878906 206.019531 212.644531 206.285156 C 211.9375 206.378906 211.105469 206.863281 210.460938 206.378906 C 210.355469 206.328125 210.261719 206.265625 210.179688 206.183594 C 209.597656 205.613281 209.738281 204.742188 209.683594 203.996094 C 209.65625 201.527344 209.773438 199 209.785156 196.554688 C 209.769531 190.09375 210.09375 183.65625 210.3125 177.203125 C 210.527344 164.328125 211.0625 151.445312 212.460938 138.640625 C 212.695312 134.136719 213.191406 129.65625 213.945312 125.207031 C 213.980469 125.035156 214.046875 124.875 214.144531 124.726562 C 214.222656 124.5 214.359375 124.316406 214.554688 124.175781 C 216.183594 123.546875 217.863281 123.113281 219.589844 122.875 C 224.417969 122.003906 229.285156 121.640625 234.1875 121.789062 C 234.511719 121.652344 234.824219 121.667969 235.132812 121.835938 Z M 235.132812 121.835938 " fill-opacity="1" fill-rule="nonzero"/><path fill="#000000" d="M 306.8125 121.871094 C 307.070312 122.136719 307.195312 122.453125 307.1875 122.824219 C 306.375 130.433594 304.988281 137.976562 303.777344 145.53125 C 302.105469 157.109375 299.875 168.589844 298.09375 180.148438 C 297.324219 185.542969 296.265625 190.882812 295.25 196.230469 C 294.671875 199.566406 294.257812 202.925781 293.476562 206.222656 C 293.484375 206.652344 293.355469 207.03125 293.089844 207.367188 C 293.019531 207.632812 292.875 207.851562 292.660156 208.023438 C 292.445312 208.195312 292.203125 208.285156 291.929688 208.296875 C 290.089844 208.464844 288.242188 208.464844 286.398438 208.472656 C 284.066406 208.414062 281.742188 208.441406 279.425781 208.175781 C 279.214844 208.214844 279.011719 208.191406 278.8125 208.113281 C 278.335938 208.117188 277.984375 207.910156 277.75 207.496094 C 276.203125 204.433594 274.4375 201.628906 272.925781 198.558594 C 270.734375 194.148438 268.753906 189.644531 266.679688 185.175781 C 264.941406 181.199219 262.988281 177.328125 261.277344 173.335938 C 261.160156 173.085938 261.042969 172.835938 260.925781 172.585938 C 260.339844 178.628906 259.777344 184.671875 259.179688 190.71875 C 258.800781 194.695312 258.410156 198.726562 258.34375 202.703125 C 258.308594 204.804688 258.167969 206.902344 258.054688 209.003906 C 258.046875 209.296875 257.945312 209.550781 257.742188 209.765625 C 257.542969 209.980469 257.292969 210.097656 257 210.117188 C 256.75 210.285156 256.472656 210.359375 256.167969 210.34375 C 251.378906 209.980469 246.539062 209.925781 241.789062 209.09375 C 241.625 209.058594 241.472656 208.992188 241.332031 208.894531 C 241.191406 208.796875 241.078125 208.675781 240.988281 208.535156 C 240.894531 208.390625 240.835938 208.234375 240.808594 208.066406 C 240.78125 207.898438 240.785156 207.734375 240.824219 207.566406 C 240.730469 207.25 240.714844 206.933594 240.78125 206.609375 C 240.953125 204.742188 241.269531 202.890625 241.515625 201.035156 C 242.15625 195.933594 242.558594 190.796875 243.246094 185.695312 C 245.335938 167.65625 248.289062 149.726562 250.359375 131.675781 C 250.613281 129.601562 250.804688 127.523438 251.015625 125.449219 C 251.046875 125.203125 251.140625 124.980469 251.296875 124.789062 C 251.453125 124.59375 251.648438 124.457031 251.882812 124.378906 C 252.660156 124 253.472656 123.867188 254.328125 123.988281 C 256.957031 123.878906 259.589844 123.839844 262.222656 123.804688 C 262.992188 123.71875 263.765625 123.722656 264.535156 123.820312 C 265.257812 123.515625 266.234375 123.949219 266.300781 125.414062 C 269.570312 134.707031 272.246094 144.183594 275.34375 153.539062 C 276.890625 158.128906 278.351562 162.742188 279.910156 167.328125 C 279.945312 167.472656 279.992188 167.644531 280.054688 167.835938 C 280.144531 167.296875 280.234375 166.761719 280.328125 166.222656 C 281.011719 162.480469 281.761719 158.746094 282.570312 155.027344 C 284.675781 144.75 286.953125 134.515625 289.402344 124.320312 C 289.519531 123.78125 289.683594 123.261719 289.902344 122.757812 C 289.957031 122.644531 290.03125 122.542969 290.117188 122.449219 C 290.226562 122.085938 290.457031 121.835938 290.8125 121.707031 C 293.25 121.378906 295.695312 121.207031 298.152344 121.195312 C 299.605469 121.039062 301.0625 120.960938 302.523438 120.957031 C 303.296875 120.863281 304.070312 120.855469 304.84375 120.925781 C 305.316406 120.910156 305.753906 121.015625 306.164062 121.253906 C 306.46875 121.367188 306.683594 121.574219 306.8125 121.871094 Z M 306.8125 121.871094 " fill-opacity="1" fill-rule="nonzero"/><path fill="#000000" d="M 364.050781 147.75 C 364.191406 148.851562 364.277344 150.449219 363.175781 150.914062 C 363.066406 151.039062 362.9375 151.140625 362.792969 151.214844 C 360.546875 152.167969 358.238281 152.917969 355.863281 153.464844 C 354.28125 153.933594 352.675781 154.296875 351.046875 154.558594 C 350.726562 154.527344 350.453125 154.394531 350.234375 154.160156 C 349.933594 154.019531 349.714844 153.800781 349.578125 153.503906 C 349.28125 151.539062 348.671875 149.679688 347.742188 147.925781 C 346.773438 145.722656 344.144531 145.191406 341.960938 145.367188 C 337.484375 146.0625 334.226562 149.824219 331.9375 153.476562 C 329.488281 157.382812 327.894531 161.609375 327.160156 166.15625 C 326.5625 168.808594 326.1875 171.488281 326.027344 174.199219 C 326.144531 178.242188 327.195312 182.433594 330.039062 185.433594 C 331.417969 187.011719 333.558594 187.527344 335.515625 188 C 339.195312 187.925781 341.121094 183.636719 341.792969 180.460938 C 339.390625 180.234375 336.992188 179.980469 334.601562 179.640625 C 333.976562 179.59375 333.355469 179.519531 332.734375 179.410156 C 332.152344 179.511719 331.660156 179.34375 331.257812 178.902344 C 329.578125 175.269531 330.136719 171 330.378906 167.109375 C 330.589844 165.910156 330.15625 163.671875 331.097656 162.875 C 332.226562 161.8125 338.808594 162.40625 340.675781 162.421875 C 345.996094 162.773438 351.324219 163.019531 356.644531 163.292969 C 357.335938 163.277344 357.996094 163.417969 358.621094 163.71875 C 358.796875 163.824219 358.941406 163.960938 359.058594 164.132812 C 359.289062 164.273438 359.460938 164.46875 359.574219 164.710938 C 359.691406 164.957031 359.726562 165.214844 359.6875 165.480469 C 359.730469 170.058594 359.519531 174.621094 359.058594 179.175781 C 357.742188 189.867188 356.820312 205.875 344.8125 209.925781 C 342.132812 210.820312 339.382812 211.300781 336.5625 211.363281 C 333.738281 211.429688 330.96875 211.078125 328.253906 210.308594 C 315.636719 205.996094 309.535156 196.800781 308.257812 183.792969 C 306.335938 167.265625 308.808594 149.261719 319.171875 135.789062 C 324.65625 128.515625 332.65625 124.171875 341.851562 124.539062 C 343.453125 124.527344 345.039062 124.691406 346.601562 125.027344 C 348.167969 125.363281 349.679688 125.863281 351.136719 126.527344 C 352.59375 127.191406 353.964844 128.003906 355.246094 128.96875 C 356.523438 129.933594 357.6875 131.023438 358.730469 132.238281 C 361.25 135.105469 362.222656 138.890625 363.230469 142.488281 C 363.660156 144.21875 363.933594 145.972656 364.050781 147.75 Z M 364.050781 147.75 " fill-opacity="1" fill-rule="nonzero"/><path fill="#000000" d="M 198.203125 203.117188 C 198.226562 203.425781 198.160156 203.714844 198.007812 203.980469 C 197.855469 204.25 197.640625 204.453125 197.367188 204.59375 C 197.046875 204.953125 196.65625 205.175781 196.183594 205.261719 C 192.722656 206.074219 189.195312 206.582031 185.699219 207.242188 C 184.601562 207.441406 183.492188 207.582031 182.398438 207.820312 C 181.902344 207.976562 181.402344 207.996094 180.898438 207.890625 C 180.707031 207.828125 180.542969 207.722656 180.40625 207.578125 C 180.136719 207.453125 179.902344 207.28125 179.699219 207.066406 C 177.722656 202.726562 176.199219 198.136719 174.449219 193.6875 C 173.082031 190.363281 172.40625 186.792969 170.847656 183.554688 C 168.230469 187.054688 166.066406 190.875 163.460938 194.378906 C 163.347656 194.605469 163.179688 194.777344 162.953125 194.890625 C 162.726562 195.007812 162.488281 195.042969 162.238281 194.996094 C 161.953125 195.117188 161.660156 195.152344 161.351562 195.09375 C 159.105469 195.035156 156.878906 194.800781 154.667969 194.398438 C 153.71875 194.15625 151.542969 194.019531 150.144531 193.59375 C 149.800781 193.671875 149.472656 193.636719 149.152344 193.488281 C 148.835938 193.339844 148.59375 193.109375 148.433594 192.800781 C 146.691406 188.242188 146 183.355469 144.65625 178.675781 C 142.996094 185.175781 140.683594 191.464844 138.800781 197.894531 C 138.253906 200.089844 137.546875 202.246094 136.992188 204.4375 C 136.976562 204.761719 136.859375 205.039062 136.640625 205.273438 C 136.417969 205.507812 136.148438 205.644531 135.828125 205.679688 C 135.527344 205.886719 135.199219 205.953125 134.84375 205.871094 C 131.28125 205.53125 127.679688 206.0625 124.160156 205.742188 C 124.074219 205.714844 123.992188 205.679688 123.914062 205.640625 C 123.769531 205.664062 123.625 205.671875 123.476562 205.664062 C 121 205.210938 122.355469 202.019531 122.390625 200.316406 C 122.929688 196.714844 123.242188 193.082031 123.78125 189.480469 C 125.277344 175.875 127.441406 162.351562 129.769531 148.867188 C 131.890625 140.730469 133.410156 132.445312 135.402344 124.277344 C 135.445312 123.929688 135.570312 123.617188 135.773438 123.335938 C 135.9375 123.078125 136.160156 122.894531 136.441406 122.785156 C 136.726562 122.675781 137.015625 122.660156 137.308594 122.742188 C 139.621094 122.6875 147.558594 122.195312 148.898438 123.980469 C 149.109375 124.289062 149.183594 124.632812 149.121094 125.003906 C 152.363281 138.027344 154.898438 151.246094 159.535156 163.882812 C 161.503906 159.261719 162.746094 154.367188 164.667969 149.726562 C 167.132812 143.78125 169.832031 137.9375 172.320312 132.003906 C 173.320312 129.75 174.398438 127.53125 175.472656 125.308594 C 175.960938 124.238281 176.574219 122.570312 177.832031 122.628906 C 177.875 122.597656 177.917969 122.574219 177.964844 122.550781 C 179.242188 122.3125 180.523438 122.234375 181.820312 122.320312 C 184.589844 122.472656 187.417969 122.375 190.152344 122.773438 C 190.734375 122.8125 191.210938 123.054688 191.582031 123.503906 C 191.925781 123.6875 192.128906 123.972656 192.191406 124.355469 C 192.296875 125.722656 192.605469 127.0625 192.796875 128.414062 C 195.113281 145 195.386719 161.78125 196.558594 178.46875 C 197.0625 186.6875 197.886719 194.890625 198.203125 203.117188 Z M 198.203125 203.117188 " fill-opacity="1" fill-rule="nonzero"/><path fill="#000000" d="M 118.222656 147.910156 C 119.46875 153.417969 120.078125 158.996094 120.054688 164.640625 C 120.03125 170.285156 119.375 175.855469 118.085938 181.351562 C 116.800781 186.371094 115.539062 191.453125 112.617188 195.8125 C 108.402344 203.070312 101.550781 209.945312 92.660156 210.0625 C 74.054688 209.984375 69.660156 193.085938 70.246094 177.488281 C 70.105469 169.765625 70.535156 162.03125 72.925781 154.632812 C 74.910156 147.101562 77.550781 139.34375 83.320312 133.839844 C 89.160156 127.535156 99.78125 122.90625 107.238281 129.136719 C 110.273438 131.515625 112.769531 134.367188 114.726562 137.6875 C 116.308594 140.953125 117.476562 144.359375 118.222656 147.910156 Z M 101.785156 164.457031 C 101.851562 162.179688 101.511719 159.570312 99.765625 157.945312 C 98.929688 157.175781 97.710938 157.199219 96.75 156.6875 C 91.816406 158.492188 89.105469 163.886719 88.304688 168.816406 C 88.03125 173.503906 84.972656 183.289062 92.101562 183.894531 C 96.152344 183.644531 98.632812 179.042969 99.78125 175.601562 C 101.15625 172.015625 101.828125 168.304688 101.785156 164.460938 Z M 101.785156 164.457031 " fill-opacity="1" fill-rule="nonzero"/><path fill="#000000" d="M 59.738281 139.824219 C 60.535156 142.992188 60.820312 146.207031 60.59375 149.464844 C 60.589844 149.714844 60.523438 149.945312 60.386719 150.15625 C 60.253906 150.367188 60.070312 150.527344 59.84375 150.632812 C 59.820312 150.65625 59.796875 150.679688 59.769531 150.703125 C 59.179688 151.085938 58.542969 151.363281 57.863281 151.535156 C 56.558594 151.96875 55.265625 152.425781 53.964844 152.863281 C 52.46875 153.242188 47.394531 155.375 46.394531 154.117188 C 46.246094 153.90625 46.140625 153.675781 46.078125 153.425781 C 45.652344 152.597656 45.691406 151.351562 45.398438 150.539062 C 45.09375 149.359375 44.679688 148.222656 44.152344 147.125 C 42.078125 143.363281 37.164062 142.933594 33.582031 144.644531 C 31.332031 145.90625 29.648438 148.457031 28.273438 150.464844 C 23.777344 157.570312 22.011719 165.921875 21.324219 174.210938 C 20.960938 181.199219 20.195312 189.191406 24.394531 195.226562 C 29.570312 198.941406 34.695312 195.835938 38.226562 191.503906 C 40.828125 188.109375 42.324219 183.910156 43.527344 179.839844 C 43.613281 179.277344 43.769531 178.730469 43.996094 178.207031 C 44.160156 177.878906 44.414062 177.640625 44.75 177.496094 C 45.089844 177.351562 45.4375 177.335938 45.785156 177.449219 C 46.207031 177.382812 46.648438 177.378906 47.0625 177.324219 C 47.96875 177.25 48.875 177.226562 49.78125 177.257812 C 52.71875 177.378906 55.679688 177.121094 58.59375 177.425781 C 58.824219 177.488281 59.027344 177.597656 59.199219 177.757812 C 59.621094 178.03125 59.914062 178.40625 60.085938 178.875 C 60.257812 179.347656 60.269531 179.824219 60.125 180.300781 C 60.0625 187.058594 57.460938 193.347656 54.464844 199.28125 C 49.277344 209.5625 39.046875 218.824219 26.964844 218.464844 C 9.492188 218.320312 2.046875 201.21875 0.683594 186.0625 C 0.128906 178.492188 0.59375 170.988281 2.078125 163.542969 C 3.140625 158.582031 3.921875 153.539062 5.492188 148.707031 C 10.324219 137.058594 19.417969 126.433594 31.738281 122.625 C 34.179688 121.960938 36.664062 121.617188 39.195312 121.59375 C 41.722656 121.574219 44.210938 121.871094 46.664062 122.492188 C 54.371094 124.585938 57.777344 132.792969 59.738281 139.824219 Z M 59.738281 139.824219 " fill-opacity="1" fill-rule="nonzero"/><path fill="#000000" d="M 116.058594 233.429688 C 116.878906 235.625 114.464844 236.488281 113.09375 237.59375 C 111.640625 238.417969 108.941406 241.074219 107.351562 240.792969 C 107.257812 240.769531 107.167969 240.730469 107.085938 240.683594 C 105.96875 240.707031 104.742188 239.246094 103.757812 238.832031 C 100.027344 236.15625 95.972656 234.613281 91.554688 236.773438 C 88.546875 241.199219 97.667969 243.695312 100.53125 245.054688 C 102.875 245.914062 105.015625 247.128906 106.953125 248.707031 C 111.074219 251.941406 113.378906 256.984375 114.503906 262.007812 C 116.246094 269.324219 115.765625 277.246094 111.835938 283.792969 C 110.519531 286.128906 108.832031 288.15625 106.773438 289.871094 C 104.648438 291.367188 102.335938 292.457031 99.832031 293.144531 C 97.328125 293.835938 94.78125 294.078125 92.191406 293.882812 C 88.054688 293.175781 83.757812 292.058594 80.222656 289.714844 C 76.511719 287.046875 73.996094 282.789062 72.601562 278.496094 C 71.730469 276.617188 72.496094 275.453125 73.503906 275.332031 C 74.046875 274.742188 74.972656 274.671875 75.691406 274.351562 C 78.066406 273.441406 80.503906 272.722656 82.917969 271.9375 C 83.40625 271.628906 83.925781 271.554688 84.476562 271.714844 C 84.804688 271.628906 85.125 271.644531 85.4375 271.761719 C 85.753906 271.882812 86.003906 272.085938 86.1875 272.367188 C 87.804688 275.335938 90.375 278.015625 93.78125 278.746094 C 95.984375 278.828125 98.480469 278.257812 99.914062 276.464844 C 100.433594 275.628906 100.835938 274.734375 101.117188 273.785156 C 101.398438 272.839844 101.546875 271.871094 101.570312 270.882812 C 101.589844 269.894531 101.480469 268.921875 101.238281 267.964844 C 101 267.003906 100.636719 266.09375 100.152344 265.234375 C 96.195312 258.820312 89.429688 257.925781 83.179688 255.15625 C 75.421875 251.414062 72.109375 244.222656 74.128906 235.855469 C 75.53125 230.902344 78.730469 226.089844 83.433594 223.785156 C 85.238281 223.058594 87.097656 222.507812 89.003906 222.132812 C 90.914062 221.753906 92.839844 221.558594 94.785156 221.542969 C 96.730469 221.53125 98.660156 221.695312 100.574219 222.042969 C 102.488281 222.390625 104.351562 222.914062 106.167969 223.613281 C 110.535156 225.441406 114.671875 228.738281 116.058594 233.429688 Z M 116.058594 233.429688 " fill-opacity="1" fill-rule="nonzero"/><g clip-path="url(#90bbc70936)"><path fill="#000000" d="M 170.683594 246.453125 C 170.59375 259.378906 168.910156 272.941406 162.164062 284.210938 C 158.789062 290.070312 153.511719 295.421875 146.203125 294.480469 C 142.046875 294.042969 137.390625 292.644531 134.117188 289.972656 C 128.496094 285.472656 126.074219 277.945312 125.960938 270.929688 C 125.949219 263.125 126.382812 255.199219 128.78125 247.71875 C 131.902344 236.695312 139.84375 224.890625 152.34375 224.410156 C 153.746094 224.410156 155.140625 224.523438 156.527344 224.75 C 157.992188 224.582031 159.378906 224.835938 160.6875 225.515625 C 167.695312 229.796875 170.152344 238.699219 170.683594 246.453125 Z M 155.753906 255 C 155.605469 252.265625 155.761719 249.0625 153.984375 246.816406 C 152.808594 245.585938 150.964844 245.847656 149.484375 245.503906 C 144.375 248.414062 142.785156 256.558594 141.761719 261.957031 C 141.21875 265.066406 141.105469 268.1875 141.429688 271.328125 C 141.480469 273.171875 142.195312 275.144531 144.351562 275.136719 C 147.820312 275.238281 149.628906 272.03125 151.265625 269.46875 C 153.667969 265.042969 155.609375 260.082031 155.753906 255 Z M 155.753906 255 " fill-opacity="1" fill-rule="nonzero"/></g><g clip-path="url(#bbf2e6aea1)"><path fill="#000000" d="M 222.722656 245.503906 C 223.210938 249.265625 223.101562 253.015625 222.390625 256.742188 C 221.527344 265.769531 218.933594 274.269531 214.609375 282.238281 C 210.894531 288.238281 203.164062 294.792969 195.71875 293.9375 C 182.964844 293.050781 178.757812 285.371094 178.222656 273.453125 C 178.105469 264.417969 179.15625 255.519531 181.382812 246.761719 C 183.664062 239.011719 189.460938 228.71875 196.648438 224.710938 C 198.003906 224.054688 199.417969 223.574219 200.894531 223.273438 C 202.371094 222.972656 203.859375 222.859375 205.363281 222.933594 C 206.867188 223.003906 208.339844 223.265625 209.777344 223.710938 C 211.214844 224.152344 212.578125 224.769531 213.863281 225.558594 C 220.46875 229.828125 221.878906 238.261719 222.722656 245.503906 Z M 207.921875 253.539062 C 208.011719 251.136719 208.363281 248.617188 206.683594 246.636719 C 205.375 244.601562 204.949219 245.171875 203.042969 244.558594 C 197.6875 246.269531 195.589844 252.125 194.117188 257.042969 C 192.890625 261.824219 189.652344 274.730469 196.71875 275.976562 C 203.507812 276.003906 208.132812 259.140625 207.921875 253.542969 Z M 207.921875 253.539062 " fill-opacity="1" fill-rule="nonzero"/></g><g clip-path="url(#03b4570e28)"><path fill="#000000" d="M 292.09375 223.980469 C 292.292969 224.082031 292.46875 224.210938 292.621094 224.378906 C 292.769531 224.542969 292.886719 224.726562 292.96875 224.9375 C 293.046875 225.144531 293.085938 225.363281 293.085938 225.585938 C 293.085938 225.808594 293.046875 226.023438 292.964844 226.230469 C 292.507812 230.699219 292.070312 235.179688 291.359375 239.617188 C 289.78125 249.671875 287.78125 259.652344 285.820312 269.636719 C 284.703125 275.9375 283.410156 282.203125 282.292969 288.503906 C 281.828125 290.039062 282.15625 292.894531 280.4375 293.488281 C 280.378906 293.578125 280.316406 293.65625 280.238281 293.730469 C 279.546875 294.449219 278.503906 294.335938 277.59375 294.382812 C 275.296875 294.308594 273.003906 294.171875 270.71875 293.941406 C 269.984375 293.894531 269.269531 293.753906 268.574219 293.523438 C 267.480469 293.460938 266.886719 292.042969 266.480469 291.023438 C 265.636719 289.304688 264.695312 287.296875 263.933594 285.691406 C 260.175781 277.796875 256.578125 269.820312 252.691406 261.992188 C 251.648438 269.78125 250.628906 277.570312 249.632812 285.363281 C 249.296875 287.527344 248.925781 289.6875 248.488281 291.832031 C 248.34375 292.734375 248.195312 294.144531 247.101562 294.183594 C 246.972656 294.324219 246.824219 294.4375 246.660156 294.527344 C 245.945312 294.796875 245.207031 294.902344 244.445312 294.839844 C 241.5625 294.667969 238.695312 294.347656 235.84375 293.882812 C 234.5625 293.570312 232.960938 293.816406 231.949219 292.84375 C 231.898438 292.785156 231.855469 292.71875 231.820312 292.652344 C 230.949219 291.738281 231.609375 289.789062 231.746094 288.585938 C 232.328125 285.242188 232.726562 281.871094 233.269531 278.519531 C 235.054688 268.597656 236.023438 258.554688 237.78125 248.632812 C 238.5625 245.175781 239.140625 241.683594 239.519531 238.160156 C 240.53125 233.523438 241.136719 228.699219 242.742188 224.234375 C 242.777344 224.1875 242.808594 224.140625 242.847656 224.097656 C 242.957031 223.851562 243.128906 223.664062 243.367188 223.535156 C 243.601562 223.40625 243.855469 223.363281 244.121094 223.40625 C 247.289062 223.109375 250.582031 222.570312 253.691406 222.09375 C 254.421875 221.832031 255.144531 221.835938 255.871094 222.113281 C 255.910156 222.136719 255.949219 222.160156 255.988281 222.183594 C 256.089844 222.148438 256.195312 222.128906 256.304688 222.121094 C 256.414062 222.113281 256.519531 222.121094 256.625 222.140625 C 256.734375 222.164062 256.835938 222.195312 256.933594 222.242188 C 257.03125 222.289062 257.121094 222.347656 257.207031 222.417969 C 257.289062 222.488281 257.363281 222.566406 257.425781 222.652344 C 257.488281 222.742188 257.539062 222.835938 257.578125 222.9375 C 257.617188 223.039062 257.640625 223.144531 257.652344 223.253906 C 257.664062 223.359375 257.664062 223.46875 257.648438 223.574219 C 261.570312 233.539062 265.382812 243.554688 268.570312 253.792969 C 269.085938 255.523438 269.707031 257.222656 270.332031 258.917969 C 270.804688 256.824219 271.296875 254.742188 271.730469 252.640625 C 273.773438 243.894531 275.726562 235.128906 277.699219 226.363281 C 277.875 225.421875 278.15625 224.511719 278.539062 223.632812 C 278.703125 223.292969 278.957031 223.0625 279.308594 222.929688 C 279.507812 222.75 279.738281 222.648438 280.003906 222.625 C 282.734375 222.683594 285.457031 223.015625 288.167969 223.3125 C 289.46875 223.550781 291.042969 223.058594 292.09375 223.980469 Z M 292.09375 223.980469 " fill-opacity="1" fill-rule="nonzero"/></g></svg>