<svg xmlns="http://www.w3.org/2000/svg" xmlns:xlink="http://www.w3.org/1999/xlink" width="500" zoomAndPan="magnify" viewBox="0 0 375 374.999991" height="500" preserveAspectRatio="xMidYMid meet" version="1.0"><defs><clipPath id="01866672d6"><path d="M 310 80.390625 L 323 80.390625 L 323 107 L 310 107 Z M 310 80.390625 " clip-rule="nonzero"/></clipPath><clipPath id="bd1ce02cb3"><path d="M 125 224 L 171 224 L 171 294.890625 L 125 294.890625 Z M 125 224 " clip-rule="nonzero"/></clipPath><clipPath id="98eb0cec23"><path d="M 231 221 L 294 221 L 294 294.890625 L 231 294.890625 Z M 231 221 " clip-rule="nonzero"/></clipPath></defs><g clip-path="url(#01866672d6)"><path fill="#ffffff" d="M 313.4375 83.296875 C 318.273438 76.640625 323.609375 82.675781 322.238281 89.035156 C 321.207031 93.609375 319.464844 97.890625 317.007812 101.886719 C 316.089844 103.183594 314.566406 106.097656 313.128906 106.605469 C 312.804688 106.933594 312.414062 107.054688 311.960938 106.96875 C 311.183594 106.832031 310.90625 106 310.855469 105.308594 C 310.632812 103.488281 310.402344 101.660156 310.347656 99.820312 C 309.960938 94.148438 310.480469 88.28125 313.4375 83.296875 Z M 313.4375 83.296875 " fill-opacity="1" fill-rule="nonzero"/></g><path fill="#ffffff" d="M 352.457031 93.558594 C 352.675781 98.089844 348.617188 102.207031 345.085938 104.539062 C 342.539062 106.15625 339.570312 106.914062 336.746094 107.898438 C 334.335938 108.71875 326.582031 111.863281 324.589844 110.5 C 322.371094 110.234375 323.71875 107.71875 324.539062 106.636719 C 325.882812 104.46875 327.398438 102.429688 329.089844 100.519531 C 332.582031 97.019531 336.125 93.40625 340.585938 91.144531 C 344.59375 88.875 351.289062 87.515625 352.457031 93.558594 Z M 352.457031 93.558594 " fill-opacity="1" fill-rule="nonzero"/><path fill="#ffffff" d="M 368.96875 106.007812 C 374.800781 107.117188 376.675781 112.207031 371.652344 115.941406 C 367.457031 118.773438 361.996094 118.253906 357.214844 117.667969 C 354.75 117.242188 344.4375 116.320312 344.421875 113.253906 C 343.28125 110.960938 348.699219 109.613281 350.15625 108.804688 C 352.480469 107.675781 354.925781 106.914062 357.480469 106.519531 C 361.25 105.738281 365.160156 105.105469 368.96875 106.007812 Z M 368.96875 106.007812 " fill-opacity="1" fill-rule="nonzero"/><path fill="#ffffff" d="M 39.855469 223.96875 C 42.066406 223.640625 47.71875 223.40625 45.660156 227.105469 C 42.554688 229.863281 38.675781 231.707031 35.128906 233.855469 C 29.027344 236.640625 18.832031 242.335938 12.207031 241.410156 C 8.734375 240.714844 7.269531 237.191406 9.628906 234.410156 C 11.851562 232.042969 14.449219 230.203125 17.417969 228.886719 C 20.65625 227.601562 24 226.726562 27.453125 226.253906 C 31.535156 225.210938 35.671875 224.449219 39.855469 223.96875 Z M 39.855469 223.96875 " fill-opacity="1" fill-rule="nonzero"/><path fill="#ffffff" d="M 49.140625 234.039062 C 49.976562 235.207031 49.054688 236.46875 48.449219 237.503906 C 47.640625 239.648438 46.660156 241.714844 45.503906 243.699219 C 42.191406 249.585938 29.199219 268.699219 21.585938 266.117188 C 14.375 263.1875 22.773438 253.359375 25.53125 249.679688 C 28.074219 246.824219 30.855469 244.226562 33.875 241.882812 C 37.332031 239.179688 40.816406 236.394531 44.832031 234.578125 C 46.058594 233.699219 47.949219 232.574219 49.140625 234.039062 Z M 49.140625 234.039062 " fill-opacity="1" fill-rule="nonzero"/><path fill="#ffffff" d="M 63.351562 237.941406 C 63.390625 240.976562 63.230469 244 62.875 247.015625 C 62.039062 252.535156 57.792969 274.238281 49.570312 271.011719 C 41.585938 266.109375 51.546875 248.542969 55.417969 242.921875 C 56.515625 241.351562 57.769531 239.894531 58.9375 238.375 C 59.996094 236.914062 62.554688 235.425781 63.351562 237.941406 Z M 63.351562 237.941406 " fill-opacity="1" fill-rule="nonzero"/><path fill="#ffffff" d="M 235.132812 121.78125 C 236.5 121.816406 235.164062 131.863281 235.164062 133.34375 C 234.671875 139.671875 234.207031 146 233.839844 152.332031 C 232.886719 162.527344 232.070312 172.738281 230.894531 182.910156 C 230.273438 185.253906 230.5 199.652344 228.628906 202.75 C 228.628906 203.03125 228.542969 203.285156 228.371094 203.507812 C 228.085938 203.886719 227.707031 204.105469 227.242188 204.164062 C 226.464844 204.328125 225.996094 204.4375 225.277344 204.585938 C 222.339844 205.167969 219.320312 204.949219 216.394531 205.621094 C 215.148438 205.832031 213.878906 205.855469 212.644531 206.121094 C 211.9375 206.210938 211.105469 206.695312 210.460938 206.210938 C 210.355469 206.164062 210.261719 206.101562 210.179688 206.019531 C 209.597656 205.449219 209.738281 204.578125 209.683594 203.835938 C 209.65625 201.367188 209.773438 198.84375 209.785156 196.402344 C 209.769531 189.949219 210.09375 183.519531 210.3125 177.074219 C 210.527344 164.21875 211.0625 151.351562 212.460938 138.566406 C 212.695312 134.066406 213.191406 129.59375 213.945312 125.148438 C 213.980469 124.976562 214.046875 124.816406 214.144531 124.667969 C 214.222656 124.441406 214.359375 124.257812 214.554688 124.117188 C 216.183594 123.488281 217.863281 123.058594 219.589844 122.820312 C 224.417969 121.949219 229.285156 121.589844 234.1875 121.734375 C 234.511719 121.597656 234.824219 121.613281 235.132812 121.78125 Z M 235.132812 121.78125 " fill-opacity="1" fill-rule="nonzero"/><path fill="#ffffff" d="M 306.8125 121.816406 C 307.070312 122.082031 307.195312 122.398438 307.1875 122.765625 C 306.375 130.367188 304.988281 137.898438 303.777344 145.445312 C 302.105469 157.007812 299.875 168.472656 298.09375 180.019531 C 297.324219 185.40625 296.265625 190.734375 295.25 196.078125 C 294.671875 199.410156 294.257812 202.765625 293.476562 206.058594 C 293.484375 206.484375 293.355469 206.867188 293.089844 207.199219 C 293.019531 207.464844 292.875 207.683594 292.660156 207.855469 C 292.445312 208.027344 292.203125 208.117188 291.929688 208.128906 C 290.089844 208.296875 288.242188 208.296875 286.398438 208.304688 C 284.066406 208.246094 281.742188 208.273438 279.425781 208.007812 C 279.214844 208.046875 279.011719 208.023438 278.8125 207.945312 C 278.335938 207.949219 277.984375 207.742188 277.75 207.332031 C 276.203125 204.269531 274.4375 201.46875 272.925781 198.402344 C 270.734375 193.996094 268.753906 189.5 266.679688 185.035156 C 264.941406 181.066406 262.988281 177.199219 261.277344 173.214844 C 261.160156 172.964844 261.042969 172.714844 260.925781 172.464844 C 260.339844 178.5 259.777344 184.535156 259.179688 190.574219 C 258.800781 194.546875 258.410156 198.570312 258.34375 202.542969 C 258.308594 204.644531 258.167969 206.738281 258.054688 208.835938 C 258.046875 209.128906 257.945312 209.382812 257.742188 209.59375 C 257.542969 209.808594 257.292969 209.925781 257 209.949219 C 256.75 210.113281 256.472656 210.191406 256.167969 210.171875 C 251.378906 209.808594 246.539062 209.753906 241.789062 208.925781 C 241.625 208.890625 241.472656 208.824219 241.332031 208.726562 C 241.191406 208.628906 241.078125 208.507812 240.988281 208.367188 C 240.894531 208.222656 240.835938 208.066406 240.808594 207.898438 C 240.78125 207.734375 240.785156 207.566406 240.824219 207.402344 C 240.730469 207.085938 240.714844 206.765625 240.78125 206.445312 C 240.953125 204.578125 241.269531 202.730469 241.515625 200.878906 C 242.15625 195.78125 242.558594 190.652344 243.246094 185.558594 C 245.335938 167.539062 248.289062 149.636719 250.359375 131.609375 C 250.613281 129.539062 250.804688 127.464844 251.015625 125.390625 C 251.046875 125.140625 251.140625 124.921875 251.296875 124.730469 C 251.453125 124.539062 251.648438 124.402344 251.882812 124.320312 C 252.660156 123.941406 253.472656 123.8125 254.328125 123.929688 C 256.957031 123.820312 259.589844 123.785156 262.222656 123.75 C 262.992188 123.664062 263.765625 123.667969 264.535156 123.765625 C 265.257812 123.457031 266.234375 123.890625 266.300781 125.355469 C 269.570312 134.636719 272.246094 144.101562 275.34375 153.441406 C 276.890625 158.027344 278.351562 162.632812 279.910156 167.210938 C 279.945312 167.359375 279.992188 167.527344 280.054688 167.71875 C 280.144531 167.183594 280.234375 166.648438 280.328125 166.109375 C 281.011719 162.371094 281.761719 158.644531 282.570312 154.929688 C 284.675781 144.667969 286.953125 134.445312 289.402344 124.261719 C 289.519531 123.726562 289.683594 123.207031 289.902344 122.703125 C 289.957031 122.589844 290.03125 122.484375 290.117188 122.394531 C 290.226562 122.03125 290.457031 121.78125 290.8125 121.652344 C 293.25 121.324219 295.695312 121.152344 298.152344 121.140625 C 299.605469 120.984375 301.0625 120.90625 302.523438 120.902344 C 303.296875 120.8125 304.070312 120.800781 304.84375 120.875 C 305.316406 120.855469 305.753906 120.964844 306.164062 121.199219 C 306.46875 121.3125 306.683594 121.519531 306.8125 121.816406 Z M 306.8125 121.816406 " fill-opacity="1" fill-rule="nonzero"/><path fill="#ffffff" d="M 364.050781 147.660156 C 364.191406 148.761719 364.277344 150.359375 363.175781 150.820312 C 363.066406 150.945312 362.9375 151.046875 362.792969 151.125 C 360.546875 152.074219 358.238281 152.824219 355.863281 153.367188 C 354.28125 153.835938 352.675781 154.203125 351.046875 154.460938 C 350.726562 154.429688 350.453125 154.296875 350.234375 154.0625 C 349.933594 153.921875 349.714844 153.707031 349.578125 153.40625 C 349.28125 151.445312 348.671875 149.589844 347.742188 147.835938 C 346.773438 145.636719 344.144531 145.105469 341.960938 145.285156 C 337.484375 145.976562 334.226562 149.734375 331.9375 153.382812 C 329.488281 157.28125 327.894531 161.5 327.160156 166.042969 C 326.5625 168.691406 326.1875 171.367188 326.027344 174.078125 C 326.144531 178.113281 327.195312 182.300781 330.039062 185.296875 C 331.417969 186.871094 333.558594 187.386719 335.515625 187.859375 C 339.195312 187.785156 341.121094 183.5 341.792969 180.328125 C 339.390625 180.105469 336.992188 179.847656 334.601562 179.511719 C 333.976562 179.464844 333.355469 179.386719 332.734375 179.28125 C 332.152344 179.382812 331.660156 179.210938 331.257812 178.773438 C 329.578125 175.144531 330.136719 170.878906 330.378906 166.996094 C 330.589844 165.800781 330.15625 163.5625 331.097656 162.765625 C 332.226562 161.707031 338.808594 162.296875 340.675781 162.3125 C 345.996094 162.664062 351.324219 162.910156 356.644531 163.1875 C 357.335938 163.167969 357.996094 163.308594 358.621094 163.609375 C 358.796875 163.714844 358.941406 163.851562 359.058594 164.023438 C 359.289062 164.164062 359.460938 164.355469 359.574219 164.601562 C 359.691406 164.847656 359.726562 165.101562 359.6875 165.371094 C 359.730469 169.941406 359.519531 174.5 359.058594 179.046875 C 357.742188 189.722656 356.820312 205.707031 344.8125 209.757812 C 342.132812 210.648438 339.382812 211.128906 336.5625 211.191406 C 333.738281 211.257812 330.96875 210.90625 328.253906 210.136719 C 315.636719 205.832031 309.535156 196.648438 308.257812 183.65625 C 306.335938 167.148438 308.808594 149.171875 319.171875 135.71875 C 324.65625 128.449219 332.65625 124.117188 341.851562 124.480469 C 343.453125 124.46875 345.039062 124.632812 346.601562 124.96875 C 348.167969 125.304688 349.679688 125.800781 351.136719 126.464844 C 352.59375 127.128906 353.964844 127.941406 355.246094 128.90625 C 356.523438 129.867188 357.6875 130.957031 358.730469 132.171875 C 361.25 135.035156 362.222656 138.8125 363.230469 142.40625 C 363.660156 144.132812 363.933594 145.886719 364.050781 147.660156 Z M 364.050781 147.660156 " fill-opacity="1" fill-rule="nonzero"/><path fill="#ffffff" d="M 198.203125 202.957031 C 198.226562 203.265625 198.160156 203.550781 198.007812 203.820312 C 197.855469 204.085938 197.640625 204.289062 197.367188 204.429688 C 197.046875 204.789062 196.65625 205.011719 196.183594 205.097656 C 192.722656 205.910156 189.195312 206.414062 185.699219 207.074219 C 184.601562 207.273438 183.492188 207.414062 182.398438 207.652344 C 181.902344 207.808594 181.402344 207.828125 180.898438 207.722656 C 180.707031 207.660156 180.542969 207.558594 180.40625 207.410156 C 180.136719 207.285156 179.902344 207.117188 179.699219 206.898438 C 177.722656 202.566406 176.199219 197.980469 174.449219 193.535156 C 173.082031 190.222656 172.40625 186.652344 170.847656 183.417969 C 168.230469 186.914062 166.066406 190.730469 163.460938 194.230469 C 163.347656 194.457031 163.179688 194.628906 162.953125 194.742188 C 162.726562 194.855469 162.488281 194.890625 162.238281 194.847656 C 161.953125 194.96875 161.660156 195 161.351562 194.945312 C 159.105469 194.882812 156.878906 194.652344 154.667969 194.25 C 153.71875 194.007812 151.542969 193.871094 150.144531 193.445312 C 149.800781 193.523438 149.472656 193.488281 149.152344 193.339844 C 148.835938 193.191406 148.59375 192.964844 148.433594 192.652344 C 146.691406 188.101562 146 183.222656 144.65625 178.546875 C 142.996094 185.039062 140.683594 191.320312 138.800781 197.738281 C 138.253906 199.933594 137.546875 202.085938 136.992188 204.273438 C 136.976562 204.597656 136.859375 204.875 136.640625 205.109375 C 136.417969 205.34375 136.148438 205.480469 135.828125 205.515625 C 135.527344 205.722656 135.199219 205.785156 134.84375 205.707031 C 131.28125 205.367188 127.679688 205.898438 124.160156 205.578125 C 124.074219 205.550781 123.992188 205.515625 123.914062 205.476562 C 123.769531 205.5 123.625 205.507812 123.476562 205.5 C 121 205.046875 122.355469 201.859375 122.390625 200.160156 C 122.929688 196.5625 123.242188 192.9375 123.78125 189.339844 C 125.277344 175.746094 127.441406 162.246094 129.769531 148.777344 C 131.890625 140.652344 133.410156 132.378906 135.402344 124.21875 C 135.445312 123.871094 135.570312 123.558594 135.773438 123.277344 C 135.9375 123.019531 136.160156 122.839844 136.441406 122.730469 C 136.726562 122.621094 137.015625 122.605469 137.308594 122.6875 C 139.621094 122.632812 147.558594 122.140625 148.898438 123.921875 C 149.109375 124.234375 149.183594 124.574219 149.121094 124.945312 C 152.363281 137.953125 154.898438 151.152344 159.535156 163.773438 C 161.503906 159.15625 162.746094 154.269531 164.667969 149.636719 C 167.132812 143.699219 169.832031 137.863281 172.320312 131.9375 C 173.320312 129.683594 174.398438 127.46875 175.472656 125.25 C 175.960938 124.179688 176.574219 122.511719 177.832031 122.570312 C 177.875 122.542969 177.917969 122.519531 177.964844 122.496094 C 179.242188 122.257812 180.523438 122.179688 181.820312 122.261719 C 184.589844 122.417969 187.417969 122.320312 190.152344 122.71875 C 190.734375 122.757812 191.210938 123 191.582031 123.445312 C 191.925781 123.628906 192.128906 123.914062 192.191406 124.300781 C 192.296875 125.664062 192.605469 127 192.796875 128.351562 C 195.113281 144.914062 195.386719 161.671875 196.558594 178.339844 C 197.0625 186.550781 197.886719 194.738281 198.203125 202.957031 Z M 198.203125 202.957031 " fill-opacity="1" fill-rule="nonzero"/><path fill="#ffffff" d="M 118.222656 147.824219 C 119.46875 153.324219 120.078125 158.890625 120.054688 164.53125 C 120.03125 170.167969 119.375 175.730469 118.085938 181.222656 C 116.800781 186.230469 115.539062 191.304688 112.617188 195.660156 C 108.402344 202.910156 101.550781 209.777344 92.660156 209.890625 C 74.054688 209.816406 69.660156 192.941406 70.246094 177.359375 C 70.105469 169.648438 70.535156 161.925781 72.925781 154.535156 C 74.910156 147.015625 77.550781 139.265625 83.320312 133.769531 C 89.160156 127.476562 99.78125 122.851562 107.238281 129.070312 C 110.273438 131.449219 112.769531 134.292969 114.726562 137.613281 C 116.308594 140.871094 117.476562 144.277344 118.222656 147.824219 Z M 101.785156 164.347656 C 101.851562 162.070312 101.511719 159.46875 99.765625 157.84375 C 98.929688 157.074219 97.710938 157.097656 96.75 156.585938 C 91.816406 158.390625 89.105469 163.777344 88.304688 168.699219 C 88.03125 173.382812 84.972656 183.152344 92.101562 183.757812 C 96.152344 183.511719 98.632812 178.914062 99.78125 175.476562 C 101.15625 171.898438 101.828125 168.1875 101.785156 164.351562 Z M 101.785156 164.347656 " fill-opacity="1" fill-rule="nonzero"/><path fill="#ffffff" d="M 59.738281 139.746094 C 60.535156 142.910156 60.820312 146.121094 60.59375 149.375 C 60.589844 149.625 60.523438 149.855469 60.386719 150.066406 C 60.253906 150.277344 60.070312 150.433594 59.84375 150.542969 C 59.820312 150.566406 59.796875 150.589844 59.769531 150.613281 C 59.179688 150.992188 58.542969 151.269531 57.863281 151.441406 C 56.558594 151.875 55.265625 152.332031 53.964844 152.769531 C 52.46875 153.148438 47.394531 155.273438 46.394531 154.019531 C 46.246094 153.8125 46.140625 153.582031 46.078125 153.332031 C 45.652344 152.503906 45.691406 151.257812 45.398438 150.449219 C 45.09375 149.269531 44.679688 148.132812 44.152344 147.039062 C 42.078125 143.28125 37.164062 142.851562 33.582031 144.558594 C 31.332031 145.820312 29.648438 148.367188 28.273438 150.371094 C 23.777344 157.46875 22.011719 165.808594 21.324219 174.085938 C 20.960938 181.066406 20.195312 189.050781 24.394531 195.074219 C 29.570312 198.785156 34.695312 195.683594 38.226562 191.359375 C 40.828125 187.96875 42.324219 183.777344 43.527344 179.710938 C 43.613281 179.148438 43.769531 178.601562 43.996094 178.082031 C 44.160156 177.75 44.414062 177.511719 44.75 177.371094 C 45.089844 177.226562 45.4375 177.210938 45.785156 177.320312 C 46.207031 177.257812 46.648438 177.25 47.0625 177.199219 C 47.96875 177.125 48.875 177.101562 49.78125 177.132812 C 52.71875 177.253906 55.679688 176.996094 58.59375 177.300781 C 58.824219 177.359375 59.027344 177.46875 59.199219 177.632812 C 59.621094 177.90625 59.914062 178.277344 60.085938 178.746094 C 60.257812 179.21875 60.269531 179.691406 60.125 180.171875 C 60.0625 186.917969 57.460938 193.199219 54.464844 199.128906 C 49.277344 209.390625 39.046875 218.640625 26.964844 218.285156 C 9.492188 218.136719 2.046875 201.058594 0.683594 185.925781 C 0.128906 178.363281 0.59375 170.867188 2.078125 163.433594 C 3.140625 158.480469 3.921875 153.441406 5.492188 148.617188 C 10.324219 136.984375 19.417969 126.371094 31.738281 122.566406 C 34.179688 121.90625 36.664062 121.5625 39.195312 121.542969 C 41.722656 121.519531 44.210938 121.816406 46.664062 122.4375 C 54.371094 124.527344 57.777344 132.726562 59.738281 139.746094 Z M 59.738281 139.746094 " fill-opacity="1" fill-rule="nonzero"/><path fill="#ffffff" d="M 116.058594 233.230469 C 116.878906 235.421875 114.464844 236.285156 113.09375 237.386719 C 111.640625 238.210938 108.941406 240.863281 107.351562 240.582031 C 107.257812 240.558594 107.167969 240.523438 107.085938 240.476562 C 105.96875 240.5 104.742188 239.039062 103.757812 238.625 C 100.027344 235.953125 95.972656 234.410156 91.554688 236.570312 C 88.546875 240.988281 97.667969 243.480469 100.53125 244.839844 C 102.875 245.695312 105.015625 246.910156 106.953125 248.484375 C 111.074219 251.71875 113.378906 256.753906 114.503906 261.769531 C 116.246094 269.074219 115.765625 276.988281 111.835938 283.527344 C 110.519531 285.859375 108.832031 287.882812 106.773438 289.597656 C 104.648438 291.089844 102.335938 292.179688 99.832031 292.867188 C 97.328125 293.554688 94.78125 293.800781 92.191406 293.601562 C 88.054688 292.898438 83.757812 291.78125 80.222656 289.441406 C 76.511719 286.777344 73.996094 282.523438 72.601562 278.234375 C 71.730469 276.359375 72.496094 275.195312 73.503906 275.074219 C 74.046875 274.484375 74.972656 274.417969 75.691406 274.097656 C 78.066406 273.1875 80.503906 272.46875 82.917969 271.6875 C 83.40625 271.378906 83.925781 271.304688 84.476562 271.464844 C 84.804688 271.378906 85.125 271.394531 85.4375 271.511719 C 85.753906 271.632812 86.003906 271.832031 86.1875 272.113281 C 87.804688 275.082031 90.375 277.757812 93.78125 278.484375 C 95.984375 278.570312 98.480469 278 99.914062 276.210938 C 100.433594 275.371094 100.835938 274.480469 101.117188 273.53125 C 101.398438 272.585938 101.546875 271.621094 101.570312 270.632812 C 101.589844 269.648438 101.480469 268.675781 101.238281 267.71875 C 101 266.761719 100.636719 265.851562 100.152344 264.992188 C 96.195312 258.585938 89.429688 257.691406 83.179688 254.929688 C 75.421875 251.1875 72.109375 244.007812 74.128906 235.652344 C 75.53125 230.707031 78.730469 225.898438 83.433594 223.597656 C 85.238281 222.875 87.097656 222.324219 89.003906 221.945312 C 90.914062 221.570312 92.839844 221.375 94.785156 221.359375 C 96.730469 221.34375 98.660156 221.511719 100.574219 221.859375 C 102.488281 222.203125 104.351562 222.726562 106.167969 223.425781 C 110.535156 225.25 114.671875 228.542969 116.058594 233.230469 Z M 116.058594 233.230469 " fill-opacity="1" fill-rule="nonzero"/><g clip-path="url(#bd1ce02cb3)"><path fill="#ffffff" d="M 170.683594 246.238281 C 170.59375 259.144531 168.910156 272.6875 162.164062 283.945312 C 158.789062 289.796875 153.511719 295.136719 146.203125 294.199219 C 142.046875 293.761719 137.390625 292.367188 134.117188 289.699219 C 128.496094 285.203125 126.074219 277.6875 125.960938 270.679688 C 125.949219 262.886719 126.382812 254.96875 128.78125 247.5 C 131.902344 236.488281 139.84375 224.703125 152.34375 224.222656 C 153.746094 224.222656 155.140625 224.335938 156.527344 224.5625 C 157.992188 224.390625 159.378906 224.644531 160.6875 225.324219 C 167.695312 229.597656 170.152344 238.488281 170.683594 246.238281 Z M 155.753906 254.769531 C 155.605469 252.042969 155.761719 248.84375 153.984375 246.597656 C 152.808594 245.367188 150.964844 245.632812 149.484375 245.289062 C 144.375 248.195312 142.785156 256.328125 141.761719 261.71875 C 141.21875 264.824219 141.105469 267.941406 141.429688 271.078125 C 141.480469 272.917969 142.195312 274.886719 144.351562 274.882812 C 147.820312 274.984375 149.628906 271.78125 151.265625 269.21875 C 153.667969 264.800781 155.609375 259.847656 155.753906 254.769531 Z M 155.753906 254.769531 " fill-opacity="1" fill-rule="nonzero"/></g><path fill="#ffffff" d="M 222.722656 245.285156 C 223.210938 249.046875 223.101562 252.789062 222.390625 256.511719 C 221.527344 265.527344 218.933594 274.015625 214.609375 281.972656 C 210.894531 287.96875 203.164062 294.511719 195.71875 293.660156 C 182.964844 292.773438 178.757812 285.105469 178.222656 273.199219 C 178.105469 264.175781 179.15625 255.289062 181.382812 246.542969 C 183.664062 238.800781 189.460938 228.527344 196.648438 224.519531 C 198.003906 223.863281 199.417969 223.386719 200.894531 223.085938 C 202.371094 222.785156 203.859375 222.671875 205.363281 222.746094 C 206.867188 222.820312 208.339844 223.078125 209.777344 223.519531 C 211.214844 223.964844 212.578125 224.582031 213.863281 225.367188 C 220.46875 229.632812 221.878906 238.054688 222.722656 245.285156 Z M 207.921875 253.3125 C 208.011719 250.910156 208.363281 248.398438 206.683594 246.417969 C 205.375 244.386719 204.949219 244.953125 203.042969 244.34375 C 197.6875 246.050781 195.589844 251.902344 194.117188 256.808594 C 192.890625 261.585938 189.652344 274.476562 196.71875 275.71875 C 203.507812 275.746094 208.132812 258.90625 207.921875 253.316406 Z M 207.921875 253.3125 " fill-opacity="1" fill-rule="nonzero"/><g clip-path="url(#98eb0cec23)"><path fill="#ffffff" d="M 292.09375 223.792969 C 292.292969 223.890625 292.46875 224.023438 292.621094 224.1875 C 292.769531 224.351562 292.886719 224.539062 292.96875 224.746094 C 293.046875 224.957031 293.085938 225.171875 293.085938 225.394531 C 293.085938 225.617188 293.046875 225.832031 292.964844 226.042969 C 292.507812 230.5 292.070312 234.976562 291.359375 239.410156 C 289.78125 249.449219 287.78125 259.417969 285.820312 269.386719 C 284.703125 275.679688 283.410156 281.9375 282.292969 288.230469 C 281.828125 289.761719 282.15625 292.617188 280.4375 293.210938 C 280.378906 293.296875 280.316406 293.378906 280.238281 293.449219 C 279.546875 294.167969 278.503906 294.054688 277.59375 294.101562 C 275.296875 294.027344 273.003906 293.890625 270.71875 293.660156 C 269.984375 293.613281 269.269531 293.476562 268.574219 293.246094 C 267.480469 293.179688 266.886719 291.765625 266.480469 290.75 C 265.636719 289.027344 264.695312 287.027344 263.933594 285.421875 C 260.175781 277.535156 256.578125 269.574219 252.691406 261.753906 C 251.648438 269.53125 250.628906 277.3125 249.632812 285.09375 C 249.296875 287.257812 248.925781 289.414062 248.488281 291.554688 C 248.34375 292.453125 248.195312 293.863281 247.101562 293.902344 C 246.972656 294.042969 246.824219 294.15625 246.660156 294.25 C 245.945312 294.515625 245.207031 294.621094 244.445312 294.558594 C 241.5625 294.386719 238.695312 294.066406 235.84375 293.605469 C 234.5625 293.292969 232.960938 293.539062 231.949219 292.566406 C 231.898438 292.503906 231.855469 292.441406 231.820312 292.371094 C 230.949219 291.460938 231.609375 289.515625 231.746094 288.3125 C 232.328125 284.972656 232.726562 281.605469 233.269531 278.257812 C 235.054688 268.351562 236.023438 258.320312 237.78125 248.410156 C 238.5625 244.957031 239.140625 241.472656 239.519531 237.953125 C 240.53125 233.324219 241.136719 228.503906 242.742188 224.046875 C 242.777344 224 242.808594 223.953125 242.847656 223.910156 C 242.957031 223.664062 243.128906 223.476562 243.367188 223.347656 C 243.601562 223.21875 243.855469 223.175781 244.121094 223.21875 C 247.289062 222.921875 250.582031 222.386719 253.691406 221.90625 C 254.421875 221.644531 255.144531 221.652344 255.871094 221.929688 C 255.910156 221.949219 255.949219 221.972656 255.988281 221.996094 C 256.089844 221.964844 256.195312 221.945312 256.304688 221.9375 C 256.414062 221.929688 256.519531 221.9375 256.625 221.957031 C 256.734375 221.976562 256.835938 222.011719 256.933594 222.054688 C 257.03125 222.101562 257.121094 222.160156 257.207031 222.230469 C 257.289062 222.300781 257.363281 222.378906 257.425781 222.46875 C 257.488281 222.554688 257.539062 222.648438 257.578125 222.75 C 257.617188 222.851562 257.640625 222.957031 257.652344 223.066406 C 257.664062 223.171875 257.664062 223.28125 257.648438 223.386719 C 261.570312 233.339844 265.382812 243.34375 268.570312 253.5625 C 269.085938 255.292969 269.707031 256.988281 270.332031 258.683594 C 270.804688 256.59375 271.296875 254.511719 271.730469 252.414062 C 273.773438 243.679688 275.726562 234.925781 277.699219 226.171875 C 277.875 225.230469 278.15625 224.320312 278.539062 223.441406 C 278.703125 223.109375 278.957031 222.875 279.308594 222.742188 C 279.507812 222.566406 279.738281 222.464844 280.003906 222.441406 C 282.734375 222.496094 285.457031 222.828125 288.167969 223.125 C 289.46875 223.363281 291.042969 222.875 292.09375 223.792969 Z M 292.09375 223.792969 " fill-opacity="1" fill-rule="nonzero"/></g></svg>