<svg xmlns="http://www.w3.org/2000/svg" xmlns:xlink="http://www.w3.org/1999/xlink" width="500" zoomAndPan="magnify" viewBox="0 0 375 374.999991" height="500" preserveAspectRatio="xMidYMid meet" version="1.0"><defs><clipPath id="25d2f168ea"><path d="M 82 275 L 309 275 L 309 313.40625 L 82 313.40625 Z M 82 275 " clip-rule="nonzero"/></clipPath></defs><path fill="#ffffff" d="M 76.058594 169.515625 C 78.386719 171.554688 80.691406 173.621094 83.046875 175.625 C 85.296875 177.539062 87.648438 179.335938 89.867188 181.277344 C 93.097656 184.105469 93.929688 187.757812 92.890625 191.777344 C 91.8125 195.957031 88.730469 197.855469 84.632812 198.386719 C 80.984375 198.878906 77.441406 198.410156 74.636719 195.984375 C 70.246094 192.191406 66.042969 188.167969 61.9375 184.070312 C 60.761719 182.898438 60.082031 182.460938 58.492188 183.367188 C 45.941406 190.636719 23.347656 187.121094 14.5625 177.601562 C 12.867188 175.785156 11.332031 173.839844 9.953125 171.773438 C 8.574219 169.703125 7.371094 167.539062 6.347656 165.273438 C 5.320312 163.011719 4.484375 160.679688 3.835938 158.28125 C 3.1875 155.878906 2.734375 153.445312 2.484375 150.972656 C 0.5625 134.046875 3.578125 117.914062 11.835938 102.984375 C 18.726562 90.542969 28.570312 81.101562 42.042969 76.054688 C 57.578125 70.230469 74.40625 74.183594 83.601562 90.015625 C 86.511719 95.027344 88.726562 100.234375 89.710938 105.992188 C 91.484375 116.402344 92.117188 126.796875 90.65625 137.324219 C 89.921875 142.671875 88.503906 147.832031 86.398438 152.804688 C 84.292969 157.777344 81.578125 162.386719 78.25 166.636719 C 77.796875 167.222656 77.332031 167.796875 76.894531 168.390625 C 76.816406 168.53125 76.761719 168.683594 76.726562 168.84375 Z M 62.277344 154.75 C 63.414062 152.339844 64.6875 150.320312 65.34375 148.132812 C 68.242188 138.289062 69.328125 128.246094 68.59375 118.011719 C 68.132812 111.332031 65.535156 105.523438 60.398438 100.957031 C 56.460938 97.46875 48.785156 95.878906 44.011719 101.21875 C 42.269531 103.1875 40.359375 105.003906 38.804688 107.09375 C 30.632812 118.128906 27.550781 130.71875 28.648438 144.183594 C 29.023438 148.777344 30.867188 153.40625 32.804688 157.675781 C 35.011719 162.523438 40.144531 164.460938 45.355469 163.203125 C 44.589844 161.832031 43.796875 160.527344 43.097656 159.175781 C 41.296875 155.675781 40.175781 152.039062 41.097656 148.058594 C 42.082031 143.914062 44.691406 142.328125 48.574219 144.066406 C 51.222656 145.246094 53.648438 147.019531 55.957031 148.824219 C 58.089844 150.488281 59.90625 152.5 62.300781 154.777344 Z M 62.277344 154.75 " fill-opacity="1" fill-rule="nonzero"/><path fill="#ffffff" d="M 55.613281 257.929688 C 50.921875 258.511719 46.542969 259.542969 42.183594 259.457031 C 37.554688 259.363281 35.578125 261.425781 33.898438 265.390625 C 30.039062 274.519531 25.816406 283.503906 21.421875 292.386719 C 20.113281 294.882812 18.316406 296.957031 16.039062 298.613281 C 11.410156 302.011719 6.609375 300.03125 4.972656 294.523438 C 3.738281 290.375 4.511719 286.332031 5.652344 282.410156 C 7.773438 275.097656 10.199219 267.875 12.503906 260.617188 C 12.804688 259.679688 13.148438 258.765625 13.523438 257.664062 C 11.183594 256.582031 8.890625 255.578125 6.65625 254.453125 C 5.265625 253.789062 4.082031 252.855469 3.105469 251.660156 C 2.128906 250.460938 1.457031 249.113281 1.085938 247.613281 C 0.152344 244.105469 0.949219 241.820312 4.382812 240.796875 C 8.1875 239.664062 12.195312 238.71875 16.125 238.644531 C 20.058594 238.574219 22.070312 237.199219 23.675781 233.5 C 28.269531 222.898438 33.195312 212.414062 39.972656 202.953125 C 41.542969 200.765625 43.460938 198.828125 45.070312 196.664062 C 50.347656 189.558594 64.472656 193.414062 66.554688 201.210938 C 68.394531 208.101562 70.222656 214.992188 71.757812 221.9375 C 72.78125 226.570312 73.359375 231.289062 73.992188 236.019531 C 74.199219 237.554688 74.785156 238.300781 76.292969 238.640625 C 79.050781 239.265625 81.289062 240.734375 82.589844 243.332031 C 84.558594 247.269531 83.445312 250.714844 79.082031 252.554688 C 76.507812 253.648438 76.332031 254.964844 76.621094 257.382812 C 77.519531 264.371094 78.375 271.390625 78.703125 278.417969 C 78.867188 282.027344 78.210938 285.761719 77.316406 289.300781 C 76.578125 292.316406 74.472656 293.480469 71.371094 293.410156 C 66.175781 293.285156 62.0625 290.859375 60.546875 286.027344 C 58.683594 280.121094 57.695312 273.945312 56.570312 267.816406 C 56.003906 264.714844 55.941406 261.496094 55.613281 257.929688 Z M 54.136719 237.535156 C 53.308594 231.789062 52.53125 226.371094 51.75 220.949219 L 50.882812 220.855469 L 44.726562 237.535156 Z M 54.136719 237.535156 " fill-opacity="1" fill-rule="nonzero"/><path fill="#ffffff" d="M 347.066406 254.828125 C 345.820312 255.8125 344.832031 256.644531 343.757812 257.378906 C 329.660156 266.945312 310.292969 258.363281 308.550781 241.433594 C 306.796875 224.363281 313.050781 210.1875 326.300781 199.367188 C 333.382812 193.582031 341.75 192.21875 350.910156 194.226562 C 351.535156 189.183594 351.992188 184.136719 352.820312 179.152344 C 354.03125 171.804688 355.476562 164.492188 356.898438 157.175781 C 357.171875 155.96875 357.625 154.832031 358.253906 153.761719 C 360.390625 149.898438 365.109375 148.757812 368.21875 151.828125 C 370.277344 153.867188 371.84375 156.675781 372.878906 159.421875 C 374.886719 164.71875 374.726562 170.378906 374.484375 175.957031 C 373.535156 197.699219 371.152344 219.269531 366.609375 240.566406 C 365.09375 247.691406 363.59375 254.839844 359.964844 261.324219 C 357.617188 265.523438 354.242188 265.976562 351.003906 262.339844 C 350.074219 261.289062 349.289062 260.140625 348.644531 258.894531 C 348.042969 257.570312 347.515625 256.214844 347.066406 254.828125 Z M 324.539062 234.648438 C 324.722656 236.554688 324.746094 237.878906 324.992188 239.152344 C 325.621094 242.390625 327.402344 244.722656 330.695312 245.550781 C 333.988281 246.378906 336.515625 244.929688 338.332031 242.335938 C 339.746094 240.320312 340.957031 238.1875 341.972656 235.9375 C 345.246094 228.703125 346.835938 221.011719 347.878906 213.191406 C 348.460938 208.890625 346.152344 207.003906 341.972656 208.4375 C 340.699219 208.800781 339.527344 209.371094 338.457031 210.148438 C 330.535156 216.6875 325.679688 224.925781 324.539062 234.664062 Z M 324.539062 234.648438 " fill-opacity="1" fill-rule="nonzero"/><g clip-path="url(#25d2f168ea)"><path fill="#ffffff" d="M 259.917969 290.425781 C 218.246094 290.746094 177.203125 296.066406 136.589844 305.339844 C 122.628906 308.523438 108.429688 310.71875 94.296875 313.171875 C 91.777344 313.609375 89.066406 313.226562 86.472656 312.925781 C 84.5625 312.699219 82.835938 311.800781 82.230469 309.6875 C 82.097656 309.246094 82.035156 308.796875 82.042969 308.339844 C 82.054688 307.878906 82.132812 307.433594 82.285156 307 C 82.4375 306.566406 82.652344 306.167969 82.929688 305.800781 C 83.207031 305.4375 83.535156 305.125 83.914062 304.863281 C 86.648438 302.816406 89.40625 300.640625 92.488281 299.253906 C 105.363281 293.460938 119.109375 290.570312 132.84375 287.726562 C 157.671875 282.503906 182.734375 278.894531 208.027344 276.898438 C 232.335938 275.0625 256.695312 274.207031 281.03125 276.207031 C 288.332031 276.808594 295.53125 278.667969 302.757812 280.042969 C 304.125 280.375 305.382812 280.949219 306.53125 281.769531 C 309.109375 283.476562 309.167969 286.230469 306.453125 287.675781 C 304.332031 288.789062 301.875 289.734375 299.519531 289.867188 C 292.136719 290.289062 284.753906 290.359375 277.394531 290.4375 C 271.566406 290.492188 265.746094 290.425781 259.917969 290.425781 Z M 259.917969 290.425781 " fill-opacity="1" fill-rule="nonzero"/></g><path fill="#ffffff" d="M 316.773438 134.265625 C 318.292969 133.636719 319.390625 133.339844 320.3125 132.789062 C 326.449219 129 331.851562 124.65625 334.800781 117.625 C 336.941406 112.519531 339.898438 107.730469 342.753906 102.957031 C 343.472656 101.75 345.128906 100.554688 346.46875 100.394531 C 348.613281 100.148438 349.945312 102.042969 350.289062 103.929688 C 350.964844 107.605469 351.648438 111.371094 351.589844 115.082031 C 351.429688 126.574219 349.476562 137.75 345.722656 148.613281 C 342.996094 156.488281 340.03125 164.363281 336.371094 171.796875 C 334.09375 176.410156 330.628906 180.59375 327.0625 184.382812 C 320.957031 190.886719 312.792969 192.125 304.710938 188.507812 C 296.902344 185.019531 291.835938 177.015625 292.328125 168.695312 C 292.4375 166.96875 292.835938 165.3125 293.523438 163.722656 C 294.773438 160.878906 297.316406 160.175781 299.738281 162.117188 C 301.800781 163.867188 303.703125 165.773438 305.445312 167.84375 C 310.855469 174.019531 313.589844 173.996094 318.363281 167.191406 C 322.046875 161.914062 324.886719 156.210938 326.882812 150.089844 C 325.546875 150.492188 324.664062 150.789062 323.761719 151.027344 C 320.917969 151.777344 318.105469 152.828125 315.214844 153.195312 C 304.4375 154.558594 296.964844 148.136719 296.21875 137.230469 C 295.867188 132.039062 297.035156 127.128906 298.640625 122.28125 C 301.046875 115.003906 304.160156 108.074219 308.976562 102.042969 C 310.53125 100.105469 312.421875 98.539062 315.101562 99.464844 C 317.777344 100.390625 319.035156 102.609375 318.9375 105.210938 C 318.6875 111.5 318.144531 117.78125 317.648438 124.058594 C 317.460938 126.425781 317.042969 128.773438 316.789062 131.136719 C 316.695312 131.96875 316.773438 132.839844 316.773438 134.265625 Z M 316.773438 134.265625 " fill-opacity="1" fill-rule="nonzero"/><path fill="#ffffff" d="M 200.980469 253.355469 C 198.746094 256.003906 196.78125 258.277344 194.890625 260.582031 C 191.761719 264.425781 187.878906 265.996094 182.921875 265.011719 C 177.789062 263.976562 174.925781 260.707031 173.742188 255.878906 C 171.148438 245.597656 170.398438 235.179688 171.488281 224.632812 C 172.410156 216.265625 174.175781 208.003906 175.917969 199.761719 C 177.359375 192.839844 181.984375 192.429688 187.03125 192.996094 C 189.273438 193.253906 191.003906 194.445312 191.382812 196.71875 C 191.960938 199.769531 192.265625 202.851562 192.292969 205.957031 C 192.183594 213.660156 191.71875 221.351562 191.535156 229.054688 C 191.492188 232.015625 191.640625 234.96875 191.984375 237.914062 C 192.101562 239.011719 192.890625 240.039062 193.375 241.101562 C 194.296875 240.402344 195.664062 239.90625 196.074219 238.980469 C 198.730469 232.921875 201.449219 226.863281 203.632812 220.628906 C 206.257812 213.136719 208.347656 205.460938 210.71875 197.878906 C 211.117188 196.625 211.632812 195.425781 212.269531 194.277344 C 212.566406 193.757812 212.933594 193.296875 213.375 192.890625 C 213.8125 192.484375 214.304688 192.152344 214.84375 191.898438 C 215.386719 191.644531 215.953125 191.480469 216.546875 191.398438 C 217.140625 191.320312 217.730469 191.332031 218.320312 191.4375 C 218.875 191.53125 219.398438 191.714844 219.890625 191.988281 C 220.382812 192.261719 220.820312 192.609375 221.191406 193.03125 C 221.566406 193.449219 221.859375 193.921875 222.074219 194.441406 C 222.289062 194.964844 222.410156 195.507812 222.4375 196.070312 C 222.597656 198.847656 222.539062 201.625 222.261719 204.394531 C 221.167969 219.265625 220.039062 234.132812 218.875 248.992188 C 218.625 252.253906 218.269531 255.511719 217.925781 258.765625 C 217.433594 263.097656 214.480469 265.164062 210.726562 266.148438 C 210.144531 266.320312 209.546875 266.390625 208.941406 266.359375 C 208.335938 266.328125 207.75 266.199219 207.1875 265.96875 C 206.625 265.738281 206.117188 265.421875 205.664062 265.015625 C 205.210938 264.613281 204.835938 264.144531 204.542969 263.613281 C 203.367188 261.589844 202.621094 259.308594 201.800781 257.097656 C 201.394531 256.03125 201.300781 254.894531 200.980469 253.355469 Z M 200.980469 253.355469 " fill-opacity="1" fill-rule="nonzero"/><path fill="#ffffff" d="M 124.398438 174.03125 C 123.324219 175.269531 122.429688 176.40625 121.417969 177.472656 C 117.28125 181.804688 112.433594 184.472656 106.21875 184.257812 C 101.789062 184.105469 98.632812 182.089844 96.304688 178.4375 C 92.625 172.65625 92.207031 166.234375 92.683594 159.703125 C 93.585938 146.664062 95.78125 133.847656 99.269531 121.253906 C 99.917969 118.957031 101.238281 116.78125 102.628906 114.785156 C 104.199219 112.507812 106.519531 111.101562 109.417969 111.886719 C 112.316406 112.675781 114.734375 114.585938 115.09375 117.710938 C 115.511719 121.34375 115.730469 125.09375 115.25 128.707031 C 114.042969 137.710938 112.328125 146.648438 110.953125 155.636719 C 110.640625 158.089844 110.546875 160.550781 110.667969 163.019531 C 110.691406 163.867188 111.230469 165.234375 111.8125 165.40625 C 112.625 165.648438 114.171875 165.292969 114.589844 164.660156 C 116.917969 161.132812 119.613281 157.667969 121.027344 153.761719 C 123.867188 145.921875 125.949219 137.804688 128.359375 129.8125 C 129.21875 126.996094 129.945312 124.105469 131.210938 121.445312 C 132.140625 119.703125 133.417969 118.269531 135.042969 117.148438 C 137.347656 115.496094 140.066406 115.625 142.515625 116.949219 C 144.730469 118.144531 145.316406 120.425781 145.03125 122.695312 C 144.480469 126.992188 143.78125 131.285156 142.878906 135.492188 C 141.71875 140.941406 140.3125 146.320312 138.980469 151.734375 C 138.273438 154.449219 138.007812 157.207031 138.1875 160.007812 C 138.363281 162.808594 138.972656 165.511719 140.015625 168.117188 C 141.1875 171.097656 141.964844 174.175781 142.347656 177.351562 C 142.839844 181.457031 140.738281 183.257812 136.621094 182.933594 C 133.035156 182.65625 130.304688 180.835938 127.996094 178.242188 C 126.816406 176.929688 125.6875 175.550781 124.398438 174.03125 Z M 124.398438 174.03125 " fill-opacity="1" fill-rule="nonzero"/><path fill="#ffffff" d="M 176.835938 168.472656 C 174.867188 170.574219 173.109375 172.71875 171.082031 174.574219 C 164.289062 180.792969 155.332031 179.6875 150.054688 172.113281 C 145.589844 165.6875 145.109375 158.480469 146.304688 151.113281 C 148.003906 140.644531 152.054688 130.964844 157.132812 121.738281 C 159.648438 117.167969 163.875 114.429688 168.714844 112.699219 C 173.363281 111.035156 177.574219 112 181.382812 115.351562 C 181.714844 114.929688 182.027344 114.492188 182.3125 114.035156 C 183.464844 111.972656 185.050781 110.875 187.539062 111.316406 C 190.03125 111.761719 191.871094 113.21875 192.277344 115.671875 C 192.75 118.585938 192.941406 121.519531 192.859375 124.46875 C 192.703125 131.019531 192.230469 137.566406 192.023438 144.121094 C 191.769531 152.71875 192.917969 161.125 195.46875 169.339844 C 196.921875 174.070312 195.644531 176.070312 190.835938 177.003906 C 185.640625 177.988281 181.019531 175.890625 178.351562 171.273438 C 177.824219 170.347656 177.351562 169.421875 176.835938 168.472656 Z M 160.59375 152.320312 C 160.660156 153.34375 160.65625 154.496094 160.820312 155.628906 C 161.375 159.472656 163.933594 160.695312 167.09375 158.382812 C 168.832031 157.109375 170.585938 155.464844 171.523438 153.589844 C 175.394531 146.070312 176.863281 137.839844 178.070312 129.550781 C 178.257812 128.277344 177.578125 127.503906 176.390625 127.878906 C 174.335938 128.535156 172.132812 129.160156 170.40625 130.375 C 162.921875 135.667969 161.371094 143.769531 160.613281 152.320312 Z M 160.59375 152.320312 " fill-opacity="1" fill-rule="nonzero"/><path fill="#ffffff" d="M 267.46875 112.824219 C 265.335938 112.636719 263.53125 112.507812 261.761719 112.332031 C 258.933594 112.03125 256.722656 110.796875 255.855469 107.902344 C 254.992188 105.007812 255.320312 102.035156 257.796875 100.28125 C 260.765625 98.265625 263.921875 96.609375 267.269531 95.316406 C 269.023438 94.601562 269.859375 93.945312 270.023438 91.984375 C 270.601562 85.039062 271.292969 78.101562 272.136719 71.1875 C 272.410156 68.980469 273.015625 66.875 273.953125 64.863281 C 275.429688 61.761719 278.875 61.417969 281.273438 63.878906 C 283.496094 66.191406 284.289062 69.113281 284.421875 72.210938 C 284.664062 77.859375 284.796875 83.53125 284.988281 89.175781 C 284.988281 89.726562 285.132812 90.277344 285.21875 90.929688 C 287.9375 90.707031 290.535156 90.386719 293.144531 90.300781 C 295.121094 90.257812 297.089844 90.355469 299.050781 90.597656 C 301.753906 90.902344 303.972656 91.996094 304.695312 94.910156 C 305.417969 97.820312 305.023438 100.765625 302.445312 102.433594 C 299.25 104.503906 295.695312 106.027344 292.234375 107.65625 C 291.027344 108.214844 289.765625 108.542969 288.4375 108.640625 C 285.84375 108.832031 285.535156 110.21875 285.484375 112.527344 C 285.089844 127.511719 284.566406 142.5 283.921875 157.488281 C 283.761719 160.035156 283.289062 162.523438 282.492188 164.949219 C 280.851562 170.3125 275.972656 171.882812 271.753906 168.1875 C 267.742188 164.679688 264.449219 160.402344 264.742188 154.671875 C 265.355469 142.402344 266.21875 130.144531 267 117.878906 C 267.0625 116.25 267.285156 114.628906 267.46875 112.824219 Z M 267.46875 112.824219 " fill-opacity="1" fill-rule="nonzero"/><path fill="#ffffff" d="M 198.84375 132.890625 C 198.730469 113.535156 202.984375 94.828125 207.355469 76.132812 C 207.847656 73.980469 208.339844 71.816406 209.019531 69.734375 C 209.460938 68.324219 210.066406 66.992188 210.84375 65.738281 C 212.320312 63.425781 214.382812 62.074219 217.242188 62.558594 C 220.023438 63.050781 221.597656 64.984375 222.164062 67.480469 C 222.765625 70.367188 223.121094 73.285156 223.226562 76.234375 C 223.839844 89.484375 221.679688 102.566406 220.765625 115.722656 C 219.929688 127.40625 219.574219 139.128906 219.132812 150.839844 C 219.027344 152.75 219.335938 154.589844 220.066406 156.359375 C 220.851562 158.050781 222.015625 159.417969 223.5625 160.457031 C 226.675781 162.476562 228.300781 165.277344 227.789062 168.902344 C 227.296875 172.410156 225.144531 174.496094 221.246094 175.253906 C 213.480469 176.765625 206.546875 173.257812 203.3125 166.03125 C 200.28125 159.265625 199.375 152.003906 198.882812 144.710938 C 198.636719 140.765625 198.84375 136.828125 198.84375 132.890625 Z M 198.84375 132.890625 " fill-opacity="1" fill-rule="nonzero"/><path fill="#ffffff" d="M 277.058594 238.300781 C 276.8125 244.960938 280.34375 248.90625 287.273438 249.445312 C 289.769531 249.636719 292.3125 249.066406 294.835938 248.914062 C 297.445312 248.75 300.074219 248.457031 302.664062 248.632812 C 305.410156 248.816406 306.707031 250.886719 305.464844 253.324219 C 304.386719 255.4375 302.863281 257.59375 300.988281 258.996094 C 291.53125 266.078125 275.886719 265.296875 267.113281 257.4375 C 261.503906 252.414062 258.648438 245.90625 258.496094 238.492188 C 258.402344 235.390625 258.570312 232.304688 259.003906 229.230469 C 259.4375 226.15625 260.125 223.140625 261.070312 220.1875 C 262.015625 217.230469 263.203125 214.375 264.632812 211.621094 C 266.066406 208.867188 267.71875 206.253906 269.59375 203.78125 C 273.679688 198.316406 279.003906 194.273438 285.75 192.859375 C 289.132812 192.160156 292.519531 192.136719 295.910156 192.785156 C 301.890625 193.980469 305.261719 198.347656 306.121094 204.558594 C 306.441406 206.933594 306.40625 209.300781 306.015625 211.664062 C 305.625 214.027344 304.894531 216.28125 303.828125 218.429688 C 298.75 229.058594 290.476562 235.652344 278.816406 237.789062 C 278.414062 237.867188 278.011719 237.941406 277.617188 238.042969 C 277.421875 238.113281 277.238281 238.199219 277.058594 238.300781 Z M 277.890625 224.492188 C 281.097656 223.964844 287.121094 220.863281 290.132812 217.644531 C 292.234375 215.363281 293.984375 212.835938 295.378906 210.066406 C 296.40625 208.042969 297.421875 205.222656 295.121094 203.496094 C 292.824219 201.769531 290.0625 203.085938 288.09375 204.652344 C 281.773438 209.667969 279.1875 216.699219 277.890625 224.492188 Z M 277.890625 224.492188 " fill-opacity="1" fill-rule="nonzero"/><path fill="#ffffff" d="M 145.464844 272.003906 C 143.363281 271.675781 141.191406 271.578125 139.175781 270.972656 C 128.871094 267.882812 125.210938 253.578125 132.777344 245.871094 C 133.671875 244.964844 135.503906 244.078125 136.5 244.394531 C 137.6875 244.777344 138.753906 246.363281 139.316406 247.652344 C 140.113281 249.507812 140.222656 251.65625 140.957031 253.558594 C 142.292969 257.003906 144.71875 258.226562 147.40625 257.058594 C 149.734375 256.074219 151.035156 252.234375 149.628906 249.5625 C 148.476562 247.480469 147.109375 245.546875 145.527344 243.765625 C 142.550781 240.269531 139.21875 237.066406 136.394531 233.457031 C 133.992188 230.4375 131.914062 227.207031 130.164062 223.769531 C 126.304688 216.085938 126.265625 208.300781 131.507812 201.226562 C 137.046875 193.734375 144.9375 192.027344 153.710938 193.578125 C 157.96875 194.332031 161.882812 196.039062 165.070312 199.066406 C 168.871094 202.703125 168.476562 210.960938 164.195312 214.023438 C 163.210938 214.710938 161.527344 214.882812 160.324219 214.605469 C 158.605469 214.210938 157.023438 213.195312 155.402344 212.410156 C 154.738281 212.089844 154.132812 211.65625 153.476562 211.320312 C 150.59375 209.84375 147.796875 209.84375 146.359375 211.398438 C 144.742188 213.121094 144.464844 215.992188 146.554688 218.664062 C 149.390625 222.15625 152.457031 225.4375 155.746094 228.507812 C 160.34375 232.9375 164.671875 237.519531 166.144531 243.992188 C 169.90625 260.511719 157.609375 272.316406 145.464844 272.003906 Z M 145.464844 272.003906 " fill-opacity="1" fill-rule="nonzero"/><path fill="#ffffff" d="M 104.046875 279.945312 C 96.566406 279.417969 89.527344 276.605469 85.742188 268.507812 C 84.066406 264.921875 83.972656 261.21875 85.789062 257.589844 C 86.640625 255.890625 87.757812 254.574219 89.847656 254.460938 C 91.941406 254.347656 93.238281 255.472656 94.136719 257.191406 C 95.726562 260.246094 98.21875 261.808594 101.671875 261.769531 C 105.976562 261.71875 108.453125 258.554688 106.980469 254.523438 C 106.144531 252.375 104.929688 250.460938 103.339844 248.789062 C 100.277344 245.492188 96.773438 242.597656 93.730469 239.285156 C 90.691406 235.972656 87.671875 232.753906 85.433594 229.015625 C 81.316406 222.125 82.1875 214.308594 87.074219 209.195312 C 90 206.128906 93.773438 204.484375 97.832031 203.625 C 103.246094 202.476562 108.769531 202.304688 114.136719 203.9375 C 121.839844 206.28125 124.070312 215.144531 118.566406 221.09375 C 117.148438 222.625 115.417969 223.164062 113.445312 222.300781 C 111.863281 221.613281 110.34375 220.800781 108.789062 220.070312 C 108.0625 219.6875 107.300781 219.382812 106.507812 219.160156 C 104.273438 218.667969 101.746094 218.433594 100.480469 220.597656 C 99.140625 222.878906 101.085938 224.632812 102.742188 225.949219 C 106.015625 228.546875 109.425781 230.964844 112.792969 233.4375 C 123.933594 241.628906 126.121094 253.039062 123.84375 265.671875 C 122.316406 274.007812 113.871094 279.980469 104.046875 279.945312 Z M 104.046875 279.945312 " fill-opacity="1" fill-rule="nonzero"/><path fill="#ffffff" d="M 245.648438 200.1875 C 247.203125 198.78125 248.421875 197.574219 249.75 196.511719 C 252.742188 194.113281 256.035156 192.371094 259.949219 192.023438 C 262.699219 191.777344 265.085938 192.558594 266.621094 194.84375 C 268.15625 197.125 267.460938 199.679688 266.128906 201.8125 C 265.109375 203.445312 263.632812 204.835938 262.191406 206.171875 C 260.152344 208.074219 257.867188 209.703125 255.890625 211.660156 C 250.351562 217.160156 246.800781 223.734375 246.328125 231.613281 C 245.789062 240.609375 245.585938 249.632812 245.214844 258.644531 C 245.222656 259.628906 245.121094 260.601562 244.917969 261.566406 C 243.863281 265.539062 242.382812 266.765625 238.652344 266.9375 C 233.773438 267.15625 230.476562 265.515625 229.300781 261.828125 C 228.476562 259.40625 228 256.921875 227.867188 254.371094 C 227.148438 234.097656 227.949219 213.882812 230.273438 193.730469 C 230.488281 191.925781 231.058594 190.242188 231.980469 188.675781 C 234.097656 185.15625 238.214844 184.769531 240.839844 187.910156 C 242.21875 189.550781 243.140625 191.660156 243.925781 193.691406 C 244.714844 195.722656 245.039062 197.78125 245.648438 200.1875 Z M 245.648438 200.1875 " fill-opacity="1" fill-rule="nonzero"/><path fill="#ffffff" d="M 255.4375 153.8125 C 255.4375 155.695312 255.5 157.582031 255.4375 159.460938 C 255.246094 164.929688 252.078125 168.394531 247.484375 170.683594 C 243.421875 172.707031 238.945312 171.089844 236.6875 166.746094 C 233.152344 160.128906 231.183594 153.074219 230.78125 145.582031 C 230.289062 134.53125 231.890625 123.671875 234.355469 112.929688 C 234.804688 110.917969 235.542969 109.019531 236.570312 107.230469 C 239.738281 101.867188 246.585938 101.902344 249.050781 107.558594 C 250.917969 111.851562 252.128906 116.328125 252.683594 120.980469 C 253.949219 131.878906 254.652344 142.851562 255.546875 153.792969 Z M 255.4375 153.8125 " fill-opacity="1" fill-rule="nonzero"/><path fill="#ffffff" d="M 234.210938 82.332031 C 234.324219 74.039062 238.800781 69.15625 246.195312 69.25 C 252.445312 69.335938 257.886719 74.621094 257.804688 80.542969 C 257.703125 88.234375 252.640625 94.003906 245.996094 93.972656 C 238.851562 93.945312 234.117188 89.273438 234.210938 82.332031 Z M 234.210938 82.332031 " fill-opacity="1" fill-rule="nonzero"/></svg>