<svg xmlns="http://www.w3.org/2000/svg" xmlns:xlink="http://www.w3.org/1999/xlink" width="500" zoomAndPan="magnify" viewBox="0 0 375 374.999991" height="500" preserveAspectRatio="xMidYMid meet" version="1.0"><defs><clipPath id="8609829246"><path d="M 16.902344 29 L 347.652344 29 L 347.652344 346 L 16.902344 346 Z M 16.902344 29 " clip-rule="nonzero"/></clipPath></defs><g clip-path="url(#8609829246)"><path fill="#f28a00" d="M 347.496094 187.496094 C 347.496094 203.414062 310.421875 213.277344 305.757812 227.644531 C 300.921875 242.535156 324.949219 272.273438 315.929688 284.667969 C 306.820312 297.183594 271.046875 283.472656 258.53125 292.582031 C 246.140625 301.601562 248.179688 339.902344 233.289062 344.738281 C 218.921875 349.402344 198.121094 317.371094 182.203125 317.371094 C 166.28125 317.371094 145.480469 349.402344 131.113281 344.738281 C 116.746094 340.074219 118.265625 301.601562 105.871094 292.582031 C 93.355469 283.472656 57.582031 297.183594 48.472656 284.667969 C 39.457031 272.273438 63.480469 242.53125 58.644531 227.644531 C 53.980469 213.277344 16.90625 203.414062 16.90625 187.496094 C 16.90625 171.574219 53.980469 161.710938 58.644531 147.34375 C 63.480469 132.457031 39.453125 102.714844 48.472656 90.320312 C 57.582031 77.804688 93.355469 91.515625 105.871094 82.40625 C 118.265625 73.386719 116.226562 35.085938 131.113281 30.25 C 145.480469 25.585938 166.28125 57.621094 182.203125 57.621094 C 198.121094 57.621094 218.921875 25.585938 233.289062 30.25 C 248.179688 35.085938 246.140625 73.386719 258.53125 82.40625 C 271.046875 91.515625 306.820312 77.804688 315.929688 90.320312 C 324.949219 102.714844 300.921875 132.457031 305.757812 147.34375 C 310.421875 161.710938 347.496094 171.574219 347.496094 187.496094 Z M 347.496094 187.496094 " fill-opacity="1" fill-rule="nonzero"/></g><path fill="#ffffff" d="M 103.96875 161.507812 C 103.714844 162.152344 103.347656 162.578125 102.867188 162.785156 C 102.390625 162.992188 101.847656 162.976562 101.246094 162.734375 C 100.621094 162.488281 100.214844 162.128906 100.027344 161.65625 C 99.84375 161.1875 99.875 160.628906 100.132812 159.984375 L 101.339844 156.929688 L 87.707031 151.527344 L 88.582031 149.320312 L 89.523438 154.800781 C 89.621094 155.375 89.5625 155.847656 89.347656 156.21875 C 89.132812 156.585938 88.828125 156.855469 88.433594 157.023438 C 88.039062 157.195312 87.628906 157.25 87.195312 157.183594 C 86.769531 157.117188 86.390625 156.925781 86.058594 156.609375 C 85.730469 156.292969 85.511719 155.855469 85.40625 155.300781 L 84.53125 150.09375 C 84.4375 149.566406 84.398438 149.054688 84.40625 148.554688 C 84.417969 148.058594 84.507812 147.597656 84.675781 147.175781 C 84.914062 146.570312 85.261719 146.152344 85.714844 145.925781 C 86.164062 145.695312 86.714844 145.707031 87.359375 145.964844 L 103.199219 152.242188 L 104.289062 149.492188 C 104.539062 148.871094 104.890625 148.449219 105.347656 148.234375 C 105.808594 148.019531 106.347656 148.035156 106.972656 148.285156 C 107.597656 148.53125 108.007812 148.894531 108.207031 149.367188 C 108.402344 149.84375 108.375 150.394531 108.128906 151.015625 Z M 114.546875 141.28125 C 112.980469 143.574219 110.929688 144.738281 108.394531 144.777344 C 105.859375 144.816406 103.027344 143.761719 99.894531 141.621094 C 97.800781 140.1875 96.222656 138.703125 95.152344 137.175781 C 94.089844 135.644531 93.539062 134.101562 93.515625 132.542969 C 93.488281 130.988281 93.996094 129.453125 95.035156 127.933594 C 96.613281 125.625 98.644531 124.4375 101.117188 124.371094 C 103.59375 124.304688 106.40625 125.347656 109.554688 127.503906 C 111.648438 128.9375 113.234375 130.425781 114.320312 131.96875 C 115.40625 133.511719 115.976562 135.066406 116.035156 136.628906 C 116.09375 138.191406 115.597656 139.746094 114.546875 141.28125 Z M 111.164062 138.96875 C 111.875 137.933594 111.886719 136.808594 111.203125 135.605469 C 110.515625 134.402344 109.054688 133.035156 106.820312 131.503906 C 104.582031 129.972656 102.800781 129.121094 101.472656 128.949219 C 100.148438 128.777344 99.128906 129.210938 98.417969 130.246094 C 97.710938 131.285156 97.675781 132.390625 98.316406 133.5625 C 98.957031 134.738281 100.394531 136.089844 102.632812 137.621094 C 104.867188 139.152344 106.671875 140.019531 108.042969 140.222656 C 109.414062 140.425781 110.457031 140.007812 111.167969 138.96875 Z M 126.402344 127.515625 C 124.371094 129.40625 122.113281 130.089844 119.628906 129.570312 C 117.148438 129.054688 114.617188 127.40625 112.03125 124.628906 C 110.300781 122.769531 109.085938 120.980469 108.378906 119.25 C 107.675781 117.523438 107.480469 115.898438 107.796875 114.375 C 108.113281 112.851562 108.945312 111.464844 110.292969 110.207031 C 112.339844 108.304688 114.578125 107.589844 117.007812 108.066406 C 119.4375 108.546875 121.953125 110.183594 124.550781 112.976562 C 126.28125 114.832031 127.503906 116.632812 128.222656 118.375 C 128.941406 120.121094 129.160156 121.761719 128.875 123.300781 C 128.589844 124.839844 127.765625 126.246094 126.402344 127.515625 Z M 123.609375 124.515625 C 124.53125 123.660156 124.789062 122.566406 124.382812 121.242188 C 123.980469 119.914062 122.851562 118.261719 121.007812 116.277344 C 119.160156 114.292969 117.609375 113.070312 116.351562 112.613281 C 115.09375 112.152344 114.007812 112.351562 113.085938 113.207031 C 112.164062 114.066406 111.890625 115.136719 112.257812 116.421875 C 112.625 117.710938 113.734375 119.34375 115.578125 121.328125 C 117.425781 123.3125 118.992188 124.554688 120.285156 125.050781 C 121.582031 125.550781 122.6875 125.371094 123.609375 124.515625 Z M 133.933594 109.242188 C 132.246094 110.082031 130.65625 110.167969 129.15625 109.496094 C 127.660156 108.828125 126.433594 107.53125 125.476562 105.609375 C 124.828125 104.308594 124.480469 103.089844 124.433594 101.949219 C 124.386719 100.808594 124.636719 99.789062 125.191406 98.882812 C 125.746094 97.976562 126.574219 97.25 127.679688 96.695312 C 129.347656 95.863281 130.9375 95.78125 132.445312 96.449219 C 133.949219 97.113281 135.179688 98.398438 136.125 100.300781 C 136.765625 101.578125 137.109375 102.792969 137.160156 103.945312 C 137.210938 105.09375 136.96875 106.125 136.429688 107.03125 C 135.890625 107.945312 135.058594 108.679688 133.933594 109.242188 Z M 132.542969 106.449219 C 132.929688 106.253906 133.195312 105.972656 133.335938 105.597656 C 133.476562 105.226562 133.492188 104.746094 133.382812 104.160156 C 133.269531 103.574219 133.011719 102.871094 132.605469 102.054688 C 131.996094 100.832031 131.398438 100.035156 130.8125 99.660156 C 130.226562 99.289062 129.652344 99.242188 129.089844 99.519531 C 128.703125 99.714844 128.429688 99.992188 128.273438 100.363281 C 128.117188 100.730469 128.09375 101.195312 128.207031 101.757812 C 128.316406 102.320312 128.582031 103.019531 128.996094 103.855469 C 129.617188 105.097656 130.214844 105.910156 130.796875 106.300781 C 131.378906 106.6875 131.960938 106.738281 132.539062 106.449219 Z M 141.546875 115.332031 C 141.507812 115.835938 141.355469 116.230469 141.085938 116.523438 C 140.820312 116.8125 140.503906 117 140.132812 117.089844 C 139.765625 117.175781 139.40625 117.152344 139.0625 117.019531 C 138.71875 116.890625 138.433594 116.664062 138.199219 116.34375 C 137.964844 116.023438 137.871094 115.613281 137.910156 115.109375 L 139.335938 91.796875 C 139.367188 91.273438 139.511719 90.859375 139.773438 90.5625 C 140.035156 90.261719 140.347656 90.074219 140.710938 90.003906 C 141.078125 89.929688 141.433594 89.957031 141.789062 90.085938 C 142.140625 90.210938 142.433594 90.433594 142.667969 90.753906 C 142.898438 91.074219 142.996094 91.488281 142.957031 91.992188 L 141.542969 115.332031 Z M 153.21875 110.386719 C 151.527344 111.226562 149.933594 111.308594 148.433594 110.628906 C 146.929688 109.949219 145.703125 108.648438 144.746094 106.726562 C 144.105469 105.445312 143.769531 104.234375 143.730469 103.089844 C 143.695312 101.945312 143.945312 100.921875 144.492188 100.019531 C 145.035156 99.121094 145.859375 98.394531 146.964844 97.84375 C 148.632812 97.011719 150.21875 96.921875 151.722656 97.578125 C 153.222656 98.238281 154.449219 99.515625 155.398438 101.417969 C 156.035156 102.699219 156.382812 103.917969 156.441406 105.074219 C 156.496094 106.234375 156.253906 107.269531 155.714844 108.179688 C 155.175781 109.089844 154.34375 109.824219 153.21875 110.386719 Z M 151.808594 107.5625 C 152.199219 107.371094 152.464844 107.089844 152.609375 106.726562 C 152.757812 106.367188 152.773438 105.886719 152.65625 105.289062 C 152.539062 104.691406 152.28125 103.984375 151.875 103.171875 C 151.265625 101.949219 150.667969 101.152344 150.082031 100.777344 C 149.496094 100.402344 148.921875 100.355469 148.359375 100.636719 C 147.96875 100.828125 147.703125 101.105469 147.558594 101.46875 C 147.410156 101.832031 147.390625 102.304688 147.496094 102.878906 C 147.605469 103.457031 147.859375 104.152344 148.265625 104.96875 C 148.894531 106.230469 149.496094 107.046875 150.074219 107.425781 C 150.648438 107.808594 151.230469 107.851562 151.808594 107.558594 Z M 177.117188 105.726562 C 176.207031 105.785156 175.277344 105.769531 174.328125 105.6875 C 173.378906 105.605469 172.46875 105.460938 171.597656 105.253906 C 170.726562 105.050781 169.941406 104.773438 169.25 104.421875 C 168.757812 104.195312 168.398438 103.875 168.179688 103.464844 C 167.957031 103.054688 167.863281 102.632812 167.886719 102.195312 C 167.914062 101.757812 168.054688 101.363281 168.304688 101.011719 C 168.554688 100.660156 168.886719 100.421875 169.300781 100.300781 C 169.71875 100.175781 170.191406 100.226562 170.730469 100.457031 C 171.648438 100.898438 172.636719 101.207031 173.703125 101.378906 C 174.769531 101.550781 175.820312 101.605469 176.855469 101.539062 C 178.4375 101.441406 179.546875 101.128906 180.1875 100.601562 C 180.828125 100.070312 181.125 99.441406 181.082031 98.703125 C 181.042969 98.078125 180.773438 97.59375 180.273438 97.257812 C 179.773438 96.917969 178.921875 96.65625 177.714844 96.46875 L 174 95.917969 C 171.894531 95.617188 170.308594 94.96875 169.234375 93.984375 C 168.164062 92.996094 167.574219 91.648438 167.46875 89.9375 C 167.402344 88.855469 167.566406 87.859375 167.964844 86.941406 C 168.367188 86.027344 168.957031 85.21875 169.738281 84.519531 C 170.519531 83.820312 171.46875 83.261719 172.582031 82.84375 C 173.695312 82.425781 174.933594 82.175781 176.300781 82.089844 C 177.511719 82.015625 178.710938 82.089844 179.898438 82.308594 C 181.082031 82.527344 182.136719 82.890625 183.058594 83.398438 C 183.507812 83.628906 183.828125 83.941406 184.011719 84.332031 C 184.203125 84.722656 184.28125 85.121094 184.25 85.523438 C 184.222656 85.925781 184.082031 86.289062 183.832031 86.609375 C 183.578125 86.929688 183.25 87.144531 182.84375 87.253906 C 182.4375 87.367188 181.933594 87.300781 181.332031 87.058594 C 180.597656 86.734375 179.820312 86.507812 179.011719 86.386719 C 178.199219 86.261719 177.375 86.226562 176.527344 86.28125 C 175.621094 86.335938 174.855469 86.503906 174.230469 86.78125 C 173.605469 87.058594 173.140625 87.425781 172.832031 87.878906 C 172.523438 88.332031 172.386719 88.839844 172.421875 89.402344 C 172.460938 90.03125 172.71875 90.523438 173.199219 90.886719 C 173.679688 91.246094 174.488281 91.511719 175.628906 91.679688 L 179.34375 92.230469 C 181.492188 92.554688 183.121094 93.1875 184.21875 94.128906 C 185.320312 95.070312 185.921875 96.363281 186.023438 98.007812 C 186.089844 99.089844 185.9375 100.082031 185.558594 100.984375 C 185.179688 101.886719 184.601562 102.679688 183.816406 103.355469 C 183.035156 104.035156 182.078125 104.578125 180.953125 104.984375 C 179.828125 105.390625 178.550781 105.636719 177.121094 105.726562 Z M 191.113281 105.546875 C 190.277344 105.40625 189.675781 105.074219 189.300781 104.546875 C 188.929688 104.023438 188.8125 103.34375 188.953125 102.511719 L 191.878906 85.097656 C 192.019531 84.265625 192.351562 83.660156 192.875 83.289062 C 193.402344 82.914062 194.078125 82.796875 194.914062 82.9375 L 206.105469 84.816406 C 206.746094 84.925781 207.203125 85.171875 207.480469 85.5625 C 207.757812 85.949219 207.84375 86.453125 207.738281 87.070312 C 207.628906 87.710938 207.382812 88.171875 206.996094 88.445312 C 206.605469 88.722656 206.09375 88.804688 205.453125 88.699219 L 196.40625 87.179688 L 195.519531 92.46875 L 203.824219 93.867188 C 204.488281 93.976562 204.957031 94.226562 205.230469 94.613281 C 205.507812 95 205.589844 95.515625 205.484375 96.15625 C 205.375 96.796875 205.128906 97.257812 204.742188 97.53125 C 204.351562 97.808594 203.828125 97.890625 203.164062 97.78125 L 194.859375 96.382812 L 193.910156 102.027344 L 202.953125 103.546875 C 203.597656 103.65625 204.054688 103.902344 204.332031 104.289062 C 204.605469 104.679688 204.691406 105.183594 204.585938 105.800781 C 204.480469 106.441406 204.230469 106.902344 203.84375 107.175781 C 203.457031 107.453125 202.945312 107.535156 202.300781 107.429688 L 191.109375 105.546875 Z M 216.699219 113.136719 C 214.429688 112.160156 212.683594 110.875 211.457031 109.28125 C 210.226562 107.691406 209.53125 105.898438 209.367188 103.902344 C 209.199219 101.90625 209.589844 99.804688 210.542969 97.59375 C 211.253906 95.941406 212.140625 94.558594 213.199219 93.445312 C 214.257812 92.332031 215.457031 91.503906 216.800781 90.960938 C 218.144531 90.417969 219.597656 90.175781 221.164062 90.238281 C 222.730469 90.296875 224.363281 90.695312 226.054688 91.421875 C 227.050781 91.851562 228.007812 92.410156 228.925781 93.101562 C 229.84375 93.792969 230.582031 94.53125 231.140625 95.3125 C 231.519531 95.808594 231.707031 96.300781 231.707031 96.796875 C 231.703125 97.292969 231.578125 97.734375 231.328125 98.121094 C 231.078125 98.511719 230.753906 98.796875 230.359375 98.980469 C 229.960938 99.164062 229.542969 99.207031 229.113281 99.117188 C 228.679688 99.023438 228.269531 98.738281 227.886719 98.269531 C 227.445312 97.652344 226.925781 97.125 226.339844 96.679688 C 225.75 96.238281 225.117188 95.871094 224.441406 95.578125 C 223.109375 95.003906 221.875 94.789062 220.742188 94.921875 C 219.605469 95.0625 218.597656 95.527344 217.710938 96.328125 C 216.824219 97.125 216.066406 98.253906 215.441406 99.703125 C 214.824219 101.136719 214.523438 102.460938 214.546875 103.675781 C 214.566406 104.886719 214.914062 105.953125 215.59375 106.871094 C 216.273438 107.789062 217.28125 108.535156 218.613281 109.109375 C 219.25 109.382812 219.9375 109.585938 220.671875 109.714844 C 221.40625 109.839844 222.160156 109.871094 222.921875 109.796875 C 223.550781 109.761719 224.054688 109.863281 224.433594 110.109375 C 224.808594 110.355469 225.070312 110.679688 225.214844 111.085938 C 225.359375 111.492188 225.382812 111.90625 225.28125 112.335938 C 225.179688 112.761719 224.960938 113.140625 224.628906 113.472656 C 224.300781 113.800781 223.855469 114.011719 223.296875 114.101562 C 222.347656 114.28125 221.273438 114.28125 220.078125 114.097656 C 218.882812 113.910156 217.757812 113.59375 216.703125 113.136719 Z M 233.136719 123.332031 C 231.863281 122.320312 230.871094 121.261719 230.15625 120.15625 C 229.445312 119.050781 229.011719 117.914062 228.863281 116.742188 C 228.714844 115.570312 228.859375 114.367188 229.304688 113.125 C 229.746094 111.886719 230.484375 110.625 231.507812 109.332031 L 238.382812 100.671875 C 238.90625 100.007812 239.476562 99.644531 240.085938 99.574219 C 240.691406 99.503906 241.320312 99.726562 241.964844 100.238281 C 242.59375 100.738281 242.941406 101.289062 243.011719 101.898438 C 243.082031 102.511719 242.855469 103.144531 242.332031 103.808594 L 235.433594 112.492188 C 234.273438 113.953125 233.734375 115.3125 233.808594 116.578125 C 233.882812 117.84375 234.550781 118.972656 235.808594 119.972656 C 237.0625 120.96875 238.3125 121.359375 239.550781 121.136719 C 240.792969 120.917969 241.992188 120.078125 243.152344 118.621094 L 250.046875 109.933594 C 250.570312 109.273438 251.140625 108.90625 251.75 108.835938 C 252.355469 108.765625 252.976562 108.980469 253.605469 109.480469 C 254.234375 109.980469 254.578125 110.53125 254.640625 111.132812 C 254.699219 111.734375 254.46875 112.367188 253.945312 113.03125 L 247.070312 121.6875 C 245.707031 123.402344 244.273438 124.609375 242.761719 125.308594 C 241.253906 126.003906 239.695312 126.1875 238.09375 125.855469 C 236.488281 125.523438 234.835938 124.683594 233.140625 123.335938 Z M 244.425781 133.726562 C 243.9375 133.0625 243.746094 132.421875 243.859375 131.800781 C 243.96875 131.183594 244.351562 130.628906 245.019531 130.140625 L 259.550781 119.441406 C 260.230469 118.9375 260.878906 118.738281 261.492188 118.839844 C 262.105469 118.941406 262.65625 119.324219 263.144531 119.984375 L 267.828125 126.347656 C 269.34375 128.410156 270.015625 130.363281 269.84375 132.214844 C 269.671875 134.0625 268.695312 135.644531 266.914062 136.957031 C 265.761719 137.804688 264.578125 138.285156 263.371094 138.394531 C 262.15625 138.507812 260.976562 138.253906 259.820312 137.636719 C 258.667969 137.019531 257.582031 136.019531 256.566406 134.640625 L 257.164062 134.523438 L 257.957031 135.597656 C 258.496094 136.328125 258.789062 137.105469 258.835938 137.917969 C 258.882812 138.730469 258.6875 139.605469 258.25 140.546875 L 256.433594 144.386719 C 256.175781 144.953125 255.832031 145.382812 255.402344 145.671875 C 254.96875 145.964844 254.511719 146.058594 254.035156 145.953125 C 253.554688 145.847656 253.101562 145.507812 252.675781 144.933594 C 252.25 144.359375 252.03125 143.800781 252.011719 143.261719 C 251.992188 142.726562 252.132812 142.128906 252.433594 141.476562 L 255.21875 135.550781 C 255.515625 134.929688 255.609375 134.367188 255.507812 133.863281 C 255.40625 133.359375 255.15625 132.835938 254.757812 132.292969 L 253.292969 130.304688 L 248.003906 134.199219 C 247.339844 134.6875 246.699219 134.894531 246.082031 134.824219 C 245.464844 134.753906 244.914062 134.386719 244.421875 133.726562 Z M 256.226562 128.144531 L 258.90625 131.785156 C 259.703125 132.867188 260.523438 133.523438 261.363281 133.75 C 262.207031 133.980469 263.0625 133.773438 263.9375 133.128906 C 264.792969 132.5 265.238281 131.75 265.269531 130.878906 C 265.300781 130.007812 264.914062 129.03125 264.121094 127.949219 L 261.441406 124.308594 L 256.230469 128.144531 Z M 256.34375 151.453125 C 256.019531 150.671875 255.980469 149.984375 256.226562 149.390625 C 256.472656 148.792969 256.988281 148.332031 257.765625 148.007812 L 274.074219 141.242188 C 274.855469 140.917969 275.542969 140.878906 276.140625 141.125 C 276.734375 141.371094 277.195312 141.882812 277.519531 142.664062 L 281.871094 153.144531 C 282.117188 153.746094 282.152344 154.265625 281.972656 154.707031 C 281.789062 155.144531 281.410156 155.484375 280.828125 155.726562 C 280.226562 155.976562 279.707031 156.011719 279.269531 155.828125 C 278.828125 155.648438 278.484375 155.257812 278.234375 154.65625 L 274.71875 146.1875 L 269.761719 148.246094 L 272.992188 156.023438 C 273.25 156.644531 273.289062 157.171875 273.105469 157.613281 C 272.925781 158.050781 272.535156 158.398438 271.933594 158.648438 C 271.332031 158.898438 270.8125 158.929688 270.371094 158.75 C 269.933594 158.566406 269.585938 158.164062 269.328125 157.542969 L 266.097656 149.765625 L 260.8125 151.960938 L 264.328125 160.429688 C 264.578125 161.03125 264.609375 161.550781 264.429688 161.988281 C 264.25 162.429688 263.867188 162.769531 263.285156 163.011719 C 262.6875 163.257812 262.164062 163.292969 261.726562 163.113281 C 261.285156 162.929688 260.941406 162.539062 260.691406 161.941406 L 256.339844 151.457031 Z M 256.34375 151.453125 " fill-opacity="1" fill-rule="nonzero"/><path fill="#ffffff" d="M 227.960938 147.164062 C 230.269531 148.09375 231.78125 150.332031 231.78125 152.820312 L 231.78125 170.050781 C 231.78125 202.714844 212.546875 232.3125 182.695312 245.582031 C 182.53125 245.652344 182.367188 245.730469 182.203125 245.800781 C 182.039062 245.730469 181.875 245.652344 181.707031 245.582031 C 151.855469 232.3125 132.621094 202.714844 132.621094 170.050781 L 132.621094 152.820312 C 132.621094 150.332031 134.132812 148.09375 136.441406 147.164062 C 150.96875 141.3125 165.496094 135.460938 180.023438 129.609375 C 181.421875 129.046875 182.984375 129.046875 184.386719 129.609375 C 198.910156 135.460938 213.4375 141.3125 227.964844 147.164062 Z M 227.960938 147.164062 " fill-opacity="1" fill-rule="nonzero"/><path fill="#f28a00" d="M 165.667969 174.679688 L 198.734375 174.679688 C 199.152344 174.679688 199.570312 174.71875 199.980469 174.800781 C 200.390625 174.882812 200.789062 175.003906 201.175781 175.164062 C 201.566406 175.324219 201.933594 175.519531 202.28125 175.753906 C 202.628906 175.988281 202.953125 176.25 203.25 176.546875 C 203.546875 176.84375 203.808594 177.167969 204.042969 177.515625 C 204.277344 177.863281 204.472656 178.230469 204.632812 178.617188 C 204.792969 179.007812 204.914062 179.40625 204.996094 179.816406 C 205.078125 180.226562 205.117188 180.644531 205.117188 181.0625 L 205.117188 203.535156 C 205.117188 203.953125 205.078125 204.371094 204.996094 204.78125 C 204.914062 205.191406 204.792969 205.589844 204.632812 205.976562 C 204.472656 206.367188 204.277344 206.734375 204.042969 207.082031 C 203.808594 207.429688 203.546875 207.753906 203.25 208.050781 C 202.953125 208.347656 202.628906 208.609375 202.28125 208.84375 C 201.933594 209.078125 201.566406 209.273438 201.175781 209.433594 C 200.789062 209.59375 200.390625 209.714844 199.980469 209.796875 C 199.570312 209.878906 199.152344 209.917969 198.734375 209.917969 L 165.667969 209.917969 C 165.246094 209.917969 164.832031 209.878906 164.421875 209.796875 C 164.011719 209.714844 163.609375 209.59375 163.222656 209.433594 C 162.835938 209.273438 162.46875 209.078125 162.121094 208.84375 C 161.769531 208.609375 161.449219 208.347656 161.152344 208.050781 C 160.855469 207.753906 160.589844 207.429688 160.359375 207.082031 C 160.125 206.734375 159.929688 206.367188 159.769531 205.976562 C 159.609375 205.589844 159.488281 205.191406 159.40625 204.78125 C 159.324219 204.371094 159.28125 203.953125 159.28125 203.535156 L 159.28125 181.0625 C 159.28125 180.644531 159.324219 180.226562 159.40625 179.816406 C 159.488281 179.40625 159.609375 179.007812 159.769531 178.617188 C 159.929688 178.230469 160.125 177.863281 160.359375 177.515625 C 160.589844 177.167969 160.855469 176.84375 161.152344 176.546875 C 161.449219 176.25 161.769531 175.988281 162.121094 175.753906 C 162.46875 175.519531 162.835938 175.324219 163.222656 175.164062 C 163.609375 175.003906 164.011719 174.882812 164.421875 174.800781 C 164.832031 174.71875 165.246094 174.679688 165.667969 174.679688 Z M 165.667969 174.679688 " fill-opacity="1" fill-rule="nonzero"/><path fill="#f28a00" d="M 171.878906 184.269531 C 169.6875 184.269531 167.90625 182.492188 167.90625 180.296875 L 167.90625 166.542969 C 167.90625 158.664062 174.320312 152.25 182.199219 152.25 C 190.082031 152.25 196.492188 158.664062 196.492188 166.542969 C 196.492188 168.738281 194.714844 170.515625 192.519531 170.515625 C 190.324219 170.515625 188.546875 168.738281 188.546875 166.542969 C 188.546875 163.042969 185.699219 160.195312 182.199219 160.195312 C 178.699219 160.195312 175.851562 163.042969 175.851562 166.542969 L 175.851562 180.296875 C 175.851562 182.488281 174.074219 184.269531 171.878906 184.269531 Z M 171.878906 184.269531 " fill-opacity="1" fill-rule="nonzero"/><path fill="#ffffff" d="M 186.476562 188.957031 C 186.476562 190.601562 185.546875 192.027344 184.1875 192.742188 L 184.1875 199.230469 C 184.1875 200.328125 183.296875 201.21875 182.203125 201.21875 C 181.105469 201.21875 180.214844 200.328125 180.214844 199.230469 L 180.214844 192.742188 C 178.855469 192.027344 177.925781 190.601562 177.925781 188.953125 C 177.925781 186.59375 179.839844 184.679688 182.203125 184.679688 C 184.5625 184.679688 186.476562 186.59375 186.476562 188.953125 Z M 186.476562 188.957031 " fill-opacity="1" fill-rule="nonzero"/><path fill="#ffffff" d="M 98.363281 259.605469 C 97.691406 259.074219 97.324219 258.484375 97.261719 257.835938 C 97.203125 257.183594 97.4375 256.523438 97.96875 255.851562 L 109.574219 241.117188 C 110.121094 240.425781 110.710938 240.046875 111.351562 239.976562 C 111.992188 239.910156 112.652344 240.140625 113.324219 240.671875 L 119.777344 245.753906 C 121.863281 247.398438 123.058594 249.195312 123.363281 251.140625 C 123.664062 253.085938 123.078125 254.996094 121.601562 256.871094 C 120.121094 258.75 118.398438 259.769531 116.429688 259.941406 C 114.460938 260.109375 112.433594 259.371094 110.34375 257.726562 L 105.910156 254.234375 L 102.082031 259.089844 C 101.550781 259.761719 100.96875 260.148438 100.328125 260.25 C 99.691406 260.347656 99.035156 260.132812 98.363281 259.601562 Z M 108.417969 251.046875 L 112.164062 253.996094 C 113.222656 254.832031 114.222656 255.230469 115.15625 255.195312 C 116.089844 255.15625 116.921875 254.675781 117.644531 253.753906 C 118.371094 252.835938 118.636719 251.925781 118.441406 251.027344 C 118.246094 250.125 117.617188 249.257812 116.554688 248.421875 L 112.8125 245.472656 L 108.421875 251.046875 Z M 116.292969 272.917969 C 115.730469 272.632812 115.339844 272.269531 115.121094 271.832031 C 114.902344 271.390625 114.855469 270.925781 114.992188 270.4375 C 115.125 269.949219 115.460938 269.503906 115.996094 269.089844 L 132.285156 256.089844 C 132.953125 255.570312 133.585938 255.265625 134.1875 255.179688 C 134.785156 255.089844 135.378906 255.195312 135.960938 255.492188 C 136.546875 255.785156 136.976562 256.203125 137.261719 256.738281 C 137.546875 257.273438 137.667969 257.957031 137.621094 258.796875 L 136.828125 279.648438 C 136.816406 280.324219 136.660156 280.871094 136.359375 281.285156 C 136.058594 281.703125 135.675781 281.953125 135.207031 282.03125 C 134.738281 282.109375 134.234375 282.007812 133.6875 281.734375 C 133.003906 281.386719 132.558594 280.957031 132.351562 280.449219 C 132.140625 279.941406 132.070312 279.273438 132.132812 278.445312 L 132.449219 273.335938 L 133.660156 275.582031 L 121.089844 269.210938 L 123.617188 268.859375 L 119.714844 272.152344 C 119.054688 272.703125 118.480469 273.046875 117.992188 273.191406 C 117.503906 273.335938 116.9375 273.242188 116.292969 272.917969 Z M 133.242188 260.707031 L 124.722656 267.945312 L 124.503906 266.355469 L 133.941406 271.140625 L 132.53125 271.902344 L 133.300781 260.734375 L 133.242188 260.703125 Z M 148.703125 286.488281 C 147.878906 286.261719 147.308594 285.859375 147.003906 285.285156 C 146.691406 284.707031 146.65625 283.996094 146.890625 283.148438 L 149.492188 273.699219 L 149.738281 276.886719 L 145.050781 263.851562 C 144.875 263.3125 144.878906 262.78125 145.070312 262.261719 C 145.257812 261.742188 145.605469 261.339844 146.101562 261.054688 C 146.601562 260.773438 147.210938 260.730469 147.925781 260.925781 C 148.445312 261.070312 148.886719 261.332031 149.238281 261.710938 C 149.589844 262.085938 149.882812 262.613281 150.117188 263.285156 L 153.257812 272.246094 L 152.214844 271.960938 L 159.5 265.867188 C 160.074219 265.394531 160.597656 265.089844 161.066406 264.949219 C 161.539062 264.8125 162.046875 264.816406 162.589844 264.964844 C 163.285156 265.15625 163.777344 265.488281 164.070312 265.953125 C 164.363281 266.417969 164.445312 266.921875 164.320312 267.457031 C 164.195312 267.996094 163.859375 268.496094 163.316406 268.953125 L 152.734375 277.710938 L 154.542969 275.089844 L 151.941406 284.539062 C 151.457031 286.300781 150.375 286.949219 148.703125 286.488281 Z M 170.460938 290.921875 C 169.691406 290.917969 169.109375 290.699219 168.707031 290.269531 C 168.304688 289.835938 168.105469 289.238281 168.109375 288.472656 L 168.25 268.902344 C 168.253906 268.136719 168.476562 267.542969 168.921875 267.117188 C 169.363281 266.691406 169.964844 266.480469 170.734375 266.484375 C 171.40625 266.492188 171.941406 266.625 172.335938 266.886719 C 172.726562 267.148438 173.089844 267.597656 173.425781 268.230469 L 181.132812 282.546875 L 179.984375 282.539062 L 187.890625 268.332031 C 188.230469 267.703125 188.601562 267.261719 188.996094 267.003906 C 189.390625 266.746094 189.917969 266.621094 190.570312 266.625 C 191.335938 266.628906 191.925781 266.847656 192.339844 267.28125 C 192.753906 267.710938 192.957031 268.3125 192.953125 269.074219 L 192.816406 288.644531 C 192.8125 289.410156 192.605469 290.007812 192.195312 290.433594 C 191.789062 290.859375 191.199219 291.066406 190.433594 291.0625 C 189.667969 291.058594 189.078125 290.839844 188.664062 290.40625 C 188.25 289.976562 188.046875 289.378906 188.050781 288.613281 L 188.144531 274.925781 L 188.890625 274.929688 L 182.523438 286.140625 C 182.25 286.566406 181.960938 286.886719 181.65625 287.097656 C 181.347656 287.308594 180.949219 287.414062 180.453125 287.410156 C 179.957031 287.40625 179.550781 287.292969 179.238281 287.0625 C 178.925781 286.835938 178.644531 286.515625 178.398438 286.109375 L 172.125 274.777344 L 172.9375 274.785156 L 172.84375 288.507812 C 172.835938 289.273438 172.636719 289.867188 172.238281 290.292969 C 171.839844 290.71875 171.25 290.929688 170.457031 290.921875 Z M 205.054688 288.691406 C 204.199219 288.886719 203.488281 288.804688 202.921875 288.449219 C 202.355469 288.09375 201.972656 287.488281 201.777344 286.628906 L 197.699219 268.734375 C 197.503906 267.878906 197.582031 267.167969 197.9375 266.601562 C 198.296875 266.035156 198.902344 265.65625 199.757812 265.457031 L 211.257812 262.835938 C 211.917969 262.6875 212.457031 262.742188 212.875 263.003906 C 213.292969 263.269531 213.574219 263.71875 213.71875 264.355469 C 213.871094 265.015625 213.8125 265.550781 213.550781 265.96875 C 213.289062 266.390625 212.828125 266.671875 212.167969 266.824219 L 202.875 268.941406 L 204.117188 274.378906 L 212.652344 272.429688 C 213.332031 272.277344 213.882812 272.328125 214.296875 272.59375 C 214.714844 272.855469 215 273.316406 215.152344 273.972656 C 215.300781 274.632812 215.246094 275.171875 214.980469 275.589844 C 214.71875 276.007812 214.246094 276.292969 213.566406 276.449219 L 205.03125 278.394531 L 206.355469 284.195312 L 215.648438 282.078125 C 216.308594 281.925781 216.84375 281.984375 217.261719 282.246094 C 217.679688 282.507812 217.964844 282.957031 218.109375 283.59375 C 218.257812 284.253906 218.203125 284.792969 217.941406 285.210938 C 217.675781 285.628906 217.214844 285.910156 216.558594 286.0625 L 205.058594 288.683594 Z M 228.921875 282.242188 C 228.210938 282.578125 227.570312 282.636719 227.003906 282.417969 C 226.441406 282.199219 225.984375 281.722656 225.640625 280.988281 L 217.429688 263.5625 C 217.066406 262.785156 216.976562 262.105469 217.160156 261.519531 C 217.347656 260.933594 217.753906 260.492188 218.386719 260.195312 C 218.9375 259.9375 219.410156 259.84375 219.808594 259.917969 C 220.203125 259.996094 220.710938 260.183594 221.328125 260.492188 L 238.5 269.105469 L 237.671875 269.492188 L 231.652344 256.710938 C 231.316406 256 231.242188 255.355469 231.433594 254.78125 C 231.621094 254.203125 232.074219 253.75 232.789062 253.414062 C 233.503906 253.078125 234.140625 253.019531 234.707031 253.238281 C 235.269531 253.457031 235.722656 253.925781 236.058594 254.636719 L 244.367188 272.277344 C 244.683594 272.953125 244.761719 273.570312 244.605469 274.128906 C 244.445312 274.691406 244.070312 275.109375 243.476562 275.386719 C 242.90625 275.65625 242.402344 275.757812 241.957031 275.691406 C 241.515625 275.625 240.984375 275.441406 240.367188 275.132812 L 223.226562 266.507812 L 224.023438 266.132812 L 230.042969 278.914062 C 230.386719 279.648438 230.46875 280.300781 230.289062 280.871094 C 230.109375 281.441406 229.652344 281.898438 228.921875 282.246094 Z M 259.917969 264.320312 C 259.238281 264.839844 258.574219 265.050781 257.929688 264.949219 C 257.285156 264.851562 256.699219 264.460938 256.179688 263.78125 L 245.761719 250.21875 L 241.015625 253.863281 C 240.464844 254.289062 239.917969 254.464844 239.378906 254.394531 C 238.84375 254.324219 238.367188 254.019531 237.957031 253.484375 C 237.53125 252.929688 237.355469 252.390625 237.433594 251.863281 C 237.511719 251.332031 237.828125 250.855469 238.382812 250.429688 L 252.027344 239.953125 C 252.578125 239.527344 253.121094 239.347656 253.652344 239.40625 C 254.183594 239.46875 254.660156 239.777344 255.085938 240.332031 C 255.496094 240.867188 255.667969 241.402344 255.597656 241.941406 C 255.527344 242.476562 255.214844 242.960938 254.660156 243.382812 L 249.917969 247.027344 L 260.335938 260.59375 C 260.855469 261.273438 261.085938 261.933594 261.027344 262.574219 C 260.964844 263.21875 260.597656 263.800781 259.917969 264.320312 Z M 259.917969 264.320312 " fill-opacity="1" fill-rule="nonzero"/></svg>