<svg xmlns="http://www.w3.org/2000/svg" xmlns:xlink="http://www.w3.org/1999/xlink" width="500" zoomAndPan="magnify" viewBox="0 0 375 374.999991" height="500" preserveAspectRatio="xMidYMid meet" version="1.0"><defs><clipPath id="d7935ebe41"><path d="M 102.273438 143 L 272.523438 143 L 272.523438 365 L 102.273438 365 Z M 102.273438 143 " clip-rule="nonzero"/></clipPath></defs><path fill="#ce9352" d="M 151.296875 98.339844 C 153.261719 82.007812 156.941406 65.519531 160.847656 49.550781 C 162.652344 42.1875 164.953125 34.707031 169.058594 28.394531 C 173.164062 22.078125 177.609375 17.109375 184.882812 15.746094 C 192.566406 14.296875 200.613281 17.328125 206.613281 22.472656 C 212.605469 27.617188 216.769531 34.683594 219.914062 42.027344 C 235.859375 79.195312 227.648438 122.707031 238.066406 161.875 C 234.390625 161.636719 224.144531 160.847656 220.761719 162.332031 C 218.621094 128.460938 219.832031 91.71875 215.171875 58.121094 C 213.71875 47.640625 212.300781 41.476562 206.441406 32.765625 C 200.582031 24.058594 191.53125 17.835938 181.859375 21.503906 C 176.195312 23.652344 172.9375 30.890625 170.664062 37.449219 C 168.644531 43.28125 168.421875 50.917969 167.457031 57.035156 C 161.464844 94.890625 159.414062 128.425781 160.75 166.746094 C 160.75 166.894531 142.703125 167.628906 141.382812 167.558594 C 141.421875 163.21875 144.082031 158.5 144.617188 154 C 145.351562 147.863281 146.09375 141.722656 146.828125 135.589844 C 148.3125 123.175781 149.808594 110.757812 151.296875 98.339844 Z M 151.296875 98.339844 " fill-opacity="1" fill-rule="nonzero"/><g clip-path="url(#d7935ebe41)"><path fill="#f3cf9e" d="M 104.453125 319.746094 C 102.613281 329.640625 102.273438 343.632812 102.796875 354.761719 C 103.117188 361.625 125.4375 356.449219 132.1875 357.660156 C 180.421875 366.304688 223.957031 366.257812 272.5 359.539062 C 264.5625 287.785156 263.996094 215.210938 270.8125 143.339844 C 270.507812 145.8125 147.003906 143.472656 135.515625 143.488281 C 129.117188 143.496094 106.902344 146.042969 106.902344 146.042969 C 106.902344 146.042969 108.761719 158.921875 109.136719 161.925781 C 109.835938 167.53125 110.445312 173.152344 110.957031 178.78125 C 112.984375 201.011719 113.570312 223.367188 112.710938 245.675781 C 111.753906 270.523438 109 295.292969 104.453125 319.746094 Z M 104.453125 319.746094 " fill-opacity="1" fill-rule="nonzero"/></g><path fill="#f3cf9e" d="M 168.007812 26.300781 C 178.363281 10.789062 195.113281 11.453125 208.265625 22.472656 C 239.789062 48.867188 236.128906 114.601562 240.515625 161.875 C 236.746094 161.636719 229.996094 162.246094 226.53125 163.730469 C 223.363281 114.773438 223.984375 52.367188 210.238281 32.4375 C 200.210938 17.914062 172.386719 8.589844 165.300781 52.199219 C 159.15625 90.050781 156.742188 128.507812 158.113281 166.832031 C 158.113281 166.976562 142.730469 167.628906 141.367188 167.558594 C 141.410156 163.21875 141.597656 150.570312 142.148438 146.070312 C 150.5625 77.808594 156.34375 43.769531 168.007812 26.300781 Z M 168.007812 26.300781 " fill-opacity="1" fill-rule="nonzero"/><path fill="#ce9352" d="M 157.367188 164.066406 C 155.28125 162.078125 153.109375 160.1875 150.847656 158.402344 C 152.589844 157.09375 154.359375 155.8125 156.15625 154.582031 C 156.933594 154.050781 156.199219 152.769531 155.414062 153.308594 C 153.464844 154.652344 151.546875 156.042969 149.652344 157.472656 C 147.808594 156.058594 145.914062 154.714844 143.960938 153.441406 C 143.164062 152.921875 142.429688 154.195312 143.21875 154.714844 C 145.003906 155.875 146.746094 157.109375 148.445312 158.394531 C 146.359375 160 144.304688 161.644531 142.296875 163.339844 C 141.570312 163.945312 142.617188 164.984375 143.339844 164.382812 C 145.394531 162.644531 147.5 160.957031 149.640625 159.320312 C 151.960938 161.140625 154.199219 163.070312 156.34375 165.117188 C 157.007812 165.761719 158.050781 164.71875 157.367188 164.066406 Z M 157.367188 164.066406 " fill-opacity="1" fill-rule="nonzero"/><path fill="#ce9352" d="M 156.660156 166.71875 C 152.242188 166.46875 147.808594 166.355469 143.382812 166.398438 C 142.4375 166.402344 142.429688 167.875 143.382812 167.867188 C 147.808594 167.832031 152.242188 167.9375 156.660156 168.1875 C 157.605469 168.246094 157.605469 166.773438 156.660156 166.71875 Z M 156.660156 166.71875 " fill-opacity="1" fill-rule="nonzero"/><path fill="#ce9352" d="M 240.890625 160.609375 C 239.058594 159.40625 237.207031 158.242188 235.332031 157.109375 C 236.992188 155.953125 238.65625 154.804688 240.339844 153.6875 C 241.125 153.160156 240.390625 151.886719 239.597656 152.410156 C 237.703125 153.679688 235.824219 154.972656 233.957031 156.28125 C 231.871094 155.050781 229.761719 153.859375 227.621094 152.726562 C 226.789062 152.285156 226.039062 153.550781 226.878906 154 C 228.816406 155.03125 230.730469 156.109375 232.628906 157.214844 C 230.0625 159.035156 227.523438 160.894531 225.019531 162.800781 C 224.277344 163.367188 225.003906 164.640625 225.761719 164.074219 C 228.472656 162.007812 231.230469 160 234.019531 158.03125 C 236.089844 159.269531 238.136719 160.550781 240.152344 161.882812 C 240.941406 162.398438 241.683594 161.125 240.890625 160.609375 Z M 240.890625 160.609375 " fill-opacity="1" fill-rule="nonzero"/><path fill="#ce9352" d="M 240.84375 164.589844 C 235.992188 164.402344 231.136719 164.652344 226.328125 165.320312 C 225.929688 165.375 225.71875 165.878906 225.816406 166.222656 C 225.929688 166.648438 226.328125 166.789062 226.71875 166.734375 C 231.394531 166.089844 236.125 165.871094 240.84375 166.0625 C 241.789062 166.097656 241.789062 164.625 240.84375 164.589844 Z M 240.84375 164.589844 " fill-opacity="1" fill-rule="nonzero"/><path fill="#ce9352" d="M 118.25 158.5 C 116.328125 158.984375 114.375 159.355469 112.402344 159.59375 C 112.011719 159.640625 111.667969 159.894531 111.667969 160.328125 C 111.667969 160.691406 112.003906 161.113281 112.402344 161.0625 C 114.5 160.8125 116.585938 160.433594 118.640625 159.921875 C 119.558594 159.691406 119.171875 158.269531 118.25 158.5 Z M 118.25 158.5 " fill-opacity="1" fill-rule="nonzero"/><path fill="#ce9352" d="M 129.289062 157.597656 C 127.621094 157.675781 125.957031 157.746094 124.285156 157.824219 C 123.886719 157.84375 123.550781 158.152344 123.550781 158.558594 C 123.550781 158.941406 123.886719 159.3125 124.285156 159.292969 C 125.957031 159.214844 127.621094 159.144531 129.289062 159.070312 C 129.691406 159.046875 130.023438 158.738281 130.023438 158.332031 C 130.023438 157.949219 129.691406 157.578125 129.289062 157.597656 Z M 129.289062 157.597656 " fill-opacity="1" fill-rule="nonzero"/><path fill="#ce9352" d="M 140.632812 157.507812 C 139.121094 157.339844 137.613281 157.25 136.09375 157.242188 C 135.710938 157.242188 135.339844 157.585938 135.359375 157.976562 C 135.382812 158.375 135.683594 158.710938 136.09375 158.710938 C 137.613281 158.71875 139.128906 158.808594 140.632812 158.976562 C 141.015625 159.019531 141.382812 158.605469 141.367188 158.242188 C 141.351562 157.800781 141.046875 157.550781 140.632812 157.507812 Z M 140.632812 157.507812 " fill-opacity="1" fill-rule="nonzero"/><path fill="#ce9352" d="M 162.308594 157.15625 C 161.792969 157.15625 161.28125 157.136719 160.765625 157.09375 C 160.519531 157.074219 160.269531 157.050781 160.023438 157.023438 C 159.898438 157.011719 159.777344 156.996094 159.652344 156.984375 C 159.835938 157.011719 159.609375 156.976562 159.570312 156.96875 C 159.5 156.960938 159.429688 156.949219 159.351562 156.933594 C 159.148438 156.90625 158.96875 156.898438 158.785156 157.011719 C 158.632812 157.101562 158.484375 157.277344 158.449219 157.453125 C 158.371094 157.800781 158.554688 158.292969 158.960938 158.355469 C 160.066406 158.523438 161.175781 158.621094 162.296875 158.628906 C 162.679688 158.628906 163.050781 158.285156 163.03125 157.890625 C 163.03125 157.492188 162.722656 157.164062 162.308594 157.15625 Z M 162.308594 157.15625 " fill-opacity="1" fill-rule="nonzero"/><path fill="#ce9352" d="M 172.378906 156.773438 L 168.183594 156.773438 C 167.800781 156.773438 167.429688 157.109375 167.449219 157.507812 C 167.46875 157.90625 167.769531 158.242188 168.183594 158.242188 L 172.378906 158.242188 C 172.765625 158.242188 173.132812 157.90625 173.113281 157.507812 C 173.09375 157.109375 172.785156 156.773438 172.378906 156.773438 Z M 172.378906 156.773438 " fill-opacity="1" fill-rule="nonzero"/><path fill="#ce9352" d="M 182.042969 156.316406 C 180.21875 156.394531 178.394531 156.472656 176.566406 156.546875 C 176.167969 156.5625 175.832031 156.878906 175.832031 157.285156 C 175.832031 157.667969 176.167969 158.039062 176.566406 158.019531 C 178.394531 157.941406 180.21875 157.863281 182.042969 157.789062 C 182.441406 157.773438 182.777344 157.457031 182.777344 157.050781 C 182.777344 156.667969 182.441406 156.296875 182.042969 156.316406 Z M 182.042969 156.316406 " fill-opacity="1" fill-rule="nonzero"/><path fill="#ce9352" d="M 204.859375 156.578125 C 203.035156 156.484375 201.210938 156.394531 199.390625 156.296875 C 198.992188 156.277344 198.628906 156.554688 198.59375 156.960938 C 198.558594 157.347656 198.859375 157.746094 199.257812 157.757812 C 201.082031 157.851562 202.910156 157.941406 204.726562 158.039062 C 205.125 158.058594 205.488281 157.78125 205.523438 157.375 C 205.558594 156.988281 205.257812 156.589844 204.859375 156.578125 Z M 204.859375 156.578125 " fill-opacity="1" fill-rule="nonzero"/><path fill="#ce9352" d="M 195.0625 156.546875 C 192.664062 156.34375 190.253906 156.277344 187.839844 156.324219 C 186.894531 156.34375 186.890625 157.816406 187.839844 157.792969 C 190.253906 157.738281 192.65625 157.816406 195.0625 158.019531 C 195.460938 158.054688 195.796875 157.65625 195.796875 157.285156 C 195.796875 156.855469 195.453125 156.582031 195.0625 156.546875 Z M 195.0625 156.546875 " fill-opacity="1" fill-rule="nonzero"/><path fill="#ce9352" d="M 213.832031 156.675781 C 212.238281 156.589844 210.648438 156.511719 209.054688 156.429688 C 208.671875 156.410156 208.300781 156.78125 208.320312 157.164062 C 208.34375 157.578125 208.644531 157.878906 209.054688 157.898438 C 210.648438 157.984375 212.238281 158.058594 213.832031 158.144531 C 214.214844 158.164062 214.585938 157.792969 214.566406 157.410156 C 214.542969 156.996094 214.242188 156.695312 213.832031 156.675781 Z M 213.832031 156.675781 " fill-opacity="1" fill-rule="nonzero"/><path fill="#ce9352" d="M 224.628906 157.410156 L 220.921875 157.410156 C 220.3125 157.410156 219.726562 157.691406 219.753906 158.027344 C 219.78125 158.355469 220.265625 158.640625 220.921875 158.640625 L 224.628906 158.640625 C 225.234375 158.640625 225.824219 158.363281 225.796875 158.027344 C 225.765625 157.691406 225.277344 157.410156 224.628906 157.410156 Z M 224.628906 157.410156 " fill-opacity="1" fill-rule="nonzero"/><path fill="#ce9352" d="M 246.71875 156.605469 C 245.242188 156.648438 243.765625 156.613281 242.289062 156.484375 C 241.90625 156.449219 241.535156 156.847656 241.558594 157.21875 C 241.578125 157.648438 241.878906 157.921875 242.289062 157.957031 C 243.757812 158.074219 245.242188 158.117188 246.71875 158.074219 C 247.101562 158.058594 247.472656 157.746094 247.453125 157.339844 C 247.429688 156.949219 247.121094 156.589844 246.71875 156.605469 Z M 246.71875 156.605469 " fill-opacity="1" fill-rule="nonzero"/><path fill="#ce9352" d="M 255.519531 156.527344 C 253.933594 156.445312 252.339844 156.421875 250.746094 156.480469 C 250.359375 156.492188 249.988281 156.808594 250.011719 157.214844 C 250.023438 157.597656 250.332031 157.960938 250.746094 157.949219 C 252.339844 157.898438 253.925781 157.914062 255.519531 157.996094 C 255.90625 158.019531 256.277344 157.648438 256.253906 157.261719 C 256.234375 156.847656 255.925781 156.546875 255.519531 156.527344 Z M 255.519531 156.527344 " fill-opacity="1" fill-rule="nonzero"/><path fill="#ce9352" d="M 264.367188 156.917969 L 260.058594 156.660156 C 259.675781 156.640625 259.304688 157.015625 259.324219 157.394531 C 259.347656 157.816406 259.644531 158.109375 260.058594 158.128906 L 264.367188 158.390625 C 264.75 158.410156 265.121094 158.03125 265.101562 157.65625 C 265.085938 157.242188 264.777344 156.949219 264.367188 156.917969 Z M 264.367188 156.917969 " fill-opacity="1" fill-rule="nonzero"/><path fill="#ce9352" d="M 265.554688 351.4375 C 263.800781 340.660156 262.542969 329.796875 261.792969 318.898438 C 261.046875 308.011719 260.792969 297.09375 261.046875 286.1875 C 261.191406 280.015625 261.5 273.839844 261.960938 267.679688 C 262.03125 266.738281 260.5625 266.742188 260.492188 267.679688 C 259.667969 278.644531 259.347656 289.640625 259.535156 300.628906 C 259.722656 311.617188 260.429688 322.59375 261.632812 333.519531 C 262.3125 339.644531 263.148438 345.753906 264.136719 351.832031 C 264.289062 352.761719 265.710938 352.363281 265.554688 351.4375 Z M 265.554688 351.4375 " fill-opacity="1" fill-rule="nonzero"/><path fill="#ce9352" d="M 145.375 350.957031 C 136.933594 350.109375 128.492188 349.261719 120.054688 348.414062 C 119.003906 348.308594 117.957031 348.203125 116.90625 348.101562 C 116.382812 348.042969 115.859375 347.996094 115.332031 347.9375 C 114.921875 347.898438 114.285156 347.953125 113.914062 347.75 C 113.578125 347.566406 113.632812 347.121094 113.632812 346.777344 C 113.640625 346.257812 113.65625 345.734375 113.667969 345.214844 C 113.699219 344.136719 113.730469 343.054688 113.78125 341.976562 C 113.957031 337.808594 114.269531 333.660156 114.726562 329.515625 C 115.234375 324.804688 115.933594 320.109375 116.796875 315.445312 C 116.96875 314.523438 115.550781 314.125 115.375 315.054688 C 113.773438 323.707031 112.753906 332.460938 112.339844 341.253906 C 112.292969 342.375 112.25 343.492188 112.214844 344.613281 C 112.1875 345.585938 112.0625 346.621094 112.214844 347.589844 C 112.347656 348.464844 112.921875 349.074219 113.796875 349.242188 C 114.851562 349.449219 115.964844 349.480469 117.03125 349.582031 C 121.472656 350.03125 125.921875 350.472656 130.359375 350.921875 C 135.367188 351.425781 140.375 351.929688 145.378906 352.433594 C 146.3125 352.515625 146.304688 351.046875 145.375 350.957031 Z M 145.375 350.957031 " fill-opacity="1" fill-rule="nonzero"/><path fill="#ce9352" d="M 164.5625 193.90625 C 114.71875 217.613281 131.816406 297.078125 162.625 312.484375 C 171.734375 317.042969 190.027344 319.078125 202.347656 315.875 C 221.367188 310.917969 240.367188 289.367188 241.117188 262.535156 C 243.359375 182.355469 179.785156 186.667969 164.5625 193.90625 Z M 164.5625 193.90625 " fill-opacity="1" fill-rule="nonzero"/><path fill="#f6f5df" d="M 175.203125 236.882812 C 175.203125 240.703125 172.855469 245.5625 168.492188 245.5625 C 162.757812 245.5625 161.359375 235.546875 161.359375 231.285156 C 161.359375 226.859375 161.757812 216.578125 168 216.578125 C 172.855469 216.578125 174.960938 223.617188 174.960938 227.539062 C 174.960938 229.394531 173.882812 229.714844 172.265625 229.714844 C 170.785156 229.714844 169.308594 229.601562 167.832031 229.601562 C 166.625 229.601562 165.234375 229.890625 165.234375 231.394531 C 165.234375 232.191406 165.371094 232.984375 165.464844 233.769531 C 165.695312 235.742188 165.644531 242.046875 168.539062 242.046875 C 171.40625 242.046875 170.371094 236.667969 171.21875 236.140625 C 171.546875 235.9375 171.945312 235.917969 172.316406 235.917969 C 173.070312 235.917969 173.828125 236.050781 174.582031 236.050781 L 174.757812 236.042969 C 175.164062 236.128906 175.203125 236.546875 175.203125 236.882812 Z M 165.707031 225.3125 C 165.667969 225.613281 165.609375 225.921875 165.609375 226.230469 C 165.609375 226.675781 166.476562 226.710938 166.785156 226.710938 C 167.832031 226.710938 168.847656 226.398438 169.882812 226.25 C 170.601562 226.144531 171.199219 226.152344 171.199219 225.234375 C 171.199219 223.546875 169.722656 219.984375 167.722656 219.984375 C 165.722656 219.984375 165.707031 222.960938 165.707031 224.359375 Z M 165.707031 225.3125 " fill-opacity="1" fill-rule="nonzero"/><path fill="#f6f5df" d="M 187.742188 210.835938 C 191.363281 213.050781 191.921875 220.769531 191.921875 224.621094 C 191.921875 225.097656 191.910156 225.570312 191.886719 226.054688 C 191.273438 226.035156 190.65625 226.074219 190.035156 226.074219 C 188.992188 226.074219 188.839844 226.003906 188.566406 224.984375 C 187.855469 222.378906 189.125 213.988281 184.910156 213.988281 C 181.460938 213.988281 181.476562 221.359375 181.476562 223.710938 C 181.476562 225.1875 181.566406 226.65625 181.566406 228.125 C 181.566406 231.121094 181.238281 246.023438 185.457031 246.023438 C 186.734375 246.023438 187.609375 244.386719 187.855469 243.316406 C 188.097656 242.25 187.910156 241.140625 188.1875 240.082031 C 188.476562 239.011719 188.53125 239.15625 189.554688 239.109375 C 190.28125 239.066406 191.007812 238.953125 191.726562 238.828125 C 191.519531 241.867188 191.65625 245.492188 189.574219 247.964844 C 188.636719 249.070312 187.265625 249.851562 185.796875 249.851562 C 184.609375 249.851562 183.460938 249.34375 182.601562 248.53125 C 178.324219 244.46875 178.21875 236.113281 178.21875 230.597656 C 178.21875 226.78125 178.183594 222.960938 178.519531 219.160156 C 178.882812 215.03125 180.085938 210.136719 185.167969 210.136719 C 186.054688 210.144531 186.957031 210.375 187.742188 210.835938 Z M 187.742188 210.835938 " fill-opacity="1" fill-rule="nonzero"/><path fill="#f6f5df" d="M 196.449219 229.757812 C 196.449219 224.039062 199.273438 216.808594 205.984375 216.808594 C 213.339844 216.808594 215.171875 224.277344 215.171875 230.261719 C 215.171875 236.027344 213.207031 245.101562 205.894531 245.101562 C 198.222656 245.101562 196.449219 235.761719 196.449219 229.757812 Z M 205.992188 220.28125 C 200.859375 220.28125 199.882812 226.125 199.882812 230.128906 C 199.882812 234.328125 200.113281 241.710938 205.910156 241.710938 C 211.179688 241.710938 211.992188 233.957031 211.992188 230.066406 C 211.984375 226.507812 210.503906 220.28125 205.992188 220.28125 Z M 205.992188 220.28125 " fill-opacity="1" fill-rule="nonzero"/><path fill="#f6f5df" d="M 171.839844 288.449219 C 173.796875 289.324219 176.175781 291.597656 176.175781 293.886719 C 176.175781 298.703125 166.925781 298.648438 163.667969 298.648438 C 162.835938 298.648438 162.910156 298.066406 162.839844 297.378906 C 162.757812 296.570312 162.742188 295.75 162.742188 294.9375 C 162.742188 289.21875 162.660156 283.5 162.660156 277.78125 C 162.660156 275.632812 162.738281 273.484375 162.671875 271.335938 C 162.652344 270.683594 162.546875 270.046875 162.546875 269.394531 C 162.546875 268.171875 163.007812 267.625 164.269531 267.625 C 165.601562 267.625 167.582031 268.332031 168.722656 269.039062 C 172.042969 271.105469 173.191406 275.648438 173.191406 279.335938 C 173.191406 282.75 172.414062 284.179688 170.371094 286.785156 C 170.300781 286.875 169.742188 287.320312 169.742188 287.371094 C 169.75 287.910156 171.414062 288.28125 171.839844 288.449219 Z M 166.070312 285.039062 C 166.03125 285.125 165.980469 285.25 165.980469 285.347656 C 165.980469 285.453125 166.015625 285.550781 166.070312 285.636719 C 166.140625 285.648438 166.226562 285.683594 166.296875 285.683594 C 167.414062 285.683594 169.050781 282.03125 169.253906 281.03125 C 169.378906 280.414062 169.433594 279.785156 169.433594 279.160156 C 169.433594 277.199219 168.847656 275.253906 167.644531 273.695312 C 167.335938 273.296875 166.535156 272.148438 166.023438 272.148438 C 165.792969 272.148438 165.792969 272.832031 165.792969 272.960938 C 165.792969 274.085938 166.035156 275.191406 166.035156 276.324219 C 166.035156 277.738281 165.945312 279.152344 165.996094 280.566406 C 166.035156 281.617188 166.246094 282.652344 166.246094 283.710938 C 166.238281 284.152344 166.199219 284.605469 166.070312 285.039062 Z M 171.097656 292.976562 C 171.097656 291.121094 168.308594 290.359375 166.820312 290.359375 C 166.175781 290.359375 166.148438 290.785156 166.148438 291.324219 C 166.148438 292.382812 166.050781 293.433594 166.050781 294.476562 C 166.050781 295.121094 166.246094 295.519531 166.953125 295.519531 C 167.191406 295.519531 167.433594 295.476562 167.667969 295.429688 C 169.007812 295.125 171.097656 294.75 171.097656 292.976562 Z M 171.097656 292.976562 " fill-opacity="1" fill-rule="nonzero"/><path fill="#f6f5df" d="M 193.46875 287.757812 C 193.46875 291.488281 193.335938 295.21875 193.335938 298.957031 C 193.335938 301.300781 193.683594 302.511719 190.734375 302.511719 C 184.964844 302.511719 180.9375 299.773438 180.9375 293.65625 C 180.9375 290.96875 182.371094 288.363281 185.355469 288.363281 C 186.917969 288.363281 188.351562 289.625 189.476562 289.625 C 189.558594 289.625 189.652344 289.625 189.691406 289.582031 C 189.691406 285.808594 189.699219 271.523438 187.875 269.011719 C 187.363281 268.3125 186.617188 267.667969 185.664062 267.667969 C 183.628906 267.667969 182.414062 269.878906 182.414062 271.707031 C 182.414062 273.226562 182.457031 273.546875 180.8125 273.699219 C 180.636719 273.714844 180.460938 273.699219 180.292969 273.699219 C 179.601562 273.699219 178.167969 273.742188 178.167969 272.699219 C 178.167969 268.835938 182.636719 264.0625 186.582031 264.0625 C 191.957031 264.0625 192.519531 272.308594 192.910156 276.214844 C 193.335938 280.027344 193.46875 283.890625 193.46875 287.757812 Z M 189.21875 299.082031 C 190.042969 299.082031 190.167969 298.171875 190.167969 297.519531 C 190.167969 296.4375 189.820312 295.394531 189.820312 294.308594 C 189.820312 292.3125 189.210938 291.835938 187.257812 291.835938 C 185.742188 291.835938 184.742188 293.007812 184.742188 294.484375 C 184.742188 296.609375 186.34375 299.082031 188.644531 299.082031 Z M 189.21875 299.082031 " fill-opacity="1" fill-rule="nonzero"/><path fill="#f6f5df" d="M 212.496094 263.789062 C 213.335938 263.914062 213.480469 265 213.480469 265.679688 C 213.480469 266.671875 212.914062 267.207031 211.929688 267.207031 C 211.382812 267.207031 210.839844 267.140625 210.292969 267.085938 C 210.90625 270.101562 210.859375 273.195312 211.007812 276.257812 C 211.195312 280.121094 211.3125 283.984375 211.3125 287.847656 C 211.3125 291.703125 211.277344 302.519531 205.664062 302.519531 C 203.503906 302.519531 201.503906 301.328125 200.078125 299.765625 C 199 298.589844 197.523438 296.289062 197.523438 294.652344 C 197.523438 293.539062 197.859375 293.621094 198.789062 293.480469 C 199.53125 293.371094 200.265625 293.1875 201.015625 293.1875 L 201.160156 293.207031 C 201.957031 294 201.089844 299.054688 204.839844 299.054688 C 208.488281 299.054688 207.894531 290.640625 207.894531 288.335938 C 207.894531 286.984375 207.972656 285.636719 207.972656 284.285156 C 207.972656 283.5625 207.976562 279.832031 206.992188 279.832031 C 206.691406 279.832031 205.613281 280.589844 204.761719 280.589844 C 199.914062 280.589844 198.875 276.90625 198.875 272.792969 C 198.875 265.230469 203.742188 263.777344 210.273438 263.777344 Z M 207.375 270.683594 C 207.398438 270.152344 207.46875 269.621094 207.46875 269.082031 C 207.46875 268.199219 207.230469 267.367188 206.179688 267.367188 C 202.949219 267.367188 202.347656 270.207031 202.347656 272.855469 C 202.347656 274.722656 202.777344 277.726562 205.214844 277.726562 C 207.210938 277.726562 207.574219 276.011719 207.574219 274.378906 C 207.574219 273.140625 207.390625 271.917969 207.375 270.683594 Z M 207.375 270.683594 " fill-opacity="1" fill-rule="nonzero"/></svg>