<svg xmlns="http://www.w3.org/2000/svg" xmlns:xlink="http://www.w3.org/1999/xlink" width="1080" zoomAndPan="magnify" viewBox="0 0 810 809.999993" height="1080" preserveAspectRatio="xMidYMid meet" version="1.0"><defs><g/><clipPath id="e773b28438"><path d="M 17.085938 226.125 L 512.085938 226.125 L 512.085938 583.875 L 17.085938 583.875 Z M 17.085938 226.125 " clip-rule="nonzero"/></clipPath><clipPath id="ae0d4f9749"><rect x="0" width="405" y="0" height="172"/></clipPath><clipPath id="db40bd9310"><rect x="0" width="305" y="0" height="171"/></clipPath></defs><g clip-path="url(#e773b28438)"><path fill="#000000" d="M 512.085938 257.730469 C 512.070312 256.6875 512 255.644531 511.882812 254.609375 C 511.765625 253.574219 511.597656 252.542969 511.375 251.523438 C 511.15625 250.503906 510.886719 249.496094 510.570312 248.503906 C 510.253906 247.507812 509.886719 246.53125 509.472656 245.574219 C 509.058594 244.617188 508.597656 243.679688 508.09375 242.769531 C 507.585938 241.855469 507.039062 240.96875 506.445312 240.109375 C 505.851562 239.25 505.21875 238.421875 504.546875 237.625 C 503.871094 236.828125 503.160156 236.066406 502.410156 235.339844 C 501.664062 234.613281 500.882812 233.925781 500.066406 233.277344 C 499.25 232.625 498.402344 232.015625 497.527344 231.449219 C 496.652344 230.882812 495.75 230.359375 494.820312 229.882812 C 493.894531 229.402344 492.945312 228.972656 491.976562 228.585938 C 491.007812 228.199219 490.019531 227.863281 489.019531 227.574219 C 488.015625 227.285156 487 227.046875 485.976562 226.859375 C 484.949219 226.667969 483.917969 226.53125 482.878906 226.445312 C 481.835938 226.355469 480.796875 226.320312 479.753906 226.335938 L 185.523438 226.335938 C 91.636719 226.335938 17.136719 307.863281 17.136719 404.941406 C 17.136719 502.015625 91.636719 583.546875 185.523438 583.546875 L 479.753906 583.546875 C 480.804688 583.5625 481.859375 583.523438 482.90625 583.433594 C 483.957031 583.34375 485 583.203125 486.035156 583.011719 C 487.074219 582.816406 488.097656 582.574219 489.109375 582.28125 C 490.121094 581.984375 491.117188 581.640625 492.09375 581.25 C 493.070312 580.855469 494.027344 580.414062 494.960938 579.925781 C 495.894531 579.441406 496.800781 578.90625 497.683594 578.328125 C 498.566406 577.75 499.414062 577.132812 500.234375 576.46875 C 501.054688 575.808594 501.839844 575.105469 502.589844 574.367188 C 503.339844 573.625 504.054688 572.851562 504.726562 572.039062 C 505.398438 571.230469 506.03125 570.386719 506.621094 569.511719 C 507.210938 568.640625 507.757812 567.738281 508.257812 566.8125 C 508.757812 565.886719 509.210938 564.933594 509.621094 563.960938 C 510.027344 562.992188 510.382812 562 510.691406 560.992188 C 511 559.984375 511.257812 558.964844 511.464844 557.929688 C 511.671875 556.898438 511.828125 555.855469 511.933594 554.808594 C 512.039062 553.757812 512.089844 552.707031 512.089844 551.652344 C 512.089844 550.597656 512.039062 549.546875 511.933594 548.496094 C 511.828125 547.449219 511.671875 546.40625 511.464844 545.375 C 511.257812 544.339844 511 543.320312 510.691406 542.3125 C 510.382812 541.304688 510.027344 540.3125 509.621094 539.34375 C 509.210938 538.371094 508.757812 537.417969 508.257812 536.492188 C 507.757812 535.566406 507.210938 534.664062 506.621094 533.792969 C 506.03125 532.917969 505.398438 532.074219 504.726562 531.265625 C 504.054688 530.453125 503.339844 529.679688 502.589844 528.9375 C 501.839844 528.199219 501.054688 527.496094 500.234375 526.835938 C 499.414062 526.171875 498.566406 525.554688 497.683594 524.976562 C 496.800781 524.398438 495.894531 523.863281 494.960938 523.375 C 494.027344 522.890625 493.070312 522.449219 492.09375 522.054688 C 491.117188 521.664062 490.121094 521.320312 489.109375 521.023438 C 488.097656 520.730469 487.074219 520.488281 486.035156 520.292969 C 485 520.101562 483.957031 519.960938 482.90625 519.871094 C 481.859375 519.78125 480.804688 519.742188 479.753906 519.757812 L 185.523438 519.757812 C 128.667969 519.757812 80.90625 469.9375 80.90625 404.941406 C 80.90625 339.945312 128.667969 290.121094 185.523438 290.121094 L 479.753906 290.121094 C 480.816406 290.136719 481.878906 290.097656 482.9375 290.007812 C 484 289.917969 485.050781 289.773438 486.097656 289.574219 C 487.144531 289.378906 488.175781 289.128906 489.199219 288.828125 C 490.21875 288.53125 491.222656 288.179688 492.207031 287.777344 C 493.195312 287.378906 494.15625 286.929688 495.097656 286.429688 C 496.039062 285.933594 496.953125 285.390625 497.839844 284.800781 C 498.726562 284.214844 499.582031 283.582031 500.402344 282.90625 C 501.226562 282.234375 502.015625 281.519531 502.765625 280.765625 C 503.519531 280.011719 504.230469 279.222656 504.902344 278.398438 C 505.578125 277.574219 506.207031 276.71875 506.792969 275.832031 C 507.382812 274.941406 507.921875 274.027344 508.417969 273.085938 C 508.914062 272.144531 509.363281 271.179688 509.761719 270.191406 C 510.160156 269.207031 510.507812 268.203125 510.808594 267.179688 C 511.105469 266.160156 511.351562 265.125 511.546875 264.078125 C 511.742188 263.03125 511.886719 261.976562 511.976562 260.917969 C 512.066406 259.855469 512.101562 258.792969 512.085938 257.730469 Z M 512.085938 257.730469 " fill-opacity="1" fill-rule="nonzero"/></g><g transform="matrix(1, 0, 0, 1, 122, 319)"><g clip-path="url(#ae0d4f9749)"><g fill="#000000" fill-opacity="1"><g transform="translate(1.673085, 126.270255)"><g><path d="M 23.96875 0 L 0.109375 -81.875 L 35.3125 -81.875 L 39.171875 -62.453125 L 43.15625 -44.90625 L 44.203125 -44.90625 L 48.296875 -62.453125 L 52.28125 -81.875 L 86.421875 -81.875 L 90.515625 -62.453125 L 94.734375 -44.671875 L 95.78125 -44.671875 L 99.640625 -62.453125 L 103.5 -81.875 L 138.703125 -81.875 L 114.734375 0 L 78.46875 0 L 74.265625 -18.25 L 69.9375 -36.015625 L 68.890625 -36.015625 L 64.5625 -18.25 L 60.34375 0 Z M 23.96875 0 "/></g></g></g><g fill="#000000" fill-opacity="1"><g transform="translate(127.855336, 126.270255)"><g><path d="M 48.296875 1.640625 C 39.097656 1.640625 31.03125 -0.171875 24.09375 -3.796875 C 17.15625 -7.421875 11.773438 -12.429688 7.953125 -18.828125 C 4.128906 -25.222656 2.21875 -32.59375 2.21875 -40.9375 C 2.21875 -49.28125 4.128906 -56.644531 7.953125 -63.03125 C 11.773438 -69.425781 17.15625 -74.4375 24.09375 -78.0625 C 31.03125 -81.6875 39.097656 -83.5 48.296875 -83.5 C 57.578125 -83.5 65.664062 -81.6875 72.5625 -78.0625 C 79.46875 -74.4375 84.828125 -69.425781 88.640625 -63.03125 C 92.460938 -56.644531 94.375 -49.28125 94.375 -40.9375 C 94.375 -32.59375 92.460938 -25.222656 88.640625 -18.828125 C 84.828125 -12.429688 79.46875 -7.421875 72.5625 -3.796875 C 65.664062 -0.171875 57.578125 1.640625 48.296875 1.640625 Z M 35.546875 -40.9375 C 35.546875 -37.113281 36.734375 -34.007812 39.109375 -31.625 C 41.492188 -29.25 44.554688 -28.0625 48.296875 -28.0625 C 52.046875 -28.0625 55.109375 -29.25 57.484375 -31.625 C 59.859375 -34.007812 61.046875 -37.113281 61.046875 -40.9375 C 61.046875 -44.757812 59.859375 -47.859375 57.484375 -50.234375 C 55.109375 -52.609375 52.046875 -53.796875 48.296875 -53.796875 C 44.554688 -53.796875 41.492188 -52.609375 39.109375 -50.234375 C 36.734375 -47.859375 35.546875 -44.757812 35.546875 -40.9375 Z M 35.546875 -40.9375 "/></g></g></g><g fill="#000000" fill-opacity="1"><g transform="translate(216.264646, 126.270255)"><g><path d="M 5.734375 0 L 5.734375 -81.875 L 50.0625 -81.875 C 57.3125 -81.875 63.523438 -80.625 68.703125 -78.125 C 73.890625 -75.625 77.882812 -72.09375 80.6875 -67.53125 C 83.5 -62.976562 84.90625 -57.503906 84.90625 -51.109375 C 84.90625 -46.035156 84.007812 -41.507812 82.21875 -37.53125 C 80.425781 -33.5625 77.8125 -30.210938 74.375 -27.484375 L 86.65625 0 L 51.109375 0 L 43.390625 -20.34375 L 38.59375 -20.34375 L 38.59375 0 Z M 38.125 -43.03125 L 43.734375 -43.03125 C 46.234375 -43.03125 48.179688 -43.65625 49.578125 -44.90625 C 50.984375 -46.15625 51.6875 -47.988281 51.6875 -50.40625 C 51.6875 -52.90625 50.984375 -54.738281 49.578125 -55.90625 C 48.179688 -57.070312 46.234375 -57.65625 43.734375 -57.65625 L 38.125 -57.65625 Z M 38.125 -43.03125 "/></g></g></g><g fill="#000000" fill-opacity="1"><g transform="translate(297.18945, 126.270255)"><g><path d="M 5.734375 0 L 5.734375 -81.875 L 32.75 -81.875 L 56.015625 -52.390625 L 79.171875 -81.875 L 106.1875 -81.875 L 106.1875 0 L 74.03125 0 L 74.03125 -16.25 L 74.734375 -30.0625 L 73.6875 -30.296875 L 63.734375 -16.25 L 48.296875 -16.25 L 38.25 -30.296875 L 37.3125 -30.171875 L 37.890625 -16.25 L 37.890625 0 Z M 5.734375 0 "/></g></g></g></g></g><g transform="matrix(1, 0, 0, 1, 490, 320)"><g clip-path="url(#db40bd9310)"><g fill="#000000" fill-opacity="1"><g transform="translate(0.76051, 124.980184)"><g><path d="M 51.890625 0 L 51.890625 -26.640625 L 39.140625 -26.640625 L 39.140625 0 L 5.71875 0 L 5.71875 -81.796875 L 39.140625 -81.796875 L 39.140625 -56.5625 L 51.890625 -56.5625 L 51.890625 -81.796875 L 85.3125 -81.796875 L 85.3125 0 Z M 51.890625 0 "/></g></g></g><g fill="#000000" fill-opacity="1"><g transform="translate(83.605134, 124.980184)"><g><path d="M 48.265625 1.640625 C 39.066406 1.640625 31 -0.171875 24.0625 -3.796875 C 17.132812 -7.421875 11.757812 -12.425781 7.9375 -18.8125 C 4.125 -25.195312 2.21875 -32.5625 2.21875 -40.90625 C 2.21875 -49.238281 4.125 -56.597656 7.9375 -62.984375 C 11.757812 -69.367188 17.132812 -74.375 24.0625 -78 C 31 -81.625 39.066406 -83.4375 48.265625 -83.4375 C 57.535156 -83.4375 65.617188 -81.625 72.515625 -78 C 79.410156 -74.375 84.765625 -69.367188 88.578125 -62.984375 C 92.398438 -56.597656 94.3125 -49.238281 94.3125 -40.90625 C 94.3125 -32.5625 92.398438 -25.195312 88.578125 -18.8125 C 84.765625 -12.425781 79.410156 -7.421875 72.515625 -3.796875 C 65.617188 -0.171875 57.535156 1.640625 48.265625 1.640625 Z M 35.53125 -40.90625 C 35.53125 -37.082031 36.71875 -33.984375 39.09375 -31.609375 C 41.46875 -29.234375 44.523438 -28.046875 48.265625 -28.046875 C 52.003906 -28.046875 55.0625 -29.234375 57.4375 -31.609375 C 59.8125 -33.984375 61 -37.082031 61 -40.90625 C 61 -44.71875 59.8125 -47.8125 57.4375 -50.1875 C 55.0625 -52.5625 52.003906 -53.75 48.265625 -53.75 C 44.523438 -53.75 41.46875 -52.5625 39.09375 -50.1875 C 36.71875 -47.8125 35.53125 -44.71875 35.53125 -40.90625 Z M 35.53125 -40.90625 "/></g></g></g><g fill="#000000" fill-opacity="1"><g transform="translate(171.94161, 124.980184)"><g><path d="M 5.71875 0 L 5.71875 -81.796875 L 39.140625 -81.796875 L 39.140625 -30.03125 L 67.78125 -30.03125 L 67.78125 0 Z M 5.71875 0 "/></g></g></g><g fill="#000000" fill-opacity="1"><g transform="translate(234.337852, 124.980184)"><g><path d="M 5.71875 0 L 5.71875 -81.796875 L 68.015625 -81.796875 L 68.015625 -59.25 L 37.625 -59.25 L 37.625 -51.890625 L 65.203125 -51.890625 L 65.203125 -30.5 L 37.625 -30.5 L 37.625 -22.90625 L 68.953125 -22.90625 L 68.953125 0 Z M 5.71875 0 "/></g></g></g></g></g></svg>