<svg xmlns="http://www.w3.org/2000/svg" xmlns:xlink="http://www.w3.org/1999/xlink" width="1080" zoomAndPan="magnify" viewBox="0 0 810 809.999993" height="1080" preserveAspectRatio="xMidYMid meet" version="1.0"><defs><g/><clipPath id="2bf2b0e47e"><path d="M 17.085938 226.125 L 512.085938 226.125 L 512.085938 583.875 L 17.085938 583.875 Z M 17.085938 226.125 " clip-rule="nonzero"/></clipPath><clipPath id="bda9469c6d"><rect x="0" width="405" y="0" height="172"/></clipPath><clipPath id="f37ed3f466"><rect x="0" width="305" y="0" height="171"/></clipPath></defs><g clip-path="url(#2bf2b0e47e)"><path fill="#ffffff" d="M 512.085938 257.730469 C 512.070312 256.683594 512 255.644531 511.882812 254.609375 C 511.765625 253.570312 511.59375 252.542969 511.375 251.523438 C 511.15625 250.503906 510.886719 249.496094 510.570312 248.5 C 510.25 247.507812 509.886719 246.53125 509.472656 245.574219 C 509.058594 244.617188 508.597656 243.679688 508.089844 242.765625 C 507.585938 241.855469 507.035156 240.96875 506.445312 240.109375 C 505.851562 239.25 505.21875 238.421875 504.542969 237.625 C 503.871094 236.828125 503.15625 236.066406 502.410156 235.339844 C 501.660156 234.613281 500.878906 233.925781 500.0625 233.273438 C 499.246094 232.625 498.398438 232.015625 497.523438 231.449219 C 496.644531 230.882812 495.746094 230.359375 494.816406 229.882812 C 493.890625 229.402344 492.941406 228.972656 491.972656 228.585938 C 491 228.199219 490.015625 227.863281 489.011719 227.574219 C 488.007812 227.285156 486.996094 227.046875 485.96875 226.859375 C 484.941406 226.667969 483.910156 226.53125 482.867188 226.445312 C 481.828125 226.355469 480.789062 226.320312 479.742188 226.335938 L 185.433594 226.335938 C 91.515625 226.335938 16.996094 307.859375 16.996094 404.933594 C 16.996094 502.007812 91.515625 583.535156 185.433594 583.535156 L 479.742188 583.535156 C 480.796875 583.550781 481.851562 583.511719 482.898438 583.421875 C 483.949219 583.332031 484.992188 583.191406 486.03125 583 C 487.066406 582.804688 488.089844 582.5625 489.101562 582.269531 C 490.113281 581.972656 491.109375 581.628906 492.085938 581.238281 C 493.066406 580.84375 494.023438 580.402344 494.957031 579.917969 C 495.890625 579.429688 496.796875 578.894531 497.679688 578.316406 C 498.5625 577.738281 499.410156 577.121094 500.230469 576.457031 C 501.050781 575.796875 501.835938 575.09375 502.589844 574.355469 C 503.339844 573.613281 504.050781 572.839844 504.722656 572.027344 C 505.398438 571.21875 506.03125 570.375 506.621094 569.503906 C 507.210938 568.628906 507.757812 567.730469 508.257812 566.800781 C 508.757812 565.875 509.210938 564.925781 509.617188 563.953125 C 510.027344 562.980469 510.382812 561.988281 510.691406 560.980469 C 511 559.972656 511.257812 558.953125 511.464844 557.917969 C 511.671875 556.886719 511.828125 555.84375 511.933594 554.796875 C 512.039062 553.746094 512.089844 552.695312 512.089844 551.640625 C 512.089844 550.585938 512.039062 549.535156 511.933594 548.488281 C 511.828125 547.4375 511.671875 546.398438 511.464844 545.363281 C 511.257812 544.332031 511 543.308594 510.691406 542.300781 C 510.382812 541.292969 510.027344 540.304688 509.617188 539.332031 C 509.210938 538.359375 508.757812 537.410156 508.257812 536.480469 C 507.757812 535.554688 507.210938 534.652344 506.621094 533.78125 C 506.03125 532.90625 505.398438 532.066406 504.722656 531.253906 C 504.050781 530.445312 503.339844 529.667969 502.589844 528.929688 C 501.835938 528.1875 501.050781 527.488281 500.230469 526.824219 C 499.410156 526.164062 498.5625 525.542969 497.679688 524.964844 C 496.796875 524.386719 495.890625 523.855469 494.957031 523.367188 C 494.023438 522.878906 493.066406 522.4375 492.085938 522.046875 C 491.109375 521.652344 490.113281 521.308594 489.101562 521.015625 C 488.089844 520.71875 487.066406 520.476562 486.03125 520.285156 C 484.992188 520.089844 483.949219 519.949219 482.898438 519.859375 C 481.851562 519.769531 480.796875 519.734375 479.742188 519.75 L 185.433594 519.75 C 128.558594 519.75 80.785156 469.925781 80.785156 404.933594 C 80.785156 339.941406 128.558594 290.121094 185.433594 290.121094 L 479.742188 290.121094 C 480.808594 290.136719 481.871094 290.097656 482.929688 290.003906 C 483.992188 289.914062 485.042969 289.769531 486.089844 289.574219 C 487.136719 289.375 488.171875 289.128906 489.191406 288.828125 C 490.210938 288.527344 491.214844 288.175781 492.203125 287.777344 C 493.1875 287.375 494.152344 286.925781 495.09375 286.429688 C 496.035156 285.929688 496.949219 285.386719 497.835938 284.800781 C 498.722656 284.210938 499.578125 283.578125 500.402344 282.90625 C 501.222656 282.230469 502.011719 281.515625 502.765625 280.765625 C 503.515625 280.011719 504.230469 279.222656 504.902344 278.398438 C 505.574219 277.574219 506.207031 276.714844 506.792969 275.828125 C 507.378906 274.941406 507.921875 274.027344 508.417969 273.085938 C 508.914062 272.140625 509.359375 271.179688 509.761719 270.191406 C 510.160156 269.203125 510.507812 268.199219 510.808594 267.179688 C 511.105469 266.15625 511.351562 265.125 511.546875 264.078125 C 511.742188 263.03125 511.886719 261.976562 511.976562 260.917969 C 512.066406 259.855469 512.101562 258.792969 512.085938 257.730469 Z M 512.085938 257.730469 " fill-opacity="1" fill-rule="nonzero"/></g><g transform="matrix(1, 0, 0, 1, 122, 319)"><g clip-path="url(#bda9469c6d)"><g fill="#ffffff" fill-opacity="1"><g transform="translate(1.673085, 126.270255)"><g><path d="M 23.96875 0 L 0.109375 -81.875 L 35.3125 -81.875 L 39.171875 -62.453125 L 43.15625 -44.90625 L 44.203125 -44.90625 L 48.296875 -62.453125 L 52.28125 -81.875 L 86.421875 -81.875 L 90.515625 -62.453125 L 94.734375 -44.671875 L 95.78125 -44.671875 L 99.640625 -62.453125 L 103.5 -81.875 L 138.703125 -81.875 L 114.734375 0 L 78.46875 0 L 74.265625 -18.25 L 69.9375 -36.015625 L 68.890625 -36.015625 L 64.5625 -18.25 L 60.34375 0 Z M 23.96875 0 "/></g></g></g><g fill="#ffffff" fill-opacity="1"><g transform="translate(127.855336, 126.270255)"><g><path d="M 48.296875 1.640625 C 39.097656 1.640625 31.03125 -0.171875 24.09375 -3.796875 C 17.15625 -7.421875 11.773438 -12.429688 7.953125 -18.828125 C 4.128906 -25.222656 2.21875 -32.59375 2.21875 -40.9375 C 2.21875 -49.28125 4.128906 -56.644531 7.953125 -63.03125 C 11.773438 -69.425781 17.15625 -74.4375 24.09375 -78.0625 C 31.03125 -81.6875 39.097656 -83.5 48.296875 -83.5 C 57.578125 -83.5 65.664062 -81.6875 72.5625 -78.0625 C 79.46875 -74.4375 84.828125 -69.425781 88.640625 -63.03125 C 92.460938 -56.644531 94.375 -49.28125 94.375 -40.9375 C 94.375 -32.59375 92.460938 -25.222656 88.640625 -18.828125 C 84.828125 -12.429688 79.46875 -7.421875 72.5625 -3.796875 C 65.664062 -0.171875 57.578125 1.640625 48.296875 1.640625 Z M 35.546875 -40.9375 C 35.546875 -37.113281 36.734375 -34.007812 39.109375 -31.625 C 41.492188 -29.25 44.554688 -28.0625 48.296875 -28.0625 C 52.046875 -28.0625 55.109375 -29.25 57.484375 -31.625 C 59.859375 -34.007812 61.046875 -37.113281 61.046875 -40.9375 C 61.046875 -44.757812 59.859375 -47.859375 57.484375 -50.234375 C 55.109375 -52.609375 52.046875 -53.796875 48.296875 -53.796875 C 44.554688 -53.796875 41.492188 -52.609375 39.109375 -50.234375 C 36.734375 -47.859375 35.546875 -44.757812 35.546875 -40.9375 Z M 35.546875 -40.9375 "/></g></g></g><g fill="#ffffff" fill-opacity="1"><g transform="translate(216.264646, 126.270255)"><g><path d="M 5.734375 0 L 5.734375 -81.875 L 50.0625 -81.875 C 57.3125 -81.875 63.523438 -80.625 68.703125 -78.125 C 73.890625 -75.625 77.882812 -72.09375 80.6875 -67.53125 C 83.5 -62.976562 84.90625 -57.503906 84.90625 -51.109375 C 84.90625 -46.035156 84.007812 -41.507812 82.21875 -37.53125 C 80.425781 -33.5625 77.8125 -30.210938 74.375 -27.484375 L 86.65625 0 L 51.109375 0 L 43.390625 -20.34375 L 38.59375 -20.34375 L 38.59375 0 Z M 38.125 -43.03125 L 43.734375 -43.03125 C 46.234375 -43.03125 48.179688 -43.65625 49.578125 -44.90625 C 50.984375 -46.15625 51.6875 -47.988281 51.6875 -50.40625 C 51.6875 -52.90625 50.984375 -54.738281 49.578125 -55.90625 C 48.179688 -57.070312 46.234375 -57.65625 43.734375 -57.65625 L 38.125 -57.65625 Z M 38.125 -43.03125 "/></g></g></g><g fill="#ffffff" fill-opacity="1"><g transform="translate(297.18945, 126.270255)"><g><path d="M 5.734375 0 L 5.734375 -81.875 L 32.75 -81.875 L 56.015625 -52.390625 L 79.171875 -81.875 L 106.1875 -81.875 L 106.1875 0 L 74.03125 0 L 74.03125 -16.25 L 74.734375 -30.0625 L 73.6875 -30.296875 L 63.734375 -16.25 L 48.296875 -16.25 L 38.25 -30.296875 L 37.3125 -30.171875 L 37.890625 -16.25 L 37.890625 0 Z M 5.734375 0 "/></g></g></g></g></g><g transform="matrix(1, 0, 0, 1, 490, 320)"><g clip-path="url(#f37ed3f466)"><g fill="#ffffff" fill-opacity="1"><g transform="translate(0.76051, 124.980184)"><g><path d="M 51.890625 0 L 51.890625 -26.640625 L 39.140625 -26.640625 L 39.140625 0 L 5.71875 0 L 5.71875 -81.796875 L 39.140625 -81.796875 L 39.140625 -56.5625 L 51.890625 -56.5625 L 51.890625 -81.796875 L 85.3125 -81.796875 L 85.3125 0 Z M 51.890625 0 "/></g></g></g><g fill="#ffffff" fill-opacity="1"><g transform="translate(83.605134, 124.980184)"><g><path d="M 48.265625 1.640625 C 39.066406 1.640625 31 -0.171875 24.0625 -3.796875 C 17.132812 -7.421875 11.757812 -12.425781 7.9375 -18.8125 C 4.125 -25.195312 2.21875 -32.5625 2.21875 -40.90625 C 2.21875 -49.238281 4.125 -56.597656 7.9375 -62.984375 C 11.757812 -69.367188 17.132812 -74.375 24.0625 -78 C 31 -81.625 39.066406 -83.4375 48.265625 -83.4375 C 57.535156 -83.4375 65.617188 -81.625 72.515625 -78 C 79.410156 -74.375 84.765625 -69.367188 88.578125 -62.984375 C 92.398438 -56.597656 94.3125 -49.238281 94.3125 -40.90625 C 94.3125 -32.5625 92.398438 -25.195312 88.578125 -18.8125 C 84.765625 -12.425781 79.410156 -7.421875 72.515625 -3.796875 C 65.617188 -0.171875 57.535156 1.640625 48.265625 1.640625 Z M 35.53125 -40.90625 C 35.53125 -37.082031 36.71875 -33.984375 39.09375 -31.609375 C 41.46875 -29.234375 44.523438 -28.046875 48.265625 -28.046875 C 52.003906 -28.046875 55.0625 -29.234375 57.4375 -31.609375 C 59.8125 -33.984375 61 -37.082031 61 -40.90625 C 61 -44.71875 59.8125 -47.8125 57.4375 -50.1875 C 55.0625 -52.5625 52.003906 -53.75 48.265625 -53.75 C 44.523438 -53.75 41.46875 -52.5625 39.09375 -50.1875 C 36.71875 -47.8125 35.53125 -44.71875 35.53125 -40.90625 Z M 35.53125 -40.90625 "/></g></g></g><g fill="#ffffff" fill-opacity="1"><g transform="translate(171.94161, 124.980184)"><g><path d="M 5.71875 0 L 5.71875 -81.796875 L 39.140625 -81.796875 L 39.140625 -30.03125 L 67.78125 -30.03125 L 67.78125 0 Z M 5.71875 0 "/></g></g></g><g fill="#ffffff" fill-opacity="1"><g transform="translate(234.337852, 124.980184)"><g><path d="M 5.71875 0 L 5.71875 -81.796875 L 68.015625 -81.796875 L 68.015625 -59.25 L 37.625 -59.25 L 37.625 -51.890625 L 65.203125 -51.890625 L 65.203125 -30.5 L 37.625 -30.5 L 37.625 -22.90625 L 68.953125 -22.90625 L 68.953125 0 Z M 5.71875 0 "/></g></g></g></g></g></svg>