<svg xmlns="http://www.w3.org/2000/svg" xmlns:xlink="http://www.w3.org/1999/xlink" width="1080" zoomAndPan="magnify" viewBox="0 0 810 809.999993" height="1080" preserveAspectRatio="xMidYMid meet" version="1.0"><defs><g/><clipPath id="2fdb7698f4"><path d="M 125.828125 276.25 L 482.078125 276.25 L 482.078125 533.5 L 125.828125 533.5 Z M 125.828125 276.25 " clip-rule="nonzero"/></clipPath><clipPath id="d9d1b770af"><rect x="0" width="292" y="0" height="124"/></clipPath><clipPath id="2bed4c2ece"><rect x="0" width="220" y="0" height="124"/></clipPath></defs><g clip-path="url(#2fdb7698f4)"><path fill="#ffffff" d="M 482.078125 298.992188 C 482.066406 298.242188 482.015625 297.492188 481.929688 296.746094 C 481.847656 296 481.722656 295.261719 481.566406 294.527344 C 481.410156 293.792969 481.214844 293.066406 480.984375 292.351562 C 480.757812 291.636719 480.492188 290.933594 480.195312 290.242188 C 479.898438 289.554688 479.566406 288.882812 479.203125 288.222656 C 478.839844 287.566406 478.441406 286.929688 478.015625 286.3125 C 477.589844 285.691406 477.132812 285.097656 476.648438 284.523438 C 476.164062 283.949219 475.652344 283.402344 475.113281 282.878906 C 474.574219 282.355469 474.011719 281.859375 473.421875 281.390625 C 472.835938 280.925781 472.226562 280.484375 471.59375 280.078125 C 470.964844 279.667969 470.316406 279.292969 469.648438 278.949219 C 468.980469 278.605469 468.296875 278.292969 467.597656 278.015625 C 466.902344 277.738281 466.191406 277.496094 465.46875 277.289062 C 464.746094 277.082031 464.015625 276.910156 463.277344 276.773438 C 462.539062 276.636719 461.796875 276.539062 461.046875 276.472656 C 460.296875 276.410156 459.546875 276.386719 458.796875 276.394531 L 246.953125 276.394531 C 179.351562 276.394531 125.714844 335.078125 125.714844 404.953125 C 125.714844 474.824219 179.351562 533.507812 246.953125 533.507812 L 458.796875 533.507812 C 459.554688 533.519531 460.3125 533.492188 461.070312 533.429688 C 461.824219 533.363281 462.578125 533.261719 463.320312 533.125 C 464.066406 532.984375 464.804688 532.808594 465.535156 532.597656 C 466.261719 532.386719 466.976562 532.136719 467.683594 531.855469 C 468.386719 531.570312 469.074219 531.253906 469.746094 530.902344 C 470.417969 530.550781 471.074219 530.167969 471.707031 529.753906 C 472.34375 529.335938 472.953125 528.890625 473.546875 528.414062 C 474.136719 527.9375 474.699219 527.433594 475.242188 526.898438 C 475.78125 526.367188 476.292969 525.808594 476.777344 525.226562 C 477.261719 524.644531 477.71875 524.035156 478.144531 523.40625 C 478.566406 522.78125 478.960938 522.132812 479.320312 521.464844 C 479.683594 520.796875 480.007812 520.113281 480.300781 519.414062 C 480.59375 518.710938 480.851562 518 481.074219 517.273438 C 481.296875 516.550781 481.480469 515.816406 481.632812 515.070312 C 481.78125 514.328125 481.894531 513.578125 481.96875 512.824219 C 482.042969 512.066406 482.082031 511.3125 482.082031 510.550781 C 482.082031 509.792969 482.042969 509.035156 481.96875 508.28125 C 481.894531 507.527344 481.78125 506.777344 481.632812 506.03125 C 481.480469 505.289062 481.296875 504.554688 481.074219 503.828125 C 480.851562 503.105469 480.59375 502.390625 480.300781 501.691406 C 480.007812 500.992188 479.683594 500.308594 479.320312 499.640625 C 478.960938 498.972656 478.566406 498.324219 478.144531 497.695312 C 477.71875 497.066406 477.261719 496.460938 476.777344 495.878906 C 476.292969 495.292969 475.78125 494.734375 475.242188 494.203125 C 474.699219 493.671875 474.136719 493.167969 473.546875 492.6875 C 472.953125 492.210938 472.34375 491.765625 471.707031 491.351562 C 471.074219 490.933594 470.417969 490.550781 469.746094 490.199219 C 469.074219 489.847656 468.386719 489.53125 467.683594 489.25 C 466.976562 488.964844 466.261719 488.71875 465.535156 488.507812 C 464.804688 488.292969 464.066406 488.121094 463.320312 487.980469 C 462.578125 487.84375 461.824219 487.742188 461.070312 487.675781 C 460.3125 487.613281 459.554688 487.585938 458.796875 487.59375 L 246.953125 487.59375 C 206.015625 487.59375 171.625 451.734375 171.625 404.953125 C 171.625 358.167969 206.015625 322.308594 246.953125 322.308594 L 458.796875 322.308594 C 459.5625 322.320312 460.328125 322.292969 461.089844 322.226562 C 461.855469 322.160156 462.613281 322.058594 463.367188 321.914062 C 464.117188 321.773438 464.863281 321.59375 465.597656 321.378906 C 466.332031 321.164062 467.054688 320.910156 467.765625 320.621094 C 468.476562 320.332031 469.167969 320.007812 469.847656 319.652344 C 470.523438 319.292969 471.179688 318.902344 471.820312 318.480469 C 472.457031 318.054688 473.074219 317.601562 473.667969 317.117188 C 474.257812 316.628906 474.828125 316.117188 475.367188 315.574219 C 475.910156 315.03125 476.421875 314.464844 476.90625 313.871094 C 477.390625 313.277344 477.84375 312.660156 478.265625 312.023438 C 478.691406 311.382812 479.078125 310.722656 479.4375 310.046875 C 479.792969 309.367188 480.117188 308.675781 480.402344 307.964844 C 480.691406 307.253906 480.941406 306.53125 481.15625 305.796875 C 481.371094 305.058594 481.550781 304.316406 481.691406 303.5625 C 481.832031 302.808594 481.933594 302.050781 481.996094 301.289062 C 482.0625 300.523438 482.089844 299.757812 482.078125 298.992188 Z M 482.078125 298.992188 " fill-opacity="1" fill-rule="nonzero"/></g><g transform="matrix(1, 0, 0, 1, 201, 343)"><g clip-path="url(#d9d1b770af)"><g fill="#ffffff" fill-opacity="1"><g transform="translate(1.499963, 90.986649)"><g><path d="M 17.265625 0 L 0.078125 -58.9375 L 25.421875 -58.9375 L 28.203125 -44.953125 L 31.0625 -32.328125 L 31.828125 -32.328125 L 34.765625 -44.953125 L 37.625 -58.9375 L 62.21875 -58.9375 L 65.15625 -44.953125 L 68.1875 -32.15625 L 68.953125 -32.15625 L 71.734375 -44.953125 L 74.5 -58.9375 L 99.84375 -58.9375 L 82.59375 0 L 56.484375 0 L 53.453125 -13.140625 L 50.34375 -25.9375 L 49.59375 -25.9375 L 46.46875 -13.140625 L 43.4375 0 Z M 17.265625 0 "/></g></g></g><g fill="#ffffff" fill-opacity="1"><g transform="translate(92.326352, 90.986649)"><g><path d="M 34.765625 1.171875 C 28.140625 1.171875 22.328125 -0.128906 17.328125 -2.734375 C 12.335938 -5.347656 8.46875 -8.953125 5.71875 -13.546875 C 2.96875 -18.148438 1.59375 -23.457031 1.59375 -29.46875 C 1.59375 -35.46875 2.96875 -40.769531 5.71875 -45.375 C 8.46875 -49.976562 12.335938 -53.582031 17.328125 -56.1875 C 22.328125 -58.800781 28.140625 -60.109375 34.765625 -60.109375 C 41.441406 -60.109375 47.265625 -58.800781 52.234375 -56.1875 C 57.203125 -53.582031 61.0625 -49.976562 63.8125 -45.375 C 66.5625 -40.769531 67.9375 -35.46875 67.9375 -29.46875 C 67.9375 -23.457031 66.5625 -18.148438 63.8125 -13.546875 C 61.0625 -8.953125 57.203125 -5.347656 52.234375 -2.734375 C 47.265625 -0.128906 41.441406 1.171875 34.765625 1.171875 Z M 25.59375 -29.46875 C 25.59375 -26.71875 26.445312 -24.484375 28.15625 -22.765625 C 29.875 -21.054688 32.078125 -20.203125 34.765625 -20.203125 C 37.460938 -20.203125 39.664062 -21.054688 41.375 -22.765625 C 43.09375 -24.484375 43.953125 -26.71875 43.953125 -29.46875 C 43.953125 -32.21875 43.09375 -34.445312 41.375 -36.15625 C 39.664062 -37.863281 37.460938 -38.71875 34.765625 -38.71875 C 32.078125 -38.71875 29.875 -37.863281 28.15625 -36.15625 C 26.445312 -34.445312 25.59375 -32.21875 25.59375 -29.46875 Z M 25.59375 -29.46875 "/></g></g></g><g fill="#ffffff" fill-opacity="1"><g transform="translate(155.963656, 90.986649)"><g><path d="M 4.125 0 L 4.125 -58.9375 L 36.03125 -58.9375 C 41.25 -58.9375 45.722656 -58.035156 49.453125 -56.234375 C 53.191406 -54.441406 56.070312 -51.898438 58.09375 -48.609375 C 60.113281 -45.328125 61.125 -41.390625 61.125 -36.796875 C 61.125 -33.140625 60.476562 -29.878906 59.1875 -27.015625 C 57.894531 -24.160156 56.015625 -21.75 53.546875 -19.78125 L 62.390625 0 L 36.796875 0 L 31.234375 -14.65625 L 27.78125 -14.65625 L 27.78125 0 Z M 27.4375 -30.984375 L 31.484375 -30.984375 C 33.285156 -30.984375 34.6875 -31.429688 35.6875 -32.328125 C 36.695312 -33.222656 37.203125 -34.539062 37.203125 -36.28125 C 37.203125 -38.082031 36.695312 -39.398438 35.6875 -40.234375 C 34.6875 -41.078125 33.285156 -41.5 31.484375 -41.5 L 27.4375 -41.5 Z M 27.4375 -30.984375 "/></g></g></g><g fill="#ffffff" fill-opacity="1"><g transform="translate(214.213588, 90.986649)"><g><path d="M 4.125 0 L 4.125 -58.9375 L 23.578125 -58.9375 L 40.328125 -37.71875 L 57 -58.9375 L 76.4375 -58.9375 L 76.4375 0 L 53.296875 0 L 53.296875 -11.703125 L 53.796875 -21.640625 L 53.03125 -21.796875 L 45.875 -11.703125 L 34.765625 -11.703125 L 27.53125 -21.796875 L 26.859375 -21.71875 L 27.28125 -11.703125 L 27.28125 0 Z M 4.125 0 "/></g></g></g></g></g><g transform="matrix(1, 0, 0, 1, 466, 343)"><g clip-path="url(#2bed4c2ece)"><g fill="#ffffff" fill-opacity="1"><g transform="translate(0.73064, 90.777852)"><g><path d="M 37.34375 0 L 37.34375 -19.171875 L 28.171875 -19.171875 L 28.171875 0 L 4.125 0 L 4.125 -58.875 L 28.171875 -58.875 L 28.171875 -40.703125 L 37.34375 -40.703125 L 37.34375 -58.875 L 61.40625 -58.875 L 61.40625 0 Z M 37.34375 0 "/></g></g></g><g fill="#ffffff" fill-opacity="1"><g transform="translate(60.36247, 90.777852)"><g><path d="M 34.734375 1.171875 C 28.117188 1.171875 22.316406 -0.128906 17.328125 -2.734375 C 12.335938 -5.335938 8.46875 -8.9375 5.71875 -13.53125 C 2.96875 -18.132812 1.59375 -23.4375 1.59375 -29.4375 C 1.59375 -35.4375 2.96875 -40.734375 5.71875 -45.328125 C 8.46875 -49.929688 12.335938 -53.535156 17.328125 -56.140625 C 22.316406 -58.742188 28.117188 -60.046875 34.734375 -60.046875 C 41.410156 -60.046875 47.226562 -58.742188 52.1875 -56.140625 C 57.15625 -53.535156 61.007812 -49.929688 63.75 -45.328125 C 66.5 -40.734375 67.875 -35.4375 67.875 -29.4375 C 67.875 -23.4375 66.5 -18.132812 63.75 -13.53125 C 61.007812 -8.9375 57.15625 -5.335938 52.1875 -2.734375 C 47.226562 -0.128906 41.410156 1.171875 34.734375 1.171875 Z M 25.5625 -29.4375 C 25.5625 -26.6875 26.414062 -24.457031 28.125 -22.75 C 29.84375 -21.039062 32.046875 -20.1875 34.734375 -20.1875 C 37.429688 -20.1875 39.632812 -21.039062 41.34375 -22.75 C 43.050781 -24.457031 43.90625 -26.6875 43.90625 -29.4375 C 43.90625 -32.1875 43.050781 -34.414062 41.34375 -36.125 C 39.632812 -37.832031 37.429688 -38.6875 34.734375 -38.6875 C 32.046875 -38.6875 29.84375 -37.832031 28.125 -36.125 C 26.414062 -34.414062 25.5625 -32.1875 25.5625 -29.4375 Z M 25.5625 -29.4375 "/></g></g></g><g fill="#ffffff" fill-opacity="1"><g transform="translate(123.947353, 90.777852)"><g><path d="M 4.125 0 L 4.125 -58.875 L 28.171875 -58.875 L 28.171875 -21.609375 L 48.78125 -21.609375 L 48.78125 0 Z M 4.125 0 "/></g></g></g><g fill="#ffffff" fill-opacity="1"><g transform="translate(168.860371, 90.777852)"><g><path d="M 4.125 0 L 4.125 -58.875 L 48.953125 -58.875 L 48.953125 -42.640625 L 27.078125 -42.640625 L 27.078125 -37.34375 L 46.9375 -37.34375 L 46.9375 -21.953125 L 27.078125 -21.953125 L 27.078125 -16.484375 L 49.625 -16.484375 L 49.625 0 Z M 4.125 0 "/></g></g></g></g></g></svg>