<svg xmlns="http://www.w3.org/2000/svg" xmlns:xlink="http://www.w3.org/1999/xlink" width="1024" zoomAndPan="magnify" viewBox="0 0 768 767.999994" height="1024" preserveAspectRatio="xMidYMid meet" version="1.0"><defs><g/><clipPath id="ffd9df8ccb"><path d="M 0.21875 207 L 489.96875 207 L 489.96875 561 L 0.21875 561 Z M 0.21875 207 " clip-rule="nonzero"/></clipPath><clipPath id="6d273fc79c"><rect x="0" width="401" y="0" height="168"/></clipPath><clipPath id="f5afb24407"><path d="M 237 42 L 300 42 L 300 124 L 237 124 Z M 237 42 " clip-rule="nonzero"/></clipPath><clipPath id="5b5caf319e"><rect x="0" width="300" y="0" height="169"/></clipPath></defs><rect x="-76.8" width="921.6" fill="#ffffff" y="-76.799999" height="921.599993" fill-opacity="1"/><rect x="-76.8" width="921.6" fill="#000000" y="-76.799999" height="921.599993" fill-opacity="1"/><g clip-path="url(#ffd9df8ccb)"><path fill="#ffffff" d="M 489.96875 238.269531 C 489.953125 237.238281 489.886719 236.207031 489.769531 235.179688 C 489.652344 234.15625 489.484375 233.136719 489.269531 232.128906 C 489.050781 231.117188 488.785156 230.121094 488.46875 229.136719 C 488.15625 228.15625 487.792969 227.1875 487.382812 226.242188 C 486.972656 225.292969 486.519531 224.367188 486.019531 223.464844 C 485.515625 222.5625 484.972656 221.683594 484.386719 220.835938 C 483.800781 219.984375 483.175781 219.164062 482.507812 218.375 C 481.839844 217.589844 481.136719 216.835938 480.394531 216.113281 C 479.652344 215.394531 478.878906 214.714844 478.070312 214.070312 C 477.265625 213.429688 476.425781 212.824219 475.558594 212.265625 C 474.691406 211.703125 473.800781 211.1875 472.882812 210.710938 C 471.964844 210.238281 471.027344 209.8125 470.066406 209.429688 C 469.105469 209.050781 468.128906 208.714844 467.136719 208.429688 C 466.144531 208.144531 465.140625 207.910156 464.125 207.722656 C 463.109375 207.535156 462.085938 207.398438 461.058594 207.3125 C 460.03125 207.222656 459 207.1875 457.964844 207.203125 L 166.726562 207.203125 C 73.792969 207.203125 0.0507812 287.878906 0.0507812 383.9375 C 0.0507812 480 73.792969 560.675781 166.726562 560.675781 L 457.964844 560.675781 C 459.007812 560.6875 460.050781 560.652344 461.089844 560.5625 C 462.128906 560.476562 463.160156 560.335938 464.1875 560.144531 C 465.210938 559.953125 466.226562 559.714844 467.226562 559.421875 C 468.226562 559.128906 469.214844 558.789062 470.179688 558.402344 C 471.148438 558.011719 472.09375 557.578125 473.019531 557.09375 C 473.945312 556.609375 474.84375 556.082031 475.714844 555.511719 C 476.585938 554.941406 477.429688 554.328125 478.242188 553.671875 C 479.050781 553.015625 479.828125 552.324219 480.570312 551.589844 C 481.316406 550.859375 482.019531 550.089844 482.6875 549.289062 C 483.351562 548.484375 483.976562 547.652344 484.5625 546.789062 C 485.144531 545.925781 485.6875 545.035156 486.183594 544.117188 C 486.675781 543.199219 487.125 542.257812 487.527344 541.296875 C 487.933594 540.332031 488.285156 539.355469 488.589844 538.355469 C 488.898438 537.359375 489.152344 536.347656 489.355469 535.328125 C 489.5625 534.304688 489.714844 533.273438 489.820312 532.234375 C 489.921875 531.199219 489.972656 530.15625 489.972656 529.113281 C 489.972656 528.070312 489.921875 527.03125 489.820312 525.992188 C 489.714844 524.957031 489.5625 523.925781 489.355469 522.902344 C 489.152344 521.878906 488.898438 520.871094 488.589844 519.871094 C 488.285156 518.875 487.933594 517.894531 487.527344 516.933594 C 487.125 515.972656 486.675781 515.03125 486.183594 514.113281 C 485.6875 513.195312 485.144531 512.304688 484.5625 511.441406 C 483.976562 510.578125 483.351562 509.742188 482.6875 508.941406 C 482.019531 508.140625 481.316406 507.371094 480.570312 506.640625 C 479.828125 505.90625 479.050781 505.214844 478.242188 504.558594 C 477.429688 503.902344 476.585938 503.289062 475.714844 502.71875 C 474.84375 502.144531 473.945312 501.617188 473.019531 501.136719 C 472.09375 500.652344 471.148438 500.214844 470.179688 499.828125 C 469.214844 499.4375 468.226562 499.097656 467.226562 498.808594 C 466.226562 498.515625 465.210938 498.273438 464.1875 498.085938 C 463.160156 497.894531 462.128906 497.753906 461.089844 497.664062 C 460.050781 497.578125 459.007812 497.539062 457.964844 497.554688 L 166.726562 497.554688 C 110.445312 497.554688 63.171875 448.253906 63.171875 383.9375 C 63.171875 319.625 110.445312 270.324219 166.726562 270.324219 L 457.964844 270.324219 C 459.019531 270.335938 460.070312 270.300781 461.121094 270.210938 C 462.167969 270.117188 463.210938 269.976562 464.246094 269.78125 C 465.28125 269.585938 466.304688 269.339844 467.316406 269.042969 C 468.324219 268.746094 469.320312 268.398438 470.292969 268.003906 C 471.269531 267.605469 472.222656 267.160156 473.15625 266.671875 C 474.085938 266.179688 474.992188 265.640625 475.867188 265.058594 C 476.746094 264.476562 477.59375 263.851562 478.40625 263.183594 C 479.222656 262.515625 480 261.808594 480.746094 261.0625 C 481.492188 260.320312 482.195312 259.539062 482.863281 258.722656 C 483.527344 257.90625 484.152344 257.058594 484.734375 256.179688 C 485.3125 255.300781 485.851562 254.398438 486.339844 253.464844 C 486.832031 252.53125 487.273438 251.578125 487.667969 250.601562 C 488.0625 249.625 488.410156 248.632812 488.703125 247.621094 C 489 246.609375 489.246094 245.585938 489.4375 244.550781 C 489.632812 243.515625 489.773438 242.472656 489.859375 241.421875 C 489.949219 240.375 489.984375 239.324219 489.96875 238.269531 Z M 489.96875 238.269531 " fill-opacity="1" fill-rule="nonzero"/></g><g transform="matrix(1, 0, 0, 1, 104, 300)"><g clip-path="url(#6d273fc79c)"><g fill="#ffffff" fill-opacity="1"><g transform="translate(1.613458, 123.849369)"><g><path d="M 23.71875 0 L 0.109375 -81.015625 L 34.953125 -81.015625 L 38.765625 -61.796875 L 42.703125 -44.4375 L 43.75 -44.4375 L 47.796875 -61.796875 L 51.734375 -81.015625 L 85.53125 -81.015625 L 89.578125 -61.796875 L 93.75 -44.203125 L 94.78125 -44.203125 L 98.609375 -61.796875 L 102.421875 -81.015625 L 137.265625 -81.015625 L 113.53125 0 L 77.65625 0 L 73.484375 -18.046875 L 69.203125 -35.640625 L 68.171875 -35.640625 L 63.890625 -18.046875 L 59.71875 0 Z M 23.71875 0 "/></g></g></g><g fill="#ffffff" fill-opacity="1"><g transform="translate(126.476885, 123.849369)"><g><path d="M 47.796875 1.625 C 38.691406 1.625 30.707031 -0.164062 23.84375 -3.75 C 16.976562 -7.34375 11.65625 -12.300781 7.875 -18.625 C 4.09375 -24.957031 2.203125 -32.25 2.203125 -40.5 C 2.203125 -48.757812 4.09375 -56.050781 7.875 -62.375 C 11.65625 -68.707031 16.976562 -73.664062 23.84375 -77.25 C 30.707031 -80.84375 38.691406 -82.640625 47.796875 -82.640625 C 56.984375 -82.640625 64.988281 -80.84375 71.8125 -77.25 C 78.644531 -73.664062 83.945312 -68.707031 87.71875 -62.375 C 91.5 -56.050781 93.390625 -48.757812 93.390625 -40.5 C 93.390625 -32.25 91.5 -24.957031 87.71875 -18.625 C 83.945312 -12.300781 78.644531 -7.34375 71.8125 -3.75 C 64.988281 -0.164062 56.984375 1.625 47.796875 1.625 Z M 35.1875 -40.5 C 35.1875 -36.726562 36.363281 -33.664062 38.71875 -31.3125 C 41.070312 -28.957031 44.097656 -27.78125 47.796875 -27.78125 C 51.503906 -27.78125 54.53125 -28.957031 56.875 -31.3125 C 59.226562 -33.664062 60.40625 -36.726562 60.40625 -40.5 C 60.40625 -44.28125 59.226562 -47.347656 56.875 -49.703125 C 54.53125 -52.054688 51.503906 -53.234375 47.796875 -53.234375 C 44.097656 -53.234375 41.070312 -52.054688 38.71875 -49.703125 C 36.363281 -47.347656 35.1875 -44.28125 35.1875 -40.5 Z M 35.1875 -40.5 "/></g></g></g><g fill="#ffffff" fill-opacity="1"><g transform="translate(213.962163, 123.849369)"><g><path d="M 5.671875 0 L 5.671875 -81.015625 L 49.53125 -81.015625 C 56.707031 -81.015625 62.859375 -79.78125 67.984375 -77.3125 C 73.117188 -74.84375 77.070312 -71.347656 79.84375 -66.828125 C 82.625 -62.316406 84.015625 -56.898438 84.015625 -50.578125 C 84.015625 -45.554688 83.128906 -41.078125 81.359375 -37.140625 C 79.585938 -33.210938 77.003906 -29.898438 73.609375 -27.203125 L 85.765625 0 L 50.578125 0 L 42.9375 -20.140625 L 38.1875 -20.140625 L 38.1875 0 Z M 37.734375 -42.59375 L 43.28125 -42.59375 C 45.75 -42.59375 47.675781 -43.207031 49.0625 -44.4375 C 50.457031 -45.675781 51.15625 -47.488281 51.15625 -49.875 C 51.15625 -52.34375 50.457031 -54.15625 49.0625 -55.3125 C 47.675781 -56.476562 45.75 -57.0625 43.28125 -57.0625 L 37.734375 -57.0625 Z M 37.734375 -42.59375 "/></g></g></g><g fill="#ffffff" fill-opacity="1"><g transform="translate(294.041161, 123.849369)"><g><path d="M 5.671875 0 L 5.671875 -81.015625 L 32.40625 -81.015625 L 55.4375 -51.84375 L 78.359375 -81.015625 L 105.09375 -81.015625 L 105.09375 0 L 73.265625 0 L 73.265625 -16.09375 L 73.953125 -29.75 L 72.90625 -29.96875 L 63.078125 -16.09375 L 47.796875 -16.09375 L 37.84375 -29.96875 L 36.921875 -29.859375 L 37.5 -16.09375 L 37.5 0 Z M 5.671875 0 "/></g></g></g></g></g><g transform="matrix(1, 0, 0, 1, 468, 300)"><g clip-path="url(#5b5caf319e)"><g fill="#ffffff" fill-opacity="1"><g transform="translate(0.864105, 123.562343)"><g><path d="M 51.34375 0 L 51.34375 -26.359375 L 38.734375 -26.359375 L 38.734375 0 L 5.671875 0 L 5.671875 -80.953125 L 38.734375 -80.953125 L 38.734375 -55.96875 L 51.34375 -55.96875 L 51.34375 -80.953125 L 84.421875 -80.953125 L 84.421875 0 Z M 51.34375 0 "/></g></g></g><g fill="#ffffff" fill-opacity="1"><g transform="translate(82.842859, 123.562343)"><g><path d="M 47.765625 1.625 C 38.660156 1.625 30.675781 -0.164062 23.8125 -3.75 C 16.957031 -7.34375 11.640625 -12.296875 7.859375 -18.609375 C 4.085938 -24.929688 2.203125 -32.21875 2.203125 -40.46875 C 2.203125 -48.71875 4.085938 -56.003906 7.859375 -62.328125 C 11.640625 -68.648438 16.957031 -73.601562 23.8125 -77.1875 C 30.675781 -80.769531 38.660156 -82.5625 47.765625 -82.5625 C 56.929688 -82.5625 64.925781 -80.769531 71.75 -77.1875 C 78.570312 -73.601562 83.875 -68.648438 87.65625 -62.328125 C 91.4375 -56.003906 93.328125 -48.71875 93.328125 -40.46875 C 93.328125 -32.21875 91.4375 -24.929688 87.65625 -18.609375 C 83.875 -12.296875 78.570312 -7.34375 71.75 -3.75 C 64.925781 -0.164062 56.929688 1.625 47.765625 1.625 Z M 35.15625 -40.46875 C 35.15625 -36.695312 36.328125 -33.632812 38.671875 -31.28125 C 41.023438 -28.925781 44.054688 -27.75 47.765625 -27.75 C 51.460938 -27.75 54.484375 -28.925781 56.828125 -31.28125 C 59.179688 -33.632812 60.359375 -36.695312 60.359375 -40.46875 C 60.359375 -44.25 59.179688 -47.3125 56.828125 -49.65625 C 54.484375 -52.007812 51.460938 -53.1875 47.765625 -53.1875 C 44.054688 -53.1875 41.023438 -52.007812 38.671875 -49.65625 C 36.328125 -47.3125 35.15625 -44.25 35.15625 -40.46875 Z M 35.15625 -40.46875 "/></g></g></g><g fill="#ffffff" fill-opacity="1"><g transform="translate(170.256066, 123.562343)"><g><path d="M 5.671875 0 L 5.671875 -80.953125 L 38.734375 -80.953125 L 38.734375 -29.71875 L 67.078125 -29.71875 L 67.078125 0 Z M 5.671875 0 "/></g></g></g><g clip-path="url(#f5afb24407)"><g fill="#ffffff" fill-opacity="1"><g transform="translate(232.000159, 123.562343)"><g><path d="M 5.671875 0 L 5.671875 -80.953125 L 67.296875 -80.953125 L 67.296875 -58.625 L 37.234375 -58.625 L 37.234375 -51.34375 L 64.53125 -51.34375 L 64.53125 -30.1875 L 37.234375 -30.1875 L 37.234375 -22.671875 L 68.234375 -22.671875 L 68.234375 0 Z M 5.671875 0 "/></g></g></g></g></g></g></svg>