<svg xmlns="http://www.w3.org/2000/svg" xmlns:xlink="http://www.w3.org/1999/xlink" width="1080" zoomAndPan="magnify" viewBox="0 0 810 1012.49997" height="1350" preserveAspectRatio="xMidYMid meet" version="1.0"><defs><clipPath id="df4f5afaa4"><path d="M 177.300781 0 L 632.699219 0 L 632.699219 1012 L 177.300781 1012 Z M 177.300781 0 " clip-rule="nonzero"/></clipPath><clipPath id="585d85d489"><path d="M 215.53125 0 L 594.46875 0 C 604.609375 0 614.332031 4.027344 621.503906 11.199219 C 628.671875 18.367188 632.699219 28.089844 632.699219 38.230469 L 632.699219 973.769531 C 632.699219 983.910156 628.671875 993.632812 621.503906 1000.800781 C 614.332031 1007.972656 604.609375 1012 594.46875 1012 L 215.53125 1012 C 205.390625 1012 195.667969 1007.972656 188.496094 1000.800781 C 181.328125 993.632812 177.300781 983.910156 177.300781 973.769531 L 177.300781 38.230469 C 177.300781 28.089844 181.328125 18.367188 188.496094 11.199219 C 195.667969 4.027344 205.390625 0 215.53125 0 Z M 215.53125 0 " clip-rule="nonzero"/></clipPath><clipPath id="c865b3f3fa"><path d="M 0.300781 0 L 455.699219 0 L 455.699219 1012 L 0.300781 1012 Z M 0.300781 0 " clip-rule="nonzero"/></clipPath><clipPath id="e6d53b9b52"><path d="M 38.53125 0 L 417.46875 0 C 427.609375 0 437.332031 4.027344 444.503906 11.199219 C 451.671875 18.367188 455.699219 28.089844 455.699219 38.230469 L 455.699219 973.769531 C 455.699219 983.910156 451.671875 993.632812 444.503906 1000.800781 C 437.332031 1007.972656 427.609375 1012 417.46875 1012 L 38.53125 1012 C 28.390625 1012 18.667969 1007.972656 11.496094 1000.800781 C 4.328125 993.632812 0.300781 983.910156 0.300781 973.769531 L 0.300781 38.230469 C 0.300781 28.089844 4.328125 18.367188 11.496094 11.199219 C 18.667969 4.027344 28.390625 0 38.53125 0 Z M 38.53125 0 " clip-rule="nonzero"/></clipPath><clipPath id="67a81cd88d"><rect x="0" width="456" y="0" height="1012"/></clipPath><clipPath id="6521b3b422"><path d="M 260 376 L 574.617188 376 L 574.617188 562 L 260 562 Z M 260 376 " clip-rule="nonzero"/></clipPath><clipPath id="87c8403dd2"><path d="M 405 561 L 431 561 L 431 715.53125 L 405 715.53125 Z M 405 561 " clip-rule="nonzero"/></clipPath><clipPath id="791b55dd32"><path d="M 417 376 L 574.617188 376 L 574.617188 715.53125 L 417 715.53125 Z M 417 376 " clip-rule="nonzero"/></clipPath></defs><g clip-path="url(#df4f5afaa4)"><g clip-path="url(#585d85d489)"><g transform="matrix(1, 0, 0, 1, 177, 0)"><g clip-path="url(#67a81cd88d)"><g clip-path="url(#c865b3f3fa)"><g clip-path="url(#e6d53b9b52)"><path fill="#000000" d="M 0.300781 0 L 455.699219 0 L 455.699219 1012.199219 L 0.300781 1012.199219 Z M 0.300781 0 " fill-opacity="1" fill-rule="nonzero"/></g></g></g></g></g></g><g clip-path="url(#6521b3b422)"><path fill="#e30227" d="M 562.8125 561.550781 L 272.710938 561.550781 C 266.21875 561.550781 260.90625 556.234375 260.90625 549.734375 L 260.90625 388.429688 C 260.90625 381.929688 266.21875 376.613281 272.710938 376.613281 L 562.8125 376.613281 C 569.304688 376.613281 574.617188 381.929688 574.617188 388.429688 L 574.617188 549.636719 C 574.617188 556.234375 569.304688 561.550781 562.8125 561.550781 Z M 562.8125 561.550781 " fill-opacity="1" fill-rule="nonzero"/></g><path fill="#e3a000" d="M 286.777344 392.761719 C 286.777344 396.703125 283.53125 399.949219 279.597656 399.949219 C 275.660156 399.949219 272.414062 396.703125 272.414062 392.761719 C 272.414062 388.824219 275.660156 385.574219 279.597656 385.574219 C 283.53125 385.574219 286.777344 388.824219 286.777344 392.761719 Z M 279.597656 535.847656 C 275.660156 535.847656 272.414062 539.097656 272.414062 543.039062 C 272.414062 546.976562 275.660156 550.226562 279.597656 550.226562 C 283.53125 550.226562 286.777344 546.976562 286.777344 543.039062 C 286.777344 539 283.53125 535.847656 279.597656 535.847656 Z M 553.171875 385.574219 C 549.234375 385.574219 545.988281 388.824219 545.988281 392.761719 C 545.988281 396.703125 549.234375 399.949219 553.171875 399.949219 C 557.105469 399.949219 560.351562 396.703125 560.351562 392.761719 C 560.351562 388.824219 557.105469 385.574219 553.171875 385.574219 Z M 553.171875 535.847656 C 549.234375 535.847656 545.988281 539.097656 545.988281 543.039062 C 545.988281 546.976562 549.234375 550.226562 553.171875 550.226562 C 557.105469 550.226562 560.351562 546.976562 560.351562 543.039062 C 560.351562 539 557.105469 535.847656 553.171875 535.847656 Z M 553.171875 535.847656 " fill-opacity="1" fill-rule="nonzero"/><path fill="#d1d7ea" d="M 331.4375 446.628906 C 329.765625 454.507812 323.863281 460.21875 313.339844 460.21875 C 299.960938 460.21875 293.664062 450.765625 293.664062 438.75 C 293.664062 427.230469 300.15625 416.890625 313.730469 416.890625 C 324.945312 416.890625 330.355469 423.488281 331.339844 430.480469 L 322.289062 430.480469 C 321.40625 427.230469 319.140625 423.980469 313.4375 423.980469 C 305.960938 423.980469 303.007812 430.773438 303.007812 438.355469 C 303.007812 445.449219 305.566406 452.929688 313.632812 452.929688 C 319.535156 452.929688 321.40625 448.992188 322.191406 446.53125 L 331.4375 446.53125 Z M 377.773438 438.457031 C 377.773438 450.175781 370.789062 460.21875 357.113281 460.21875 C 343.933594 460.21875 337.046875 450.667969 337.046875 438.554688 C 337.046875 426.34375 344.71875 416.890625 357.703125 416.890625 C 370 416.890625 377.773438 425.554688 377.773438 438.457031 Z M 346.390625 438.355469 C 346.390625 446.53125 350.03125 452.832031 357.410156 452.832031 C 365.476562 452.832031 368.328125 446.039062 368.328125 438.554688 C 368.328125 430.578125 365.082031 424.375 357.210938 424.375 C 349.738281 424.273438 346.390625 430.183594 346.390625 438.355469 Z M 420.957031 443.773438 C 420.957031 436.585938 421.054688 428.507812 421.253906 423.78125 L 420.957031 423.78125 C 418.992188 432.351562 414.761719 446.433594 410.726562 459.53125 L 402.957031 459.53125 C 399.90625 448.007812 395.578125 432.054688 393.710938 423.585938 L 393.414062 423.585938 C 393.808594 428.507812 393.90625 437.175781 393.90625 444.363281 L 393.90625 459.429688 L 385.640625 459.429688 L 385.640625 417.480469 L 399.316406 417.480469 C 402.5625 428.507812 406.300781 442.296875 407.578125 448.5 L 407.679688 448.5 C 408.660156 442.984375 413.285156 428.214844 416.828125 417.480469 L 429.910156 417.480469 L 429.910156 459.53125 L 420.957031 459.53125 Z M 448.894531 417.480469 L 448.894531 459.53125 L 439.847656 459.53125 L 439.847656 417.480469 Z M 459.027344 459.628906 L 459.027344 417.480469 L 470.339844 417.480469 C 475.554688 426.933594 485.292969 443.96875 487.261719 448.597656 L 487.359375 448.597656 C 486.867188 444.167969 486.867188 436.878906 486.867188 429.988281 L 486.867188 417.480469 L 495.132812 417.480469 L 495.132812 459.53125 L 484.410156 459.53125 C 479.882812 451.257812 469.160156 431.757812 467.09375 426.835938 L 466.996094 426.835938 C 467.292969 430.480469 467.390625 439.144531 467.390625 446.726562 L 467.390625 459.53125 L 459.027344 459.53125 Z M 541.660156 459.628906 L 534.972656 459.628906 C 534.578125 458.347656 534.382812 456.871094 534.285156 455.492188 C 531.921875 458.644531 527.890625 460.316406 521.988281 460.316406 C 509.789062 460.316406 503 451.058594 503 439.144531 C 503 426.539062 510.378906 416.988281 523.5625 416.988281 C 534.382812 416.988281 540.777344 423.09375 541.761719 430.28125 L 532.710938 430.28125 C 531.824219 427.425781 529.660156 424.175781 523.460938 424.175781 C 514.804688 424.175781 512.347656 431.363281 512.347656 438.847656 C 512.347656 446.136719 515.199219 453.226562 523.460938 453.226562 C 531.234375 453.226562 532.710938 447.8125 532.710938 444.070312 L 532.710938 443.675781 L 523.460938 443.675781 L 523.460938 436.191406 L 541.5625 436.191406 L 541.5625 459.628906 Z M 340.585938 508.273438 C 341.570312 512.511719 344.621094 514.378906 349.441406 514.378906 C 354.261719 514.378906 356.328125 512.511719 356.328125 509.359375 C 356.328125 505.910156 354.261719 504.433594 347.082031 502.761719 C 335.667969 500.101562 332.816406 495.867188 332.816406 490.253906 C 332.816406 482.867188 338.324219 477.945312 348.261719 477.945312 C 359.378906 477.945312 363.902344 483.953125 364.492188 490.15625 L 355.34375 490.15625 C 354.949219 487.59375 353.472656 484.738281 348.0625 484.738281 C 344.324219 484.738281 342.160156 486.214844 342.160156 489.269531 C 342.160156 492.222656 343.933594 493.40625 350.71875 494.980469 C 362.917969 497.835938 365.671875 502.464844 365.671875 508.375 C 365.671875 516.054688 359.867188 521.371094 348.753906 521.371094 C 338.128906 521.371094 332.421875 516.152344 331.4375 508.472656 L 340.585938 508.472656 Z M 411.613281 499.511719 C 411.613281 511.230469 404.628906 521.273438 390.953125 521.273438 C 377.773438 521.273438 370.886719 511.722656 370.886719 499.609375 C 370.886719 487.398438 378.558594 477.945312 391.542969 477.945312 C 403.742188 477.945312 411.613281 486.609375 411.613281 499.511719 Z M 380.230469 499.414062 C 380.230469 507.585938 383.871094 513.886719 391.25 513.886719 C 399.316406 513.886719 402.167969 507.09375 402.167969 499.609375 C 402.167969 491.632812 398.921875 485.429688 391.054688 485.429688 C 383.476562 485.332031 380.230469 491.238281 380.230469 499.414062 Z M 458.242188 499.511719 C 458.242188 511.230469 451.257812 521.273438 437.582031 521.273438 C 424.402344 521.273438 417.515625 511.722656 417.515625 499.609375 C 417.515625 487.398438 425.1875 477.945312 438.171875 477.945312 C 450.46875 477.945312 458.242188 486.609375 458.242188 499.511719 Z M 426.859375 499.414062 C 426.859375 507.585938 430.5 513.886719 437.878906 513.886719 C 445.945312 513.886719 448.796875 507.09375 448.796875 499.609375 C 448.796875 491.632812 445.550781 485.429688 437.679688 485.429688 C 430.207031 485.332031 426.859375 491.238281 426.859375 499.414062 Z M 466.210938 520.683594 L 466.210938 478.535156 L 477.523438 478.535156 C 482.734375 487.988281 492.476562 505.027344 494.441406 509.652344 L 494.539062 509.652344 C 494.050781 505.222656 494.050781 497.933594 494.050781 491.042969 L 494.050781 478.535156 L 502.3125 478.535156 L 502.3125 520.585938 L 491.589844 520.585938 C 487.066406 512.3125 476.34375 492.816406 474.277344 487.890625 L 474.078125 487.890625 C 474.375 491.535156 474.472656 500.199219 474.472656 507.78125 L 474.472656 520.585938 L 466.210938 520.585938 Z M 466.210938 520.683594 " fill-opacity="1" fill-rule="nonzero"/><g clip-path="url(#87c8403dd2)"><path fill="#515066" d="M 425.1875 715.273438 L 410.332031 715.273438 C 407.578125 715.273438 405.414062 713.105469 405.414062 710.347656 L 405.414062 561.550781 L 430.105469 561.550781 L 430.105469 710.347656 C 430.105469 713.105469 427.84375 715.273438 425.1875 715.273438 Z M 425.1875 715.273438 " fill-opacity="1" fill-rule="nonzero"/></g><path fill="#d1d7ea" d="M 326.027344 311.421875 L 347.375 370.800781 C 350.128906 378.582031 343.441406 386.558594 335.375 385.082031 L 300.84375 378.878906 C 298.289062 378.382812 295.730469 378.679688 293.367188 379.46875 L 273.695312 386.558594 L 279.5 402.808594 C 280.1875 404.679688 279.203125 406.648438 277.335938 407.335938 L 272.515625 409.011719 C 270.644531 409.699219 268.675781 408.714844 267.988281 406.84375 L 259.527344 383.308594 C 259.429688 383.011719 259.332031 382.816406 259.234375 382.519531 L 250.578125 358.492188 C 249.003906 354.0625 251.265625 349.136719 255.789062 347.5625 L 278.90625 339.289062 C 281.269531 338.402344 283.433594 336.925781 285.105469 334.957031 L 307.828125 308.074219 C 313.042969 301.769531 323.175781 303.640625 326.027344 311.421875 Z M 326.027344 311.421875 " fill-opacity="1" fill-rule="nonzero"/><path fill="#515066" d="M 348.753906 386.164062 L 343.046875 388.230469 C 340.980469 389.019531 338.621094 387.839844 337.832031 385.769531 L 308.8125 304.824219 C 308.027344 302.753906 309.207031 300.390625 311.273438 299.605469 L 316.976562 297.535156 C 319.042969 296.746094 321.40625 297.929688 322.191406 299.996094 L 351.210938 380.847656 C 351.902344 383.011719 350.820312 385.375 348.753906 386.164062 Z M 250.183594 387.148438 L 259.628906 383.800781 L 250.578125 358.589844 L 241.132812 361.9375 C 237.199219 363.417969 235.035156 367.75 236.507812 371.785156 L 240.347656 382.621094 C 241.722656 386.460938 246.148438 388.527344 250.183594 387.148438 Z M 250.183594 387.148438 " fill-opacity="1" fill-rule="nonzero"/><path fill="#d1d7ea" d="M 346.097656 352.191406 L 341.472656 353.863281 L 331.832031 327.078125 L 336.457031 325.40625 C 339.898438 324.125 343.734375 325.996094 344.917969 329.441406 L 350.03125 343.722656 C 351.410156 347.167969 349.539062 350.910156 346.097656 352.191406 Z M 346.097656 352.191406 " fill-opacity="1" fill-rule="nonzero"/><g clip-path="url(#791b55dd32)"><path fill="#000000" d="M 417.417969 376.613281 L 562.714844 376.613281 C 569.207031 376.613281 574.519531 381.929688 574.519531 388.429688 L 574.519531 549.636719 C 574.519531 556.136719 569.207031 561.453125 562.714844 561.453125 L 430.105469 561.453125 L 430.105469 710.25 C 430.105469 713.007812 427.941406 715.175781 425.1875 715.175781 L 417.808594 715.175781 Z M 417.417969 376.613281 " fill-opacity="0.1" fill-rule="nonzero"/></g></svg>