<svg xmlns="http://www.w3.org/2000/svg" xmlns:xlink="http://www.w3.org/1999/xlink" width="500" zoomAndPan="magnify" viewBox="0 0 375 374.999991" height="500" preserveAspectRatio="xMidYMid meet" version="1.0"><defs><clipPath id="f60cf3c891"><path d="M 169 281 L 200 281 L 200 364.265625 L 169 364.265625 Z M 169 281 " clip-rule="nonzero"/></clipPath></defs><path fill="#f0f6ff" d="M 342.652344 57.453125 C 290.609375 11.996094 30.902344 11.101562 10.996094 82.328125 C 2.128906 114.058594 0.00390625 168.859375 15.824219 219.875 C 24.058594 246.417969 37.148438 271.933594 56.671875 292.648438 C 57.277344 293.292969 57.894531 293.933594 58.515625 294.566406 C 58.648438 294.703125 58.777344 294.835938 58.910156 294.96875 C 59.519531 295.585938 60.132812 296.203125 60.75 296.8125 C 60.859375 296.917969 60.960938 297.019531 61.070312 297.121094 C 61.640625 297.675781 62.214844 298.230469 62.796875 298.78125 C 62.902344 298.878906 63.007812 298.980469 63.109375 299.078125 C 63.742188 299.671875 64.382812 300.261719 65.027344 300.847656 C 65.175781 300.980469 65.320312 301.113281 65.46875 301.242188 C 66.128906 301.839844 66.796875 302.429688 67.46875 303.015625 C 67.492188 303.035156 67.511719 303.054688 67.53125 303.070312 C 68.195312 303.640625 68.859375 304.210938 69.535156 304.769531 C 69.683594 304.894531 69.832031 305.019531 69.980469 305.140625 C 70.65625 305.703125 71.339844 306.257812 72.03125 306.808594 C 72.148438 306.902344 72.265625 307 72.386719 307.09375 C 73.035156 307.605469 73.6875 308.117188 74.351562 308.621094 C 74.417969 308.675781 74.484375 308.730469 74.554688 308.78125 C 74.597656 308.816406 74.640625 308.851562 74.6875 308.882812 C 74.847656 309.003906 75.007812 309.125 75.167969 309.246094 C 75.472656 309.476562 75.777344 309.707031 76.082031 309.933594 C 76.269531 310.070312 76.453125 310.207031 76.640625 310.34375 C 76.9375 310.5625 77.234375 310.777344 77.53125 310.992188 C 77.714844 311.125 77.894531 311.253906 78.074219 311.386719 C 78.4375 311.648438 78.804688 311.902344 79.171875 312.164062 C 79.296875 312.25 79.421875 312.339844 79.546875 312.429688 C 79.996094 312.742188 80.449219 313.050781 80.902344 313.359375 C 81.085938 313.488281 81.277344 313.613281 81.464844 313.742188 C 81.765625 313.941406 82.066406 314.144531 82.367188 314.347656 C 82.578125 314.484375 82.785156 314.621094 82.992188 314.757812 C 83.289062 314.949219 83.582031 315.144531 83.882812 315.335938 C 84.085938 315.46875 84.289062 315.597656 84.492188 315.730469 C 84.855469 315.960938 85.21875 316.1875 85.585938 316.417969 C 85.761719 316.53125 85.941406 316.640625 86.121094 316.753906 C 86.558594 317.023438 87 317.292969 87.441406 317.5625 C 87.644531 317.6875 87.851562 317.8125 88.058594 317.933594 C 88.367188 318.117188 88.675781 318.300781 88.980469 318.480469 C 89.203125 318.613281 89.425781 318.742188 89.648438 318.871094 C 89.957031 319.050781 90.261719 319.226562 90.570312 319.402344 C 90.789062 319.527344 91.003906 319.648438 91.222656 319.773438 C 91.597656 319.988281 91.976562 320.199219 92.359375 320.410156 C 92.558594 320.519531 92.761719 320.632812 92.964844 320.742188 C 93.410156 320.988281 93.863281 321.234375 94.3125 321.472656 C 94.527344 321.589844 94.746094 321.699219 94.960938 321.816406 C 95.285156 321.988281 95.605469 322.15625 95.933594 322.324219 C 96.164062 322.445312 96.398438 322.5625 96.628906 322.683594 C 96.953125 322.847656 97.273438 323.011719 97.597656 323.175781 C 97.824219 323.289062 98.050781 323.402344 98.277344 323.515625 C 98.679688 323.710938 99.082031 323.910156 99.488281 324.105469 C 99.6875 324.203125 99.890625 324.300781 100.09375 324.398438 C 100.566406 324.625 101.042969 324.851562 101.523438 325.074219 C 101.738281 325.179688 101.960938 325.277344 102.183594 325.378906 C 102.527344 325.539062 102.871094 325.695312 103.21875 325.855469 C 103.457031 325.960938 103.695312 326.066406 103.933594 326.175781 L 104.972656 326.632812 C 105.199219 326.730469 105.429688 326.832031 105.65625 326.929688 C 106.101562 327.121094 106.546875 327.308594 106.992188 327.5 C 107.167969 327.570312 107.339844 327.644531 107.511719 327.714844 C 108.027344 327.929688 108.546875 328.140625 109.066406 328.351562 C 109.289062 328.441406 109.515625 328.527344 109.738281 328.617188 C 110.105469 328.761719 110.476562 328.910156 110.847656 329.054688 C 111.089844 329.148438 111.332031 329.242188 111.574219 329.332031 C 111.945312 329.476562 112.316406 329.617188 112.691406 329.757812 C 112.921875 329.839844 113.148438 329.929688 113.378906 330.015625 C 113.867188 330.191406 114.359375 330.371094 114.851562 330.546875 C 114.992188 330.597656 115.128906 330.644531 115.265625 330.699219 C 115.828125 330.894531 116.394531 331.09375 116.960938 331.285156 C 117.183594 331.363281 117.410156 331.4375 117.628906 331.511719 C 118.027344 331.644531 118.425781 331.777344 118.828125 331.910156 C 119.070312 331.988281 119.3125 332.070312 119.558594 332.148438 C 119.957031 332.277344 120.359375 332.40625 120.761719 332.53125 C 120.988281 332.605469 121.21875 332.675781 121.445312 332.746094 C 121.984375 332.914062 122.523438 333.078125 123.066406 333.238281 C 123.167969 333.269531 123.269531 333.300781 123.371094 333.332031 C 123.980469 333.511719 124.59375 333.691406 125.207031 333.863281 C 125.429688 333.929688 125.652344 333.988281 125.871094 334.050781 C 126.296875 334.171875 126.726562 334.289062 127.15625 334.40625 C 127.398438 334.472656 127.648438 334.535156 127.890625 334.601562 C 128.324219 334.71875 128.753906 334.828125 129.183594 334.941406 C 129.414062 335 129.636719 335.058594 129.867188 335.117188 C 130.449219 335.265625 131.039062 335.410156 131.625 335.554688 C 131.703125 335.574219 131.773438 335.589844 131.847656 335.609375 C 132.5 335.769531 133.152344 335.921875 133.808594 336.070312 C 134.027344 336.121094 134.25 336.171875 134.472656 336.222656 C 134.925781 336.324219 135.382812 336.421875 135.839844 336.523438 C 136.089844 336.578125 136.339844 336.628906 136.589844 336.683594 C 137.046875 336.78125 137.503906 336.875 137.964844 336.96875 C 138.191406 337.019531 138.417969 337.0625 138.648438 337.109375 C 139.285156 337.238281 139.921875 337.363281 140.5625 337.484375 C 140.609375 337.492188 140.65625 337.503906 140.703125 337.511719 C 141.386719 337.640625 142.078125 337.765625 142.769531 337.886719 C 142.992188 337.925781 143.214844 337.964844 143.4375 338.003906 C 143.921875 338.089844 144.40625 338.171875 144.890625 338.25 C 145.140625 338.292969 145.394531 338.335938 145.648438 338.375 C 146.132812 338.453125 146.617188 338.527344 147.105469 338.601562 C 147.335938 338.640625 147.566406 338.675781 147.796875 338.710938 C 148.476562 338.8125 149.160156 338.910156 149.84375 339.003906 C 149.875 339.011719 149.90625 339.015625 149.941406 339.019531 C 150.652344 339.121094 151.371094 339.214844 152.09375 339.304688 C 152.324219 339.332031 152.550781 339.363281 152.78125 339.390625 C 153.289062 339.453125 153.792969 339.515625 154.304688 339.574219 C 154.5625 339.601562 154.820312 339.632812 155.082031 339.664062 C 155.589844 339.71875 156.101562 339.773438 156.617188 339.828125 C 156.847656 339.851562 157.082031 339.878906 157.316406 339.898438 C 158.042969 339.976562 158.769531 340.046875 159.5 340.109375 C 159.515625 340.113281 159.53125 340.113281 159.546875 340.117188 C 160.292969 340.183594 161.042969 340.246094 161.796875 340.304688 C 162.03125 340.324219 162.265625 340.339844 162.5 340.359375 C 163.03125 340.398438 163.5625 340.4375 164.09375 340.472656 C 164.359375 340.492188 164.628906 340.511719 164.894531 340.527344 C 165.429688 340.5625 165.964844 340.59375 166.5 340.628906 C 166.742188 340.640625 166.980469 340.65625 167.222656 340.667969 C 167.980469 340.710938 168.746094 340.746094 169.507812 340.78125 C 169.519531 340.78125 169.527344 340.785156 169.539062 340.785156 C 170.3125 340.820312 171.09375 340.847656 171.875 340.875 C 172.121094 340.882812 172.367188 340.890625 172.613281 340.894531 C 173.160156 340.914062 173.710938 340.929688 174.261719 340.941406 C 174.539062 340.949219 174.816406 340.953125 175.09375 340.960938 C 175.648438 340.972656 176.203125 340.980469 176.761719 340.988281 C 177.011719 340.992188 177.257812 340.996094 177.511719 340.996094 C 178.308594 341.003906 179.109375 341.011719 179.914062 341.011719 C 180.726562 341.011719 181.527344 341.003906 182.332031 340.996094 C 182.582031 340.992188 182.828125 340.988281 183.074219 340.984375 C 183.644531 340.976562 184.207031 340.964844 184.769531 340.953125 C 185.042969 340.945312 185.3125 340.941406 185.585938 340.933594 C 186.164062 340.921875 186.742188 340.902344 187.320312 340.882812 C 187.542969 340.875 187.765625 340.867188 187.984375 340.859375 C 188.769531 340.832031 189.554688 340.796875 190.335938 340.761719 C 190.46875 340.753906 190.601562 340.746094 190.734375 340.738281 C 191.386719 340.703125 192.035156 340.671875 192.679688 340.632812 C 192.9375 340.613281 193.191406 340.597656 193.449219 340.582031 C 193.984375 340.550781 194.523438 340.511719 195.058594 340.472656 C 195.316406 340.453125 195.578125 340.4375 195.835938 340.417969 C 196.433594 340.371094 197.027344 340.324219 197.621094 340.277344 C 197.796875 340.257812 197.972656 340.246094 198.148438 340.230469 C 198.90625 340.164062 199.664062 340.09375 200.421875 340.019531 C 200.609375 340 200.796875 339.980469 200.984375 339.960938 C 201.554688 339.902344 202.128906 339.84375 202.695312 339.78125 L 203.460938 339.695312 C 203.980469 339.636719 204.5 339.574219 205.019531 339.511719 C 205.265625 339.480469 205.507812 339.453125 205.75 339.421875 C 206.390625 339.335938 207.035156 339.253906 207.671875 339.164062 C 207.773438 339.152344 207.875 339.140625 207.972656 339.125 C 208.707031 339.023438 209.441406 338.917969 210.171875 338.808594 C 210.386719 338.777344 210.601562 338.742188 210.816406 338.707031 C 211.335938 338.628906 211.859375 338.546875 212.378906 338.460938 C 212.628906 338.421875 212.878906 338.378906 213.132812 338.335938 C 213.644531 338.25 214.152344 338.164062 214.664062 338.074219 C 214.882812 338.035156 215.105469 338 215.320312 337.957031 C 216.039062 337.832031 216.75 337.699219 217.460938 337.5625 L 217.648438 337.527344 C 218.296875 337.402344 218.945312 337.273438 219.589844 337.140625 C 219.820312 337.09375 220.046875 337.046875 220.277344 337 C 220.761719 336.898438 221.25 336.796875 221.734375 336.691406 C 221.980469 336.636719 222.222656 336.585938 222.464844 336.53125 C 222.976562 336.417969 223.484375 336.304688 223.992188 336.183594 C 224.183594 336.140625 224.375 336.097656 224.566406 336.054688 C 225.253906 335.894531 225.941406 335.730469 226.621094 335.5625 C 226.773438 335.523438 226.921875 335.484375 227.074219 335.449219 C 227.613281 335.3125 228.148438 335.175781 228.679688 335.039062 C 228.914062 334.976562 229.148438 334.917969 229.382812 334.855469 C 229.84375 334.734375 230.304688 334.609375 230.765625 334.484375 C 231 334.421875 231.234375 334.355469 231.46875 334.292969 C 231.992188 334.144531 232.511719 334 233.03125 333.847656 C 233.183594 333.804688 233.335938 333.761719 233.488281 333.71875 C 234.144531 333.527344 234.804688 333.332031 235.457031 333.132812 C 235.648438 333.074219 235.839844 333.015625 236.03125 332.957031 C 236.503906 332.8125 236.976562 332.664062 237.449219 332.515625 C 237.683594 332.441406 237.917969 332.363281 238.152344 332.289062 C 238.597656 332.148438 239.039062 332.003906 239.480469 331.855469 C 239.699219 331.78125 239.921875 331.710938 240.140625 331.636719 C 240.707031 331.445312 241.277344 331.253906 241.839844 331.054688 C 241.917969 331.03125 242.003906 331.003906 242.078125 330.972656 C 242.714844 330.753906 243.34375 330.527344 243.972656 330.300781 C 244.183594 330.222656 244.394531 330.144531 244.605469 330.066406 C 245.035156 329.910156 245.464844 329.75 245.894531 329.585938 C 246.128906 329.5 246.359375 329.414062 246.59375 329.324219 C 247.023438 329.160156 247.453125 328.992188 247.878906 328.828125 C 248.085938 328.746094 248.289062 328.667969 248.492188 328.585938 C 249.105469 328.34375 249.714844 328.097656 250.320312 327.851562 C 250.441406 327.796875 250.5625 327.746094 250.683594 327.699219 C 251.179688 327.492188 251.675781 327.285156 252.167969 327.078125 C 252.386719 326.984375 252.609375 326.890625 252.828125 326.792969 C 253.230469 326.625 253.628906 326.449219 254.027344 326.273438 C 254.253906 326.175781 254.480469 326.074219 254.707031 325.972656 C 255.132812 325.785156 255.554688 325.59375 255.976562 325.402344 C 256.160156 325.320312 256.34375 325.238281 256.523438 325.152344 C 257.109375 324.886719 257.691406 324.613281 258.269531 324.339844 C 258.441406 324.257812 258.617188 324.171875 258.789062 324.089844 C 259.210938 323.890625 259.628906 323.6875 260.046875 323.480469 C 260.269531 323.371094 260.496094 323.261719 260.722656 323.148438 C 261.097656 322.964844 261.472656 322.78125 261.84375 322.589844 C 262.0625 322.480469 262.285156 322.371094 262.503906 322.253906 C 262.933594 322.039062 263.363281 321.816406 263.792969 321.589844 L 264.242188 321.359375 C 264.800781 321.066406 265.351562 320.769531 265.90625 320.472656 C 266.105469 320.363281 266.304688 320.253906 266.503906 320.144531 C 266.875 319.945312 267.246094 319.738281 267.613281 319.535156 C 267.839844 319.410156 268.066406 319.28125 268.289062 319.15625 C 268.644531 318.957031 268.996094 318.753906 269.351562 318.554688 C 269.5625 318.433594 269.773438 318.3125 269.988281 318.191406 C 270.449219 317.921875 270.910156 317.652344 271.371094 317.378906 C 271.539062 317.28125 271.710938 317.179688 271.878906 317.078125 C 272.332031 316.808594 272.78125 316.539062 273.230469 316.265625 C 273.445312 316.132812 273.652344 316.003906 273.863281 315.875 C 274.203125 315.664062 274.539062 315.457031 274.871094 315.25 L 275.539062 314.828125 C 275.878906 314.613281 276.21875 314.394531 276.554688 314.179688 C 276.757812 314.050781 276.957031 313.921875 277.160156 313.792969 C 277.667969 313.460938 278.171875 313.128906 278.675781 312.792969 C 278.839844 312.683594 279.007812 312.570312 279.171875 312.460938 C 279.53125 312.21875 279.890625 311.976562 280.25 311.730469 C 280.464844 311.585938 280.683594 311.433594 280.898438 311.285156 C 281.210938 311.070312 281.519531 310.855469 281.824219 310.640625 C 282.042969 310.488281 282.261719 310.335938 282.480469 310.179688 C 282.8125 309.949219 283.136719 309.714844 283.464844 309.476562 C 283.648438 309.347656 283.835938 309.214844 284.023438 309.082031 C 284.503906 308.730469 284.980469 308.378906 285.457031 308.027344 C 285.652344 307.882812 285.847656 307.734375 286.042969 307.589844 C 286.347656 307.359375 286.65625 307.128906 286.964844 306.894531 C 287.183594 306.730469 287.398438 306.5625 287.617188 306.394531 C 287.746094 306.296875 287.875 306.199219 288.003906 306.097656 C 288.074219 306.046875 288.144531 305.992188 288.210938 305.9375 C 289.050781 305.289062 289.878906 304.636719 290.699219 303.972656 C 290.761719 303.921875 290.828125 303.867188 290.894531 303.8125 C 291.710938 303.15625 292.519531 302.492188 293.316406 301.820312 C 293.382812 301.765625 293.445312 301.710938 293.511719 301.660156 C 294.316406 300.980469 295.113281 300.296875 295.902344 299.605469 C 296.027344 299.496094 296.152344 299.386719 296.277344 299.28125 C 297.054688 298.589844 297.832031 297.898438 298.597656 297.199219 C 298.683594 297.117188 298.773438 297.039062 298.859375 296.960938 C 299.640625 296.242188 300.414062 295.519531 301.179688 294.796875 C 301.199219 294.777344 301.222656 294.757812 301.238281 294.738281 C 302.003906 294.011719 302.761719 293.277344 303.507812 292.535156 C 303.625 292.421875 303.742188 292.304688 303.859375 292.191406 C 304.582031 291.46875 305.300781 290.746094 306.011719 290.015625 C 306.121094 289.902344 306.234375 289.785156 306.34375 289.667969 C 307.078125 288.914062 307.800781 288.15625 308.515625 287.390625 C 327.28125 267.292969 341.046875 243.238281 350.390625 218.269531 C 375 152.519531 368.9375 80.414062 342.652344 57.453125 Z M 342.652344 57.453125 " fill-opacity="1" fill-rule="nonzero"/><path fill="#2a3038" d="M 308.515625 287.390625 C 278.871094 319.140625 236.757812 341.011719 179.914062 341.011719 C 123.519531 341.011719 83.855469 321.488281 56.671875 292.648438 L 143.394531 223.847656 L 226.238281 223.847656 Z M 308.515625 287.390625 " fill-opacity="1" fill-rule="nonzero"/><path fill="#f0f6ff" d="M 224.589844 286.457031 L 144.226562 286.457031 C 105.101562 168.621094 170.464844 178.019531 184.410156 192.101562 C 198.355469 178.019531 263.714844 168.621094 224.589844 286.457031 Z M 224.589844 286.457031 " fill-opacity="1" fill-rule="nonzero"/><path fill="#fca703" d="M 135.53125 300.867188 C 139.695312 307.894531 151.398438 300.867188 151.398438 300.867188 L 148.042969 283.769531 C 148.042969 283.769531 131.363281 293.839844 135.53125 300.867188 Z M 135.53125 300.867188 " fill-opacity="1" fill-rule="nonzero"/><path fill="#fca703" d="M 220.773438 283.769531 L 217.414062 300.867188 C 217.414062 300.867188 229.117188 307.894531 233.285156 300.867188 C 237.453125 293.839844 220.773438 283.769531 220.773438 283.769531 Z M 220.773438 283.769531 " fill-opacity="1" fill-rule="nonzero"/><path fill="#0c981c" d="M 221.070312 193.671875 C 218.441406 199.023438 185.25 191.199219 185.25 191.199219 C 185.25 191.199219 152.066406 199.023438 149.4375 193.671875 C 147.910156 190.558594 147.121094 168.097656 148.128906 152.0625 C 148.777344 141.816406 150.15625 130.886719 152.546875 121.757812 C 152.851562 120.597656 153.171875 119.464844 153.507812 118.367188 C 160.207031 112.445312 173.542969 111.695312 173.542969 111.695312 L 185.25 110.082031 L 196.960938 111.695312 C 196.960938 111.695312 210.300781 112.445312 216.996094 118.367188 C 217.335938 119.464844 217.65625 120.59375 217.957031 121.757812 C 220.347656 130.886719 221.730469 141.820312 222.371094 152.0625 C 223.382812 168.097656 222.597656 190.558594 221.070312 193.671875 Z M 221.070312 193.671875 " fill-opacity="1" fill-rule="nonzero"/><path fill="#2a3038" d="M 147.167969 284.273438 C 165.6875 284.273438 184.15625 284.273438 184.15625 284.273438 L 184.15625 194.128906 C 173.589844 180.542969 111.128906 170.9375 147.167969 284.273438 Z M 147.167969 284.273438 " fill-opacity="1" fill-rule="nonzero"/><path fill="#2a3038" d="M 222.699219 284.273438 C 204.179688 284.273438 185.707031 284.273438 185.707031 284.273438 L 185.707031 194.128906 C 196.273438 180.542969 258.738281 170.9375 222.699219 284.273438 Z M 222.699219 284.273438 " fill-opacity="1" fill-rule="nonzero"/><path fill="#2a3038" d="M 173.207031 105.726562 C 173.207031 105.726562 184.292969 102.351562 197.296875 105.726562 C 194.15625 109.746094 188.539062 112.382812 183.859375 111.210938 C 179.175781 110.039062 173.207031 105.726562 173.207031 105.726562 Z M 173.207031 105.726562 " fill-opacity="1" fill-rule="nonzero"/><path fill="#f99573" d="M 196.289062 112.148438 L 174.214844 112.148438 C 174.539062 109.425781 174.941406 105.890625 175.265625 103.027344 C 175.585938 100.167969 175.828125 97.988281 175.828125 97.988281 L 194.675781 97.988281 C 194.675781 97.988281 194.921875 100.214844 195.246094 103.121094 C 195.570312 105.964844 195.964844 109.453125 196.289062 112.148438 Z M 196.289062 112.148438 " fill-opacity="1" fill-rule="nonzero"/><path fill="#2a3038" d="M 195.246094 103.121094 C 193.648438 104.398438 191.40625 105.414062 188.246094 105.726562 C 181.976562 106.347656 177.722656 104.597656 175.265625 103.027344 C 175.585938 100.167969 175.828125 97.988281 175.828125 97.988281 L 194.675781 97.988281 C 194.675781 97.988281 194.921875 100.214844 195.246094 103.121094 Z M 195.246094 103.121094 " fill-opacity="1" fill-rule="nonzero"/><path fill="#2a3038" d="M 163.398438 83.65625 C 163.398438 83.65625 163.113281 102.621094 184.597656 102.621094 C 206.082031 102.621094 207.335938 88.242188 207.335938 83.613281 C 207.335938 78.988281 163.398438 83.65625 163.398438 83.65625 Z M 163.398438 83.65625 " fill-opacity="1" fill-rule="nonzero"/><path fill="#0c981c" d="M 181.695312 98.5625 L 189.039062 98.5625 C 189.492188 98.5625 189.925781 98.742188 190.25 99.066406 C 190.570312 99.386719 190.75 99.824219 190.75 100.277344 L 190.75 101.859375 C 190.75 102.316406 190.570312 102.75 190.25 103.074219 C 189.925781 103.394531 189.492188 103.574219 189.039062 103.574219 L 181.695312 103.574219 C 181.242188 103.574219 180.808594 103.394531 180.484375 103.074219 C 180.164062 102.75 179.984375 102.316406 179.984375 101.859375 L 179.984375 100.277344 C 179.984375 99.824219 180.164062 99.386719 180.484375 99.066406 C 180.808594 98.742188 181.242188 98.5625 181.695312 98.5625 Z M 181.695312 98.5625 " fill-opacity="1" fill-rule="nonzero"/><path fill="#2a3038" d="M 163.890625 78.992188 C 163.890625 77.621094 150.296875 43.320312 185.273438 43.320312 C 220.25 43.320312 204.253906 80.515625 204.253906 80.515625 Z M 163.890625 78.992188 " fill-opacity="1" fill-rule="nonzero"/><path fill="#f99573" d="M 205.28125 83.058594 C 205.28125 89.964844 203.34375 100.027344 185.273438 100.027344 C 167.203125 100.027344 165.265625 89.964844 165.265625 83.058594 C 161.402344 83.867188 158.578125 79.652344 160.894531 72.941406 C 163.214844 66.234375 166.734375 72.390625 166.734375 72.390625 C 168.804688 72.390625 168.726562 65.714844 168.726562 65.714844 C 168.726562 65.714844 169.761719 66.660156 177.207031 63.746094 C 177.953125 69.574219 190.34375 69.640625 190.273438 66.320312 C 195.757812 69.167969 196.976562 62.527344 196.976562 62.527344 C 196.976562 62.527344 200.34375 67.390625 201.808594 64.367188 C 201.765625 66.246094 201.640625 72.390625 203.808594 72.390625 C 203.808594 72.390625 207.335938 66.234375 209.652344 72.941406 C 211.96875 79.652344 209.144531 83.867188 205.28125 83.058594 Z M 205.28125 83.058594 " fill-opacity="1" fill-rule="nonzero"/><path fill="#0c981c" d="M 211.675781 67.796875 C 211.675781 68.546875 211.671875 69.265625 211.667969 69.949219 C 211.613281 79.046875 211.085938 82.761719 207.335938 83.617188 C 206.660156 83.757812 205.96875 83.824219 205.277344 83.816406 L 205.277344 67.445312 C 205.277344 65.292969 203.179688 63.621094 200.769531 63.84375 C 197.929688 64.105469 195.089844 64.296875 192.253906 64.414062 C 190.609375 64.484375 188.964844 64.527344 187.320312 64.546875 C 185.503906 64.570312 183.691406 64.5625 181.875 64.523438 C 180.230469 64.492188 178.585938 64.433594 176.941406 64.351562 C 174.554688 64.234375 172.167969 64.066406 169.777344 63.84375 C 167.367188 63.621094 165.269531 65.292969 165.269531 67.445312 L 165.269531 83.820312 C 165.269531 83.816406 165.265625 83.816406 165.265625 83.816406 C 164.636719 83.824219 164.011719 83.769531 163.398438 83.65625 C 159.1875 82.828125 158.871094 78.632812 158.871094 67.796875 C 158.871094 53.941406 164.261719 42.277344 176.941406 38.820312 C 178.558594 38.382812 180.207031 38.089844 181.875 37.9375 C 182.964844 37.832031 184.097656 37.777344 185.273438 37.777344 C 185.972656 37.777344 186.65625 37.796875 187.320312 37.835938 C 188.980469 37.921875 190.628906 38.140625 192.253906 38.488281 C 205.902344 41.46875 211.675781 53.457031 211.675781 67.796875 Z M 211.675781 67.796875 " fill-opacity="1" fill-rule="nonzero"/><path fill="#2a3038" d="M 207.335938 83.613281 C 206.660156 83.757812 205.96875 83.824219 205.277344 83.8125 L 205.277344 67.445312 C 205.277344 65.292969 203.179688 63.621094 200.769531 63.84375 C 190.460938 64.796875 180.085938 64.796875 169.777344 63.84375 C 167.367188 63.621094 165.269531 65.292969 165.269531 67.445312 L 165.269531 83.820312 C 165.269531 83.816406 165.265625 83.816406 165.265625 83.8125 C 164.636719 83.820312 164.011719 83.769531 163.398438 83.65625 C 163.308594 78.933594 163.140625 65.527344 164.144531 63.441406 C 165.363281 60.898438 174.570312 62.527344 185.773438 62.527344 C 196.976562 62.527344 206.882812 62.222656 207.90625 64.460938 C 208.691406 66.175781 207.792969 78.160156 207.335938 83.613281 Z M 207.335938 83.613281 " fill-opacity="1" fill-rule="nonzero"/><path fill="#2a3038" d="M 181.875 37.9375 L 181.875 64.523438 C 180.230469 64.492188 178.585938 64.433594 176.941406 64.351562 L 176.941406 38.820312 C 178.558594 38.382812 180.207031 38.089844 181.875 37.9375 Z M 181.875 37.9375 " fill-opacity="1" fill-rule="nonzero"/><path fill="#2a3038" d="M 192.253906 38.488281 L 192.253906 64.414062 C 190.609375 64.484375 188.964844 64.527344 187.320312 64.546875 L 187.320312 37.835938 C 188.980469 37.921875 190.628906 38.140625 192.253906 38.488281 Z M 192.253906 38.488281 " fill-opacity="1" fill-rule="nonzero"/><path fill="#fca703" d="M 214.578125 66.660156 C 215.5 70.089844 211.476562 72.652344 208.707031 70.429688 C 200.308594 63.699219 191.839844 62.910156 185.273438 62.910156 C 178.703125 62.910156 170.238281 63.699219 161.839844 70.429688 C 159.070312 72.652344 155.046875 70.089844 155.96875 66.660156 C 157.519531 60.890625 162.183594 55.167969 162.816406 54.722656 C 174.464844 46.535156 180.753906 46.144531 185.273438 46.144531 C 189.792969 46.144531 196.082031 46.535156 207.730469 54.722656 C 208.363281 55.167969 213.027344 60.890625 214.578125 66.660156 Z M 214.578125 66.660156 " fill-opacity="1" fill-rule="nonzero"/><path fill="#2a3038" d="M 177.730469 75.433594 C 177.441406 75.433594 177.15625 75.492188 176.894531 75.601562 C 176.628906 75.710938 176.386719 75.871094 176.183594 76.074219 C 175.980469 76.277344 175.820312 76.519531 175.710938 76.785156 C 175.597656 77.050781 175.542969 77.335938 175.542969 77.625 L 175.542969 80.257812 C 175.542969 80.839844 175.773438 81.394531 176.183594 81.804688 C 176.59375 82.214844 177.148438 82.445312 177.730469 82.445312 C 178.308594 82.445312 178.867188 82.214844 179.277344 81.804688 C 179.6875 81.394531 179.917969 80.839844 179.917969 80.257812 L 179.917969 77.625 C 179.917969 77.335938 179.859375 77.050781 179.75 76.785156 C 179.640625 76.519531 179.480469 76.277344 179.277344 76.074219 C 179.074219 75.871094 178.832031 75.710938 178.566406 75.601562 C 178.300781 75.492188 178.015625 75.433594 177.730469 75.433594 Z M 177.730469 75.433594 " fill-opacity="1" fill-rule="nonzero"/><path fill="#2a3038" d="M 193.816406 75.433594 C 193.527344 75.433594 193.242188 75.492188 192.976562 75.601562 C 192.714844 75.710938 192.472656 75.871094 192.269531 76.074219 C 192.066406 76.277344 191.90625 76.519531 191.792969 76.785156 C 191.683594 77.050781 191.628906 77.335938 191.628906 77.625 L 191.628906 80.257812 C 191.628906 80.839844 191.859375 81.394531 192.269531 81.804688 C 192.679688 82.214844 193.234375 82.445312 193.816406 82.445312 C 194.394531 82.445312 194.953125 82.214844 195.363281 81.804688 C 195.773438 81.394531 196.003906 80.839844 196.003906 80.257812 L 196.003906 77.625 C 196.003906 77.335938 195.945312 77.050781 195.835938 76.785156 C 195.726562 76.519531 195.566406 76.277344 195.363281 76.074219 C 195.160156 75.871094 194.917969 75.710938 194.652344 75.601562 C 194.386719 75.492188 194.101562 75.433594 193.816406 75.433594 Z M 193.816406 75.433594 " fill-opacity="1" fill-rule="nonzero"/><path fill="#2a3038" d="M 180.316406 71.40625 C 180 72.875 173.5625 72.523438 173.511719 70.894531 C 173.4375 68.484375 181.109375 67.691406 180.316406 71.40625 Z M 180.316406 71.40625 " fill-opacity="1" fill-rule="nonzero"/><path fill="#2a3038" d="M 190.972656 71.40625 C 191.285156 72.875 197.726562 72.523438 197.777344 70.894531 C 197.851562 68.484375 190.175781 67.691406 190.972656 71.40625 Z M 190.972656 71.40625 " fill-opacity="1" fill-rule="nonzero"/><path fill="#2a3038" d="M 185.710938 87.339844 C 185.613281 87.339844 185.519531 87.335938 185.421875 87.328125 C 183.246094 87.191406 181.855469 85.519531 181.800781 85.449219 C 181.691406 85.320312 181.644531 85.15625 181.660156 84.988281 C 181.675781 84.820312 181.757812 84.667969 181.886719 84.5625 C 182.015625 84.457031 182.183594 84.40625 182.347656 84.421875 C 182.515625 84.4375 182.667969 84.519531 182.773438 84.648438 C 182.792969 84.675781 183.898438 85.972656 185.515625 86.070312 C 186.605469 86.132812 187.722656 85.636719 188.824219 84.59375 C 188.886719 84.535156 188.957031 84.492188 189.035156 84.460938 C 189.113281 84.433594 189.195312 84.417969 189.277344 84.421875 C 189.359375 84.421875 189.441406 84.441406 189.515625 84.472656 C 189.59375 84.507812 189.660156 84.554688 189.71875 84.617188 C 189.773438 84.675781 189.820312 84.746094 189.847656 84.824219 C 189.878906 84.902344 189.890625 84.984375 189.890625 85.066406 C 189.886719 85.148438 189.871094 85.230469 189.835938 85.308594 C 189.800781 85.382812 189.753906 85.453125 189.695312 85.507812 C 188.414062 86.722656 187.074219 87.339844 185.710938 87.339844 Z M 185.710938 87.339844 " fill-opacity="1" fill-rule="nonzero"/><path fill="#f0f6ff" d="M 179.410156 89.628906 C 179.410156 89.628906 186.242188 87.9375 192.253906 89.222656 C 189.328125 98.167969 180.417969 95.089844 179.410156 89.628906 Z M 179.410156 89.628906 " fill-opacity="1" fill-rule="nonzero"/><path fill="#0c981c" d="M 197.765625 112.988281 C 191.191406 115.160156 186.984375 115.507812 185.535156 115.558594 C 185.535156 115.5625 184.972656 115.5625 184.96875 115.558594 C 183.519531 115.507812 179.3125 115.160156 172.738281 112.988281 C 172.425781 111.738281 173.207031 105.726562 173.207031 105.726562 C 181.054688 106.546875 184.136719 109.011719 185.253906 111.265625 C 186.367188 109.011719 189.449219 106.546875 197.296875 105.726562 C 197.296875 105.726562 198.078125 111.738281 197.765625 112.988281 Z M 197.765625 112.988281 " fill-opacity="1" fill-rule="nonzero"/><path fill="#2a3038" d="M 222.371094 152.066406 L 185.304688 177.027344 L 185.253906 177.0625 L 185.203125 177.027344 L 148.128906 152.0625 C 148.777344 141.816406 150.15625 130.886719 152.546875 121.757812 L 185.253906 147.554688 L 217.957031 121.757812 C 220.347656 130.886719 221.730469 141.820312 222.371094 152.066406 Z M 222.371094 152.066406 " fill-opacity="1" fill-rule="nonzero"/><path fill="#f0f6ff" d="M 186.347656 115.296875 L 184.15625 115.296875 L 184.15625 188.722656 L 186.347656 188.722656 Z M 186.347656 115.296875 " fill-opacity="1" fill-rule="nonzero"/><path fill="#0c981c" d="M 156.554688 116.230469 C 132.234375 120.089844 124.429688 165.496094 135.707031 166.40625 C 146.988281 167.3125 153.085938 165.707031 155.222656 163.125 C 157.359375 160.539062 154.007812 142.453125 153.308594 138.019531 C 152.605469 133.585938 160.886719 116.46875 156.554688 116.230469 Z M 156.554688 116.230469 " fill-opacity="1" fill-rule="nonzero"/><path fill="#2a3038" d="M 153.269531 165.421875 C 153.269531 165.421875 156.386719 153.652344 144.0625 153.5625 C 131.734375 153.476562 131.308594 166.917969 135.734375 168.941406 C 140.160156 170.964844 153.269531 165.421875 153.269531 165.421875 Z M 153.269531 165.421875 " fill-opacity="1" fill-rule="nonzero"/><path fill="#0c981c" d="M 212.574219 116.230469 C 236.894531 120.089844 244.699219 165.496094 233.421875 166.40625 C 222.140625 167.3125 216.042969 165.707031 213.90625 163.125 C 211.769531 160.539062 215.121094 142.453125 215.820312 138.019531 C 216.523438 133.585938 208.242188 116.46875 212.574219 116.230469 Z M 212.574219 116.230469 " fill-opacity="1" fill-rule="nonzero"/><path fill="#2a3038" d="M 215.859375 165.421875 C 215.859375 165.421875 212.742188 153.652344 225.066406 153.5625 C 237.394531 153.476562 237.820312 166.917969 233.394531 168.941406 C 228.96875 170.964844 215.859375 165.421875 215.859375 165.421875 Z M 215.859375 165.421875 " fill-opacity="1" fill-rule="nonzero"/><path fill="#0c981c" d="M 248.0625 69.660156 C 247.960938 69.660156 247.863281 69.65625 247.761719 69.648438 C 247.171875 69.605469 246.601562 69.429688 246.089844 69.140625 C 245.578125 68.847656 245.132812 68.445312 244.796875 67.964844 L 235.222656 54.347656 C 234.917969 53.917969 234.703125 53.433594 234.589844 52.921875 C 234.472656 52.410156 234.460938 51.878906 234.550781 51.363281 C 234.640625 50.84375 234.832031 50.347656 235.113281 49.90625 C 235.394531 49.460938 235.757812 49.078125 236.1875 48.777344 C 236.617188 48.472656 237.101562 48.257812 237.613281 48.144531 C 238.125 48.027344 238.65625 48.015625 239.171875 48.105469 C 239.691406 48.195312 240.183594 48.386719 240.628906 48.667969 C 241.070312 48.949219 241.453125 49.316406 241.757812 49.746094 L 248.539062 59.386719 L 267.195312 39.914062 C 267.558594 39.535156 267.992188 39.230469 268.472656 39.019531 C 268.953125 38.808594 269.46875 38.691406 269.996094 38.683594 C 270.519531 38.671875 271.042969 38.761719 271.53125 38.953125 C 272.019531 39.144531 272.464844 39.429688 272.84375 39.792969 C 273.222656 40.15625 273.527344 40.589844 273.738281 41.074219 C 273.949219 41.554688 274.0625 42.070312 274.074219 42.597656 C 274.085938 43.121094 273.992188 43.644531 273.800781 44.132812 C 273.613281 44.621094 273.328125 45.070312 272.964844 45.449219 L 250.945312 68.429688 C 250.574219 68.820312 250.125 69.128906 249.628906 69.339844 C 249.136719 69.550781 248.601562 69.660156 248.0625 69.660156 Z M 248.0625 69.660156 " fill-opacity="1" fill-rule="nonzero"/><path fill="#2a3038" d="M 164.621094 311.042969 C 164.621094 311.042969 164.554688 313.296875 164.273438 316.527344 C 161.796875 315.964844 159.375 315.171875 157.039062 314.164062 C 158.113281 310.035156 158.984375 307.058594 158.984375 307.058594 Z M 164.621094 311.042969 " fill-opacity="1" fill-rule="nonzero"/><path fill="#2a3038" d="M 211.773438 314.164062 C 209.441406 315.171875 207.019531 315.964844 204.539062 316.527344 C 204.261719 313.296875 204.195312 311.042969 204.195312 311.042969 L 209.832031 307.058594 C 209.832031 307.058594 210.699219 310.039062 211.773438 314.164062 Z M 211.773438 314.164062 " fill-opacity="1" fill-rule="nonzero"/><path fill="#f0f6ff" d="M 164.703125 163.570312 C 164.421875 163.570312 164.148438 163.472656 163.933594 163.292969 C 163.714844 163.113281 163.566406 162.863281 163.515625 162.585938 C 162.992188 160.316406 162.109375 158.140625 160.90625 156.148438 C 158.304688 151.835938 154.675781 149.238281 150.117188 148.429688 C 149.804688 148.375 149.523438 148.195312 149.335938 147.929688 C 149.152344 147.667969 149.082031 147.339844 149.136719 147.023438 C 149.195312 146.710938 149.375 146.425781 149.636719 146.242188 C 149.898438 146.058594 150.226562 145.988281 150.542969 146.042969 C 155.769531 146.972656 160.085938 150.058594 163.023438 154.96875 C 164.359375 157.1875 165.328125 159.605469 165.894531 162.132812 C 165.925781 162.308594 165.921875 162.488281 165.878906 162.660156 C 165.832031 162.835938 165.75 162.996094 165.636719 163.132812 C 165.523438 163.269531 165.378906 163.378906 165.21875 163.457031 C 165.058594 163.53125 164.882812 163.570312 164.703125 163.570312 Z M 164.703125 163.570312 " fill-opacity="1" fill-rule="nonzero"/><path fill="#fca703" d="M 148.789062 153.5625 C 153.078125 153.5625 156.554688 150.082031 156.554688 145.792969 C 156.554688 141.5 153.078125 138.019531 148.789062 138.019531 C 144.5 138.019531 141.023438 141.5 141.023438 145.792969 C 141.023438 150.082031 144.5 153.5625 148.789062 153.5625 Z M 148.789062 153.5625 " fill-opacity="1" fill-rule="nonzero"/><path fill="#f0f6ff" d="M 204.089844 163.570312 C 203.910156 163.570312 203.734375 163.53125 203.574219 163.453125 C 203.414062 163.378906 203.269531 163.269531 203.15625 163.132812 C 203.042969 162.996094 202.960938 162.832031 202.914062 162.660156 C 202.871094 162.488281 202.863281 162.308594 202.898438 162.132812 C 203.464844 159.605469 204.433594 157.1875 205.769531 154.96875 C 208.707031 150.058594 213.023438 146.972656 218.25 146.042969 C 218.566406 145.988281 218.894531 146.058594 219.15625 146.242188 C 219.417969 146.425781 219.597656 146.710938 219.65625 147.023438 C 219.710938 147.339844 219.640625 147.667969 219.453125 147.929688 C 219.269531 148.195312 218.988281 148.375 218.671875 148.429688 C 214.117188 149.238281 210.488281 151.835938 207.886719 156.148438 C 206.683594 158.140625 205.800781 160.316406 205.277344 162.585938 C 205.222656 162.863281 205.078125 163.113281 204.859375 163.292969 C 204.644531 163.46875 204.371094 163.570312 204.089844 163.570312 Z M 204.089844 163.570312 " fill-opacity="1" fill-rule="nonzero"/><path fill="#2a3038" d="M 173.789062 172.640625 L 173.789062 186.867188 L 195.027344 186.867188 L 195.027344 171.863281 Z M 173.789062 172.640625 " fill-opacity="1" fill-rule="nonzero"/><path fill="#2a3038" d="M 156.125 163.460938 L 141.496094 163.460938 C 141.109375 163.460938 140.726562 163.535156 140.367188 163.683594 C 140.011719 163.832031 139.6875 164.050781 139.414062 164.324219 C 139.140625 164.597656 138.921875 164.921875 138.777344 165.277344 C 138.628906 165.636719 138.550781 166.019531 138.550781 166.40625 C 138.550781 166.792969 138.628906 167.175781 138.777344 167.535156 C 138.921875 167.890625 139.140625 168.214844 139.414062 168.488281 C 139.6875 168.761719 140.011719 168.980469 140.367188 169.128906 C 140.726562 169.277344 141.109375 169.351562 141.496094 169.351562 L 156.125 169.351562 C 156.90625 169.351562 157.65625 169.042969 158.207031 168.488281 C 158.757812 167.9375 159.070312 167.1875 159.070312 166.40625 C 159.070312 165.625 158.757812 164.875 158.207031 164.324219 C 157.65625 163.769531 156.90625 163.460938 156.125 163.460938 Z M 156.125 163.460938 " fill-opacity="1" fill-rule="nonzero"/><path fill="#2a3038" d="M 227.320312 163.460938 L 212.691406 163.460938 C 211.910156 163.460938 211.160156 163.769531 210.609375 164.324219 C 210.054688 164.875 209.746094 165.625 209.746094 166.40625 C 209.746094 167.1875 210.054688 167.9375 210.609375 168.488281 C 211.160156 169.042969 211.910156 169.351562 212.691406 169.351562 L 227.320312 169.351562 C 227.707031 169.351562 228.089844 169.277344 228.445312 169.128906 C 228.804688 168.980469 229.128906 168.761719 229.402344 168.488281 C 229.675781 168.214844 229.890625 167.890625 230.039062 167.535156 C 230.1875 167.175781 230.261719 166.792969 230.261719 166.40625 C 230.261719 166.019531 230.1875 165.636719 230.039062 165.277344 C 229.890625 164.921875 229.675781 164.597656 229.402344 164.324219 C 229.128906 164.050781 228.804688 163.832031 228.445312 163.683594 C 228.089844 163.535156 227.707031 163.460938 227.320312 163.460938 Z M 227.320312 163.460938 " fill-opacity="1" fill-rule="nonzero"/><path fill="#fca703" d="M 154.0625 163.125 L 154.0625 168.40625 C 154.0625 169.835938 154.984375 170.996094 156.121094 170.996094 L 175.007812 170.996094 C 176.144531 170.996094 177.066406 169.835938 177.066406 168.40625 L 177.066406 159.921875 C 177.066406 158.132812 175.660156 156.894531 174.316406 157.484375 C 167.210938 160.617188 159.757812 160.71875 156.199219 160.539062 C 155.035156 160.480469 154.0625 161.65625 154.0625 163.125 Z M 154.0625 163.125 " fill-opacity="1" fill-rule="nonzero"/><path fill="#fca703" d="M 191.746094 159.921875 L 191.746094 168.40625 C 191.746094 169.835938 192.667969 170.996094 193.804688 170.996094 L 212.691406 170.996094 C 213.828125 170.996094 214.75 169.835938 214.75 168.40625 L 214.75 163.125 C 214.75 161.65625 213.78125 160.480469 212.613281 160.539062 C 209.054688 160.71875 201.605469 160.617188 194.496094 157.484375 C 193.152344 156.894531 191.746094 158.132812 191.746094 159.921875 Z M 191.746094 159.921875 " fill-opacity="1" fill-rule="nonzero"/><path fill="#fca703" d="M 197.628906 176.695312 C 204.933594 169.386719 204.933594 157.535156 197.628906 150.226562 C 190.328125 142.917969 178.488281 142.917969 171.183594 150.226562 C 163.882812 157.535156 163.882812 169.386719 171.183594 176.695312 C 178.488281 184.003906 190.328125 184.003906 197.628906 176.695312 Z M 197.628906 176.695312 " fill-opacity="1" fill-rule="nonzero"/><path fill="#f0f6ff" d="M 196.871094 166.402344 C 198.496094 159.515625 194.234375 152.609375 187.351562 150.984375 C 180.464844 149.359375 173.566406 153.625 171.941406 160.511719 C 170.316406 167.402344 174.582031 174.308594 181.464844 175.933594 C 188.347656 177.558594 195.246094 173.292969 196.871094 166.402344 Z M 196.871094 166.402344 " fill-opacity="1" fill-rule="nonzero"/><path fill="#fca703" d="M 220.003906 153.5625 C 224.292969 153.5625 227.769531 150.082031 227.769531 145.792969 C 227.769531 141.5 224.292969 138.019531 220.003906 138.019531 C 215.714844 138.019531 212.238281 141.5 212.238281 145.792969 C 212.238281 150.082031 215.714844 153.5625 220.003906 153.5625 Z M 220.003906 153.5625 " fill-opacity="1" fill-rule="nonzero"/><path fill="#0c981c" d="M 220.820312 307.039062 C 218.738281 310.222656 215.492188 312.515625 211.773438 314.164062 C 209.441406 315.171875 207.019531 315.964844 204.539062 316.527344 C 202.769531 316.941406 200.992188 317.261719 199.265625 317.503906 C 194.34375 318.1875 189.371094 318.410156 184.40625 318.175781 C 179.445312 318.410156 174.46875 318.1875 169.546875 317.503906 C 167.820312 317.261719 166.046875 316.941406 164.273438 316.527344 C 161.792969 315.964844 159.371094 315.171875 157.039062 314.164062 C 153.320312 312.511719 150.078125 310.222656 147.996094 307.039062 C 139.503906 294.039062 146.6875 260.253906 147.996094 229.761719 C 149.167969 202.398438 146.394531 187.402344 173.789062 184.617188 C 175.015625 184.492188 176.304688 184.394531 177.652344 184.316406 L 177.65625 184.316406 C 179.359375 184.21875 181.160156 184.160156 183.066406 184.144531 C 183.289062 184.144531 183.511719 184.140625 183.734375 184.140625 C 183.957031 184.140625 184.183594 184.140625 184.40625 184.140625 C 184.632812 184.140625 184.855469 184.140625 185.078125 184.140625 C 185.304688 184.140625 185.523438 184.144531 185.746094 184.144531 C 187.652344 184.164062 189.457031 184.21875 191.15625 184.316406 L 191.160156 184.316406 C 192.511719 184.394531 193.800781 184.492188 195.027344 184.617188 C 222.417969 187.402344 219.648438 202.402344 220.820312 229.761719 C 222.128906 260.253906 229.308594 294.039062 220.820312 307.039062 Z M 220.820312 307.039062 " fill-opacity="1" fill-rule="nonzero"/><g clip-path="url(#f60cf3c891)"><path fill="#2a3038" d="M 184.40625 281.8125 C 188.347656 281.8125 192.128906 283.378906 194.914062 286.167969 C 197.703125 288.957031 199.265625 292.738281 199.265625 296.683594 L 199.265625 349.289062 C 199.265625 353.234375 197.703125 357.015625 194.914062 359.804688 C 192.128906 362.59375 188.347656 364.160156 184.40625 364.160156 C 180.464844 364.160156 176.6875 362.59375 173.898438 359.804688 C 171.113281 357.015625 169.546875 353.234375 169.546875 349.289062 L 169.546875 296.683594 C 169.546875 294.730469 169.933594 292.796875 170.679688 290.992188 C 171.425781 289.1875 172.519531 287.546875 173.898438 286.167969 C 175.28125 284.785156 176.917969 283.691406 178.722656 282.941406 C 180.523438 282.195312 182.457031 281.8125 184.40625 281.8125 Z M 184.40625 281.8125 " fill-opacity="1" fill-rule="nonzero"/></g><path fill="#fca703" d="M 200.453125 310.472656 L 169.496094 311.039062 C 168.714844 311.054688 167.945312 310.90625 167.226562 310.605469 C 166.507812 310.304688 165.859375 309.859375 165.320312 309.296875 C 164.785156 308.734375 164.371094 308.0625 164.105469 307.332031 C 163.839844 306.597656 163.726562 305.820312 163.777344 305.042969 L 165.6875 275.882812 C 165.960938 271.699219 167.792969 267.769531 170.824219 264.878906 C 173.855469 261.984375 177.863281 260.335938 182.050781 260.257812 L 186.050781 260.183594 C 190.238281 260.109375 194.304688 261.609375 197.4375 264.390625 C 200.574219 267.171875 202.550781 271.03125 202.976562 275.199219 L 205.945312 304.273438 C 206.027344 305.046875 205.945312 305.828125 205.703125 306.570312 C 205.464844 307.3125 205.078125 307.996094 204.558594 308.578125 C 204.042969 309.160156 203.414062 309.632812 202.707031 309.957031 C 202 310.285156 201.230469 310.457031 200.453125 310.472656 Z M 200.453125 310.472656 " fill-opacity="1" fill-rule="nonzero"/><path fill="#f0f6ff" d="M 156.964844 257.28125 C 161.589844 257.28125 165.335938 253.53125 165.335938 248.90625 C 165.335938 244.277344 161.589844 240.527344 156.964844 240.527344 C 152.34375 240.527344 148.59375 244.277344 148.59375 248.90625 C 148.59375 253.53125 152.34375 257.28125 156.964844 257.28125 Z M 156.964844 257.28125 " fill-opacity="1" fill-rule="nonzero"/><path fill="#f0f6ff" d="M 211.726562 257.28125 C 216.351562 257.28125 220.101562 253.53125 220.101562 248.90625 C 220.101562 244.277344 216.351562 240.527344 211.726562 240.527344 C 207.105469 240.527344 203.355469 244.277344 203.355469 248.90625 C 203.355469 253.53125 207.105469 257.28125 211.726562 257.28125 Z M 211.726562 257.28125 " fill-opacity="1" fill-rule="nonzero"/><path fill="#fca703" d="M 197.960938 245.953125 C 189.136719 242.144531 180.089844 242.3125 170.855469 245.953125 L 177.65625 184.296875 C 179.75 184.191406 182 184.140625 184.40625 184.140625 C 186.816406 184.140625 189.066406 184.191406 191.15625 184.296875 Z M 197.960938 245.953125 " fill-opacity="1" fill-rule="nonzero"/><path fill="#2a3038" d="M 71.136719 108.503906 L 71.136719 108.574219 L 71.085938 108.539062 Z M 71.136719 108.503906 " fill-opacity="1" fill-rule="nonzero"/><path fill="#2a3038" d="M 71.085938 108.539062 L 71.03125 108.574219 L 71.03125 108.503906 Z M 71.085938 108.539062 " fill-opacity="1" fill-rule="nonzero"/><path fill="#f99573" d="M 221.488281 157.878906 C 215.71875 158.304688 214.234375 171.261719 216.648438 173.847656 C 219.066406 176.4375 221.582031 172.15625 221.582031 172.15625 C 223.328125 174.152344 229.1875 174.984375 233.632812 171.46875 C 235.527344 162.003906 232.109375 157.101562 221.488281 157.878906 Z M 221.488281 157.878906 " fill-opacity="1" fill-rule="nonzero"/><path fill="#2a3038" d="M 222.011719 165.332031 L 221.582031 168.191406 L 227.769531 168.144531 C 227.859375 168.152344 228.457031 168.722656 229.546875 168.53125 C 231.015625 168.273438 231.566406 165.578125 229.734375 164.863281 C 228.417969 164.351562 227.769531 165.566406 227.769531 165.566406 Z M 222.011719 165.332031 " fill-opacity="1" fill-rule="nonzero"/><path fill="#f99573" d="M 147.257812 157.878906 C 153.03125 158.304688 154.515625 171.261719 152.097656 173.847656 C 149.679688 176.4375 147.167969 172.15625 147.167969 172.15625 C 145.417969 174.152344 139.558594 174.984375 135.113281 171.46875 C 133.222656 162.003906 136.640625 157.101562 147.257812 157.878906 Z M 147.257812 157.878906 " fill-opacity="1" fill-rule="nonzero"/><path fill="#2a3038" d="M 146.738281 165.332031 L 147.167969 168.191406 L 140.976562 168.144531 C 140.886719 168.152344 140.289062 168.722656 139.199219 168.53125 C 137.730469 168.273438 137.179688 165.578125 139.015625 164.863281 C 140.332031 164.351562 140.976562 165.566406 140.976562 165.566406 Z M 146.738281 165.332031 " fill-opacity="1" fill-rule="nonzero"/><path fill="#2a3038" d="M 110.804688 20.714844 L 31.257812 20.714844 C 27.242188 20.714844 23.984375 23.972656 23.984375 27.988281 L 23.984375 174.832031 C 23.984375 178.851562 27.242188 182.109375 31.257812 182.109375 L 110.804688 182.109375 C 114.816406 182.109375 118.074219 178.851562 118.074219 174.832031 L 118.074219 27.988281 C 118.074219 23.972656 114.816406 20.714844 110.804688 20.714844 Z M 110.804688 20.714844 " fill-opacity="1" fill-rule="nonzero"/><path fill="#f0f6ff" d="M 35.265625 27.507812 L 106.796875 27.507812 C 107.835938 27.507812 108.832031 27.921875 109.566406 28.65625 C 110.300781 29.394531 110.714844 30.390625 110.714844 31.433594 L 110.714844 170.039062 C 110.714844 171.078125 110.300781 172.078125 109.566406 172.8125 C 108.832031 173.550781 107.835938 173.960938 106.796875 173.960938 L 35.265625 173.960938 C 34.222656 173.960938 33.226562 173.550781 32.492188 172.8125 C 31.757812 172.078125 31.34375 171.078125 31.34375 170.039062 L 31.34375 31.433594 C 31.34375 30.917969 31.445312 30.40625 31.640625 29.929688 C 31.839844 29.453125 32.128906 29.019531 32.492188 28.65625 C 32.855469 28.292969 33.289062 28.003906 33.765625 27.804688 C 34.238281 27.609375 34.75 27.507812 35.265625 27.507812 Z M 35.265625 27.507812 " fill-opacity="1" fill-rule="nonzero"/><path fill="#2a3038" d="M 59.476562 30.316406 L 82.585938 30.316406 C 83.925781 30.316406 85.214844 30.851562 86.164062 31.800781 C 87.113281 32.75 87.648438 34.039062 87.648438 35.382812 C 87.648438 36.046875 87.515625 36.707031 87.261719 37.320312 C 87.007812 37.9375 86.632812 38.496094 86.164062 38.964844 C 85.695312 39.4375 85.136719 39.808594 84.523438 40.0625 C 83.90625 40.320312 83.25 40.449219 82.585938 40.449219 L 59.476562 40.449219 C 58.808594 40.449219 58.152344 40.320312 57.539062 40.0625 C 56.921875 39.808594 56.363281 39.4375 55.894531 38.964844 C 55.425781 38.496094 55.050781 37.9375 54.796875 37.320312 C 54.542969 36.707031 54.414062 36.046875 54.414062 35.382812 C 54.414062 34.039062 54.945312 32.75 55.894531 31.800781 C 56.84375 30.851562 58.132812 30.316406 59.476562 30.316406 Z M 59.476562 30.316406 " fill-opacity="1" fill-rule="nonzero"/><path fill="#0c981c" d="M 47.628906 58.78125 C 44.550781 58.785156 41.597656 60.007812 39.417969 62.1875 C 37.242188 64.367188 36.015625 67.324219 36.015625 70.40625 C 36.015625 75.144531 42.347656 86.574219 45.660156 92.230469 C 45.863281 92.574219 46.148438 92.859375 46.496094 93.058594 C 46.839844 93.257812 47.230469 93.359375 47.628906 93.359375 C 48.027344 93.359375 48.417969 93.257812 48.765625 93.058594 C 49.109375 92.859375 49.398438 92.574219 49.597656 92.230469 C 52.910156 86.574219 59.242188 75.144531 59.242188 70.40625 C 59.242188 67.324219 58.019531 64.367188 55.839844 62.1875 C 53.664062 60.007812 50.710938 58.78125 47.628906 58.78125 Z M 47.628906 77.296875 C 46.316406 77.296875 45.035156 76.910156 43.945312 76.179688 C 42.855469 75.449219 42.003906 74.414062 41.503906 73.199219 C 41 71.988281 40.867188 70.652344 41.125 69.367188 C 41.382812 68.078125 42.011719 66.894531 42.941406 65.96875 C 43.867188 65.039062 45.050781 64.40625 46.335938 64.152344 C 47.621094 63.894531 48.957031 64.027344 50.167969 64.527344 C 51.378906 65.03125 52.414062 65.882812 53.144531 66.972656 C 53.871094 68.066406 54.261719 69.347656 54.261719 70.660156 C 54.261719 71.53125 54.089844 72.394531 53.757812 73.199219 C 53.421875 74.007812 52.933594 74.738281 52.320312 75.355469 C 51.703125 75.96875 50.972656 76.460938 50.167969 76.792969 C 49.363281 77.125 48.5 77.296875 47.628906 77.296875 Z M 47.628906 77.296875 " fill-opacity="1" fill-rule="nonzero"/><path fill="#0c981c" d="M 58.609375 126.089844 C 55.53125 126.089844 52.578125 127.316406 50.398438 129.496094 C 48.222656 131.675781 46.996094 134.632812 46.996094 137.714844 C 46.996094 142.453125 53.328125 153.882812 56.640625 159.539062 C 56.84375 159.882812 57.128906 160.167969 57.476562 160.367188 C 57.820312 160.566406 58.210938 160.667969 58.609375 160.667969 C 59.007812 160.667969 59.398438 160.566406 59.746094 160.367188 C 60.089844 160.167969 60.378906 159.882812 60.578125 159.539062 C 63.890625 153.882812 70.222656 142.453125 70.222656 137.714844 C 70.222656 134.632812 69 131.675781 66.820312 129.496094 C 64.644531 127.316406 61.691406 126.089844 58.609375 126.089844 Z M 58.609375 144.605469 C 57.296875 144.605469 56.015625 144.21875 54.925781 143.488281 C 53.835938 142.757812 52.984375 141.722656 52.484375 140.507812 C 51.980469 139.296875 51.851562 137.960938 52.105469 136.675781 C 52.363281 135.386719 52.992188 134.203125 53.921875 133.277344 C 54.847656 132.347656 56.03125 131.714844 57.316406 131.460938 C 58.601562 131.203125 59.9375 131.335938 61.148438 131.835938 C 62.359375 132.339844 63.394531 133.191406 64.125 134.28125 C 64.855469 135.375 65.242188 136.65625 65.242188 137.96875 C 65.242188 138.839844 65.070312 139.703125 64.738281 140.507812 C 64.40625 141.316406 63.917969 142.046875 63.300781 142.664062 C 62.683594 143.277344 61.953125 143.769531 61.148438 144.101562 C 60.34375 144.433594 59.480469 144.605469 58.609375 144.605469 Z M 58.609375 144.605469 " fill-opacity="1" fill-rule="nonzero"/><path fill="#2a3038" d="M 50.65625 87.433594 C 50.625 87.433594 50.597656 87.433594 50.566406 87.429688 C 48.765625 87.300781 47.683594 87.335938 47.675781 87.335938 C 47.351562 87.347656 47.042969 87.234375 46.804688 87.015625 C 46.570312 86.796875 46.429688 86.492188 46.417969 86.171875 C 46.40625 85.851562 46.523438 85.535156 46.742188 85.300781 C 46.960938 85.066406 47.261719 84.925781 47.585938 84.914062 C 47.632812 84.914062 48.792969 84.871094 50.742188 85.011719 C 51.054688 85.035156 51.34375 85.175781 51.554688 85.410156 C 51.765625 85.644531 51.875 85.949219 51.863281 86.261719 C 51.851562 86.578125 51.722656 86.875 51.496094 87.09375 C 51.269531 87.308594 50.96875 87.433594 50.65625 87.433594 Z M 50.65625 87.433594 " fill-opacity="1" fill-rule="nonzero"/><path fill="#2a3038" d="M 67.191406 151.0625 C 66.914062 151.0625 66.648438 150.96875 66.433594 150.796875 C 66.21875 150.621094 66.070312 150.382812 66.007812 150.113281 C 65.949219 149.84375 65.980469 149.5625 66.101562 149.316406 C 66.222656 149.066406 66.425781 148.871094 66.675781 148.753906 C 68.570312 147.859375 70.414062 146.914062 72.148438 145.9375 C 72.429688 145.78125 72.761719 145.742188 73.070312 145.828125 C 73.378906 145.914062 73.640625 146.121094 73.796875 146.402344 C 73.957031 146.683594 73.996094 147.011719 73.90625 147.324219 C 73.820312 147.632812 73.613281 147.894531 73.335938 148.050781 C 71.546875 149.054688 69.652344 150.027344 67.707031 150.945312 C 67.542969 151.019531 67.367188 151.0625 67.191406 151.0625 Z M 78.050781 144.925781 C 77.792969 144.925781 77.542969 144.84375 77.332031 144.691406 C 77.125 144.535156 76.96875 144.320312 76.894531 144.070312 C 76.816406 143.824219 76.824219 143.558594 76.90625 143.3125 C 76.992188 143.070312 77.15625 142.859375 77.367188 142.710938 C 79.050781 141.570312 80.667969 140.332031 82.207031 139.003906 C 82.449219 138.792969 82.765625 138.6875 83.085938 138.710938 C 83.40625 138.730469 83.707031 138.882812 83.917969 139.125 C 84.128906 139.367188 84.234375 139.683594 84.210938 140.003906 C 84.1875 140.324219 84.039062 140.625 83.796875 140.832031 C 82.183594 142.222656 80.492188 143.519531 78.734375 144.714844 C 78.53125 144.851562 78.296875 144.925781 78.050781 144.925781 Z M 87.382812 136.699219 C 87.152344 136.699219 86.929688 136.632812 86.734375 136.507812 C 86.539062 136.382812 86.386719 136.207031 86.289062 136 C 86.191406 135.792969 86.152344 135.558594 86.183594 135.332031 C 86.210938 135.101562 86.308594 134.886719 86.453125 134.710938 C 87.734375 133.191406 88.835938 131.527344 89.730469 129.753906 C 89.800781 129.613281 89.898438 129.484375 90.019531 129.378906 C 90.136719 129.273438 90.277344 129.195312 90.429688 129.144531 C 90.578125 129.09375 90.738281 129.070312 90.898438 129.082031 C 91.054688 129.09375 91.210938 129.136719 91.351562 129.207031 C 91.496094 129.277344 91.625 129.375 91.726562 129.496094 C 91.832031 129.613281 91.914062 129.753906 91.964844 129.90625 C 92.015625 130.054688 92.035156 130.214844 92.023438 130.375 C 92.011719 130.53125 91.972656 130.6875 91.898438 130.832031 C 90.921875 132.773438 89.71875 134.597656 88.316406 136.261719 C 88.203125 136.398438 88.058594 136.507812 87.898438 136.582031 C 87.738281 136.660156 87.5625 136.699219 87.382812 136.699219 Z M 92.699219 125.589844 C 92.527344 125.589844 92.355469 125.554688 92.195312 125.480469 C 92.039062 125.40625 91.898438 125.304688 91.785156 125.171875 C 91.667969 125.039062 91.585938 124.882812 91.535156 124.71875 C 91.488281 124.550781 91.476562 124.375 91.5 124.203125 C 91.621094 123.386719 91.679688 122.5625 91.679688 121.734375 C 91.679688 120.617188 91.570312 119.5 91.359375 118.402344 C 91.300781 118.085938 91.367188 117.757812 91.546875 117.492188 C 91.730469 117.226562 92.007812 117.046875 92.324219 116.984375 C 92.636719 116.925781 92.964844 116.992188 93.230469 117.171875 C 93.496094 117.351562 93.679688 117.632812 93.738281 117.945312 C 93.980469 119.195312 94.101562 120.464844 94.101562 121.734375 C 94.101562 122.679688 94.035156 123.621094 93.898438 124.554688 C 93.855469 124.84375 93.710938 125.105469 93.492188 125.292969 C 93.273438 125.484375 92.992188 125.589844 92.699219 125.589844 Z M 90.535156 113.5 C 90.308594 113.5 90.085938 113.4375 89.894531 113.316406 C 89.703125 113.199219 89.546875 113.027344 89.449219 112.824219 C 89.371094 112.664062 89.289062 112.503906 89.207031 112.34375 C 88.359375 110.703125 87.421875 109.109375 86.394531 107.574219 C 86.304688 107.445312 86.242188 107.296875 86.210938 107.140625 C 86.179688 106.984375 86.179688 106.824219 86.210938 106.667969 C 86.242188 106.511719 86.304688 106.363281 86.390625 106.230469 C 86.480469 106.097656 86.59375 105.984375 86.722656 105.894531 C 86.855469 105.804688 87.003906 105.742188 87.160156 105.710938 C 87.316406 105.679688 87.476562 105.679688 87.632812 105.710938 C 87.789062 105.742188 87.9375 105.804688 88.070312 105.890625 C 88.203125 105.980469 88.316406 106.09375 88.40625 106.226562 C 89.484375 107.835938 90.46875 109.507812 91.355469 111.230469 C 91.449219 111.40625 91.535156 111.578125 91.621094 111.753906 C 91.710938 111.9375 91.753906 112.144531 91.742188 112.347656 C 91.734375 112.554688 91.671875 112.753906 91.5625 112.929688 C 91.453125 113.101562 91.300781 113.246094 91.121094 113.347656 C 90.941406 113.449219 90.742188 113.5 90.535156 113.5 Z M 83.589844 103.179688 C 83.421875 103.179688 83.25 103.144531 83.09375 103.074219 C 82.9375 103.003906 82.800781 102.898438 82.6875 102.773438 C 81.34375 101.257812 79.898438 99.839844 78.359375 98.523438 C 78.238281 98.421875 78.136719 98.296875 78.066406 98.152344 C 77.992188 98.011719 77.949219 97.859375 77.9375 97.699219 C 77.925781 97.539062 77.941406 97.382812 77.992188 97.230469 C 78.039062 97.078125 78.117188 96.9375 78.222656 96.816406 C 78.324219 96.695312 78.449219 96.597656 78.59375 96.523438 C 78.734375 96.453125 78.886719 96.40625 79.046875 96.394531 C 79.207031 96.382812 79.363281 96.402344 79.515625 96.449219 C 79.667969 96.5 79.808594 96.578125 79.929688 96.679688 C 81.554688 98.066406 83.078125 99.566406 84.496094 101.164062 C 84.652344 101.335938 84.753906 101.554688 84.789062 101.785156 C 84.824219 102.015625 84.792969 102.25 84.695312 102.464844 C 84.601562 102.675781 84.445312 102.859375 84.25 102.984375 C 84.054688 103.113281 83.824219 103.179688 83.589844 103.179688 Z M 74.132812 95.109375 C 73.902344 95.109375 73.675781 95.042969 73.480469 94.917969 C 71.773438 93.828125 69.996094 92.851562 68.15625 91.996094 C 68.011719 91.929688 67.882812 91.835938 67.777344 91.71875 C 67.667969 91.601562 67.585938 91.464844 67.53125 91.3125 C 67.476562 91.164062 67.453125 91.007812 67.460938 90.847656 C 67.464844 90.6875 67.503906 90.53125 67.570312 90.386719 C 67.636719 90.242188 67.734375 90.113281 67.851562 90.007812 C 67.96875 89.898438 68.105469 89.816406 68.253906 89.761719 C 68.402344 89.707031 68.5625 89.679688 68.722656 89.6875 C 68.878906 89.695312 69.035156 89.734375 69.179688 89.800781 C 71.113281 90.703125 72.984375 91.726562 74.785156 92.875 C 75.003906 93.015625 75.175781 93.226562 75.265625 93.46875 C 75.359375 93.714844 75.367188 93.984375 75.296875 94.238281 C 75.222656 94.488281 75.070312 94.710938 74.859375 94.867188 C 74.648438 95.023438 74.394531 95.109375 74.132812 95.109375 Z M 62.867188 89.835938 C 62.738281 89.835938 62.613281 89.816406 62.492188 89.777344 C 60.558594 89.152344 58.589844 88.644531 56.59375 88.25 C 56.28125 88.1875 56.003906 88.003906 55.824219 87.734375 C 55.644531 87.46875 55.578125 87.140625 55.640625 86.824219 C 55.703125 86.511719 55.886719 86.234375 56.15625 86.054688 C 56.421875 85.875 56.746094 85.808594 57.0625 85.871094 C 59.152344 86.28125 61.210938 86.816406 63.238281 87.46875 C 63.511719 87.558594 63.746094 87.742188 63.898438 87.988281 C 64.046875 88.234375 64.105469 88.527344 64.0625 88.8125 C 64.015625 89.097656 63.871094 89.355469 63.652344 89.542969 C 63.433594 89.730469 63.152344 89.835938 62.867188 89.835938 Z M 62.867188 89.835938 " fill-opacity="1" fill-rule="nonzero"/><path fill="#2a3038" d="M 58.609375 154.570312 C 58.320312 154.566406 58.042969 154.464844 57.824219 154.277344 C 57.605469 154.089844 57.460938 153.832031 57.414062 153.546875 C 57.371094 153.261719 57.425781 152.96875 57.578125 152.722656 C 57.726562 152.476562 57.960938 152.292969 58.234375 152.203125 C 58.246094 152.199219 59.304688 151.855469 61.011719 151.1875 C 61.3125 151.070312 61.644531 151.078125 61.9375 151.210938 C 62.230469 151.339844 62.460938 151.578125 62.578125 151.878906 C 62.695312 152.175781 62.6875 152.507812 62.558594 152.804688 C 62.429688 153.097656 62.191406 153.328125 61.890625 153.445312 C 60.113281 154.140625 59.03125 154.492188 58.984375 154.507812 C 58.863281 154.546875 58.738281 154.570312 58.609375 154.570312 Z M 58.609375 154.570312 " fill-opacity="1" fill-rule="nonzero"/><path fill="#fca703" d="M 92.628906 86.125 C 89.546875 86.125 86.59375 87.351562 84.417969 89.53125 C 82.238281 91.710938 81.015625 94.664062 81.015625 97.746094 C 81.015625 102.488281 87.347656 113.914062 90.660156 119.574219 C 90.859375 119.917969 91.148438 120.203125 91.492188 120.402344 C 91.839844 120.597656 92.230469 120.703125 92.628906 120.703125 C 93.027344 120.703125 93.417969 120.597656 93.761719 120.402344 C 94.109375 120.203125 94.394531 119.917969 94.597656 119.574219 C 97.910156 113.914062 104.242188 102.488281 104.242188 97.746094 C 104.242188 94.664062 103.015625 91.710938 100.839844 89.53125 C 98.660156 87.351562 95.707031 86.125 92.628906 86.125 Z M 92.628906 104.640625 C 91.316406 104.640625 90.035156 104.25 88.945312 103.523438 C 87.851562 102.792969 87.003906 101.757812 86.5 100.542969 C 86 99.332031 85.867188 97.996094 86.125 96.707031 C 86.378906 95.421875 87.011719 94.238281 87.9375 93.308594 C 88.867188 92.382812 90.046875 91.75 91.335938 91.492188 C 92.621094 91.238281 93.953125 91.367188 95.164062 91.871094 C 96.378906 92.375 97.414062 93.222656 98.140625 94.316406 C 98.871094 95.40625 99.261719 96.691406 99.261719 98.003906 C 99.261719 98.875 99.089844 99.738281 98.753906 100.542969 C 98.421875 101.347656 97.933594 102.082031 97.316406 102.695312 C 96.703125 103.3125 95.96875 103.800781 95.167969 104.136719 C 94.363281 104.46875 93.5 104.640625 92.628906 104.640625 Z M 92.628906 104.640625 " fill-opacity="1" fill-rule="nonzero"/><path fill="#fca703" d="M 314.976562 62.800781 L 314.976562 67.59375 C 314.976562 71.554688 312.34375 74.664062 309.3125 74.246094 C 304.300781 73.558594 299.214844 73.558594 294.199219 74.246094 C 291.171875 74.664062 288.539062 71.554688 288.539062 67.59375 L 288.539062 62.800781 C 288.539062 59.109375 290.839844 56.113281 293.679688 56.113281 L 309.832031 56.113281 C 312.671875 56.113281 314.976562 59.109375 314.976562 62.800781 Z M 314.976562 62.800781 " fill-opacity="1" fill-rule="nonzero"/><path fill="#0c981c" d="M 314.964844 68.03125 C 313.914062 67.765625 312.855469 67.53125 311.78125 67.332031 C 305.15625 66.085938 298.359375 66.085938 291.730469 67.332031 C 290.660156 67.53125 289.597656 67.765625 288.550781 68.027344 C 265.109375 73.921875 247.753906 95.152344 247.753906 120.441406 C 247.753906 150.289062 271.933594 174.480469 301.757812 174.480469 C 331.578125 174.480469 355.757812 150.289062 355.757812 120.441406 C 355.757812 95.152344 338.402344 73.925781 314.964844 68.03125 Z M 301.757812 159.6875 C 280.097656 159.6875 262.539062 142.117188 262.539062 120.441406 C 262.539062 98.761719 280.097656 81.1875 301.757812 81.1875 C 323.414062 81.1875 340.976562 98.761719 340.976562 120.441406 C 340.976562 142.117188 323.414062 159.6875 301.757812 159.6875 Z M 301.757812 159.6875 " fill-opacity="1" fill-rule="nonzero"/><path fill="#fca703" d="M 301.757812 122.863281 C 301.203125 122.863281 300.664062 122.671875 300.234375 122.324219 L 281.328125 107.050781 C 280.828125 106.644531 280.507812 106.058594 280.441406 105.421875 C 280.371094 104.78125 280.5625 104.140625 280.964844 103.640625 C 281.367188 103.144531 281.953125 102.824219 282.589844 102.753906 C 283.230469 102.6875 283.867188 102.875 284.367188 103.277344 L 299.335938 115.367188 L 299.335938 100.6875 C 299.335938 100.371094 299.398438 100.054688 299.519531 99.757812 C 299.640625 99.464844 299.816406 99.199219 300.042969 98.972656 C 300.269531 98.746094 300.535156 98.570312 300.828125 98.445312 C 301.125 98.324219 301.4375 98.261719 301.757812 98.261719 C 302.074219 98.261719 302.390625 98.324219 302.683594 98.445312 C 302.976562 98.570312 303.246094 98.746094 303.46875 98.972656 C 303.695312 99.199219 303.871094 99.464844 303.996094 99.757812 C 304.117188 100.054688 304.179688 100.371094 304.179688 100.6875 L 304.179688 120.4375 C 304.179688 121.082031 303.921875 121.699219 303.46875 122.152344 C 303.015625 122.605469 302.398438 122.863281 301.757812 122.863281 Z M 301.757812 122.863281 " fill-opacity="1" fill-rule="nonzero"/></svg>